<svg width="859" height="683" viewBox="0 0 859 683" fill="none" xmlns="http://www.w3.org/2000/svg">
<g id="Gift">
<g id="tree">
<path id="tree3" d="M243.167 459.195C296.849 459.195 340.368 415.677 340.368 361.995C340.368 308.312 296.849 264.794 243.167 264.794C189.485 264.794 145.967 308.312 145.967 361.995C145.967 415.677 189.485 459.195 243.167 459.195Z" fill="#E6E6E6"/>
<path id="tree2" d="M99.2004 467.448C152.883 467.448 196.401 423.93 196.401 370.247C196.401 316.565 152.883 273.047 99.2004 273.047C45.5181 273.047 2 316.565 2 370.247C2 423.93 45.5181 467.448 99.2004 467.448Z" fill="#E6E6E6"/>
<path id="tree1" d="M167.355 334.709C259.782 334.709 334.709 259.782 334.709 167.355C334.709 74.9272 259.782 0 167.355 0C74.9272 0 0 74.9272 0 167.355C0 259.782 74.9272 334.709 167.355 334.709Z" fill="#E6E6E6"/>
</g>
<path id="Vector" d="M858.746 680H68.7461V682H858.746V680Z" fill="#3F3D56"/>
<g id="Bounce_1">
<path id="Vector_2" d="M655.29 301.934L616.081 324.571L638.719 363.78L677.927 341.143L655.29 301.934Z" fill="#FF6584"/>
<path id="Vector_3" d="M655.788 371.952L632.15 331.01L673.092 307.373L696.729 348.315L655.788 371.952ZM634.883 331.743L656.52 369.219L693.997 347.583L672.359 310.106L634.883 331.743Z" fill="#2F2E41"/>
</g>
<g id="Bounce_3">
<path id="Vector_4" d="M593 459C603.493 459 612 450.493 612 440C612 429.507 603.493 421 593 421C582.507 421 574 429.507 574 440C574 450.493 582.507 459 593 459Z" fill="#D0CDE1"/>
<path id="Vector_5" d="M607 460C603.044 460 599.178 458.827 595.889 456.629C592.6 454.432 590.036 451.308 588.522 447.654C587.009 443.999 586.613 439.978 587.384 436.098C588.156 432.219 590.061 428.655 592.858 425.858C595.655 423.061 599.219 421.156 603.098 420.384C606.978 419.613 610.999 420.009 614.654 421.522C618.308 423.036 621.432 425.6 623.629 428.889C625.827 432.178 627 436.044 627 440C627 445.304 624.893 450.391 621.142 454.142C617.391 457.893 612.304 460 607 460V460ZM607 422C603.44 422 599.96 423.056 597 425.034C594.04 427.011 591.733 429.823 590.37 433.112C589.008 436.401 588.651 440.02 589.346 443.512C590.04 447.003 591.755 450.211 594.272 452.728C596.789 455.245 599.997 456.96 603.488 457.654C606.98 458.349 610.599 457.992 613.888 456.63C617.177 455.267 619.989 452.96 621.966 450C623.944 447.04 625 443.56 625 440C625 435.226 623.104 430.648 619.728 427.272C616.352 423.896 611.774 422 607 422V422Z" fill="#2F2E41"/>
</g>
<g id="Body_1">
<path id="Vector_6" d="M216.906 503.933L240.815 518.749V418.598L214.015 401.99C211.8 400.617 210.181 398.462 209.479 395.952V395.952C212.039 395.463 214.69 395.953 216.906 397.326L240.816 412.142V373.307C240.816 365.794 241.737 358.309 243.559 351.02C245.381 358.309 246.303 365.794 246.303 373.307V436.694L281.577 414.836C284.393 413.09 287.652 412.191 290.965 412.246C289.539 415.237 287.283 417.755 284.467 419.5L246.303 443.149V680H240.815V525.205L214.015 508.597C211.8 507.224 210.181 505.069 209.479 502.559V502.559C212.039 502.07 214.69 502.56 216.906 503.933Z" fill="#CCCCCC"/>
<path id="Vector_7" d="M125.462 512.186L101.552 527.002V426.851L128.352 410.243C130.568 408.87 132.187 406.715 132.889 404.205V404.205C130.328 403.715 127.678 404.206 125.462 405.579L101.552 420.395V381.559C101.552 374.046 100.631 366.562 98.8084 359.273C96.9862 366.562 96.0648 374.046 96.0648 381.559V444.947L60.7911 423.089C57.9745 421.343 54.7156 420.444 51.4025 420.499C52.8286 423.489 55.0842 426.008 57.9008 427.753L96.065 451.402V680.523H101.552V533.457L128.352 516.85C130.568 515.477 132.187 513.322 132.889 510.812V510.812C130.328 510.322 127.678 510.813 125.462 512.186V512.186Z" fill="#CCCCCC"/>
<path id="Vector_8" d="M215.024 411.737L173.857 437.247V264.811L220 236.217C223.815 233.853 226.603 230.142 227.811 225.82L227.811 225.82H227.811C223.403 224.978 218.839 225.823 215.024 228.187L173.857 253.696V186.831C173.857 173.895 172.271 161.009 169.133 148.46C165.996 161.009 164.41 173.895 164.41 186.831V295.968L103.677 258.334C98.8276 255.329 93.2166 253.781 87.5123 253.874C89.9677 259.024 93.8513 263.359 98.7008 266.364L164.41 307.082V680.89H173.857V448.361L220 419.767C223.815 417.403 226.603 413.693 227.811 409.37L227.811 409.37H227.811C223.403 408.528 218.839 409.373 215.024 411.737V411.737Z" fill="#CCCCCC"/>
<path id="Vector_9" d="M738.5 680H554.5C552.246 679.997 550.086 679.101 548.492 677.508C546.899 675.914 546.003 673.754 546 671.5V500.5C546.003 498.246 546.899 496.086 548.492 494.492C550.086 492.899 552.246 492.003 554.5 492H738.5C740.754 492.003 742.914 492.899 744.508 494.492C746.101 496.086 746.997 498.246 747 500.5V671.5C746.997 673.754 746.101 675.914 744.508 677.508C742.914 679.101 740.754 679.997 738.5 680V680Z" fill="#6C63FF"/>
<path id="Vector_10" d="M659.5 682.084H633.5C631.246 682.081 629.086 681.185 627.492 679.592C625.899 677.998 625.003 675.838 625 673.584V491.5C625.003 489.246 625.899 487.086 627.492 485.492C629.086 483.899 631.246 483.003 633.5 483H659.5C661.754 483.003 663.914 483.899 665.508 485.492C667.101 487.086 667.997 489.246 668 491.5V673.584C667.997 675.838 667.101 677.998 665.508 679.592C663.914 681.185 661.754 682.081 659.5 682.084V682.084Z" fill="#3F3D56"/>
<path id="Vector_11" d="M787.857 479.622C786.782 497.262 762.953 510.163 762.953 510.163C762.953 510.163 740.867 494.464 741.942 476.824C743.017 459.183 766.846 446.282 766.846 446.282C766.846 446.282 788.932 461.981 787.857 479.622Z" fill="#3F3D56"/>
<path id="Vector_12" d="M788.936 534.661C771.292 533.641 758.317 509.852 758.317 509.852C758.317 509.852 773.947 487.717 791.591 488.737C809.234 489.757 822.21 513.546 822.21 513.546C822.21 513.546 806.58 535.681 788.936 534.661Z" fill="#3F3D56"/>
<path id="Vector_13" opacity="0.1" d="M746.97 517.469V582.749L682.04 497.049H731.5L746.97 517.469Z" fill="black"/>
<path id="Vector_14" d="M802.092 629.214C800.778 629.217 799.481 628.914 798.304 628.331C797.127 627.747 796.101 626.898 795.308 625.851L660.033 447.31C659.359 446.42 658.867 445.406 658.584 444.326C658.302 443.246 658.235 442.121 658.388 441.016C658.54 439.91 658.909 438.845 659.473 437.882C660.037 436.918 660.785 436.075 661.675 435.401L681.602 420.304C682.491 419.63 683.505 419.137 684.585 418.855C685.665 418.573 686.79 418.506 687.896 418.658C689.001 418.811 690.066 419.18 691.03 419.744C691.993 420.308 692.835 421.056 693.509 421.946L828.784 600.486C829.458 601.376 829.95 602.39 830.232 603.47C830.515 604.55 830.582 605.675 830.429 606.78C830.277 607.886 829.908 608.951 829.344 609.914C828.78 610.878 828.032 611.72 827.142 612.395L807.215 627.492C805.742 628.611 803.942 629.216 802.092 629.214V629.214Z" fill="#6C63FF"/>
<path id="Vector_15" d="M747.945 490.48L713.672 516.448L739.64 550.722L773.913 524.754L747.945 490.48Z" fill="#3F3D56"/>
</g>
<g id="Bounce_2">
<path id="Vector_16" d="M553.201 341L541.483 384.732L585.215 396.45L596.933 352.718L553.201 341Z" fill="#D0CDE1"/>
<path id="Vector_17" d="M566.663 402.988L521 390.752L533.235 345.088L578.898 357.324L566.663 402.988ZM523.449 389.338L565.249 400.538L576.449 358.738L534.649 347.537L523.449 389.338Z" fill="#2F2E41"/>
</g>
<g id="Back_hand">
<path id="Vector_18" d="M392.749 527.999C393.951 526.848 394.885 525.448 395.487 523.896C396.089 522.345 396.343 520.68 396.232 519.02C396.121 517.36 395.647 515.744 394.844 514.287C394.041 512.829 392.928 511.566 391.584 510.585L373.22 362.555L349.494 369.609L375.108 513.668C373.61 516.035 373.033 518.87 373.485 521.635C373.938 524.4 375.389 526.903 377.563 528.669C379.738 530.436 382.485 531.343 385.283 531.22C388.082 531.096 390.739 529.95 392.749 527.999Z" fill="#FFB8B8"/>
</g>
<g id="Front_leg">
<path id="Vector_19" d="M414.742 669.489H428.619L435.224 615.964H414.742V669.489Z" fill="#FFB8B8"/>
<path id="Vector_20" d="M455.382 682.375H411.769V665.524H440.073C444.133 665.524 448.027 667.137 450.898 670.008C453.769 672.879 455.382 676.773 455.382 680.834V682.375V682.375Z" fill="#2F2E41"/>
</g>
<g id="Back_leg">
<path id="Vector_21" d="M318.779 647.875L331.786 652.713L356.636 604.848L337.44 597.707L318.779 647.875Z" fill="#FFB8B8"/>
<path id="Vector_22" d="M352.377 674.12L311.5 658.915L317.375 643.122L343.903 652.99C347.709 654.405 350.796 657.274 352.486 660.966C354.176 664.658 354.33 668.87 352.914 672.676L352.377 674.12L352.377 674.12Z" fill="#2F2E41"/>
</g>
<path id="Vector_23" d="M389.848 324.127C404.339 324.127 416.087 312.379 416.087 297.888C416.087 283.397 404.339 271.649 389.848 271.649C375.357 271.649 363.609 283.397 363.609 297.888C363.609 312.379 375.357 324.127 389.848 324.127Z" fill="#FFB8B8"/>
<path id="Vector_24" d="M348.807 365.23C347.986 341.062 373.386 324.295 394.757 335.611C397.48 337.053 425.595 360.939 426.654 375.772C427.714 390.606 429.833 414.975 429.833 414.975L459.5 636.418L395.928 633.239L403.605 568.641L362.284 634.332L312.225 618.406L373.678 441.463C373.678 441.463 350.052 401.856 348.807 365.23Z" fill="#2F2E41"/>
<path id="Vector_25" d="M349.308 373.644L353.39 426.712C353.432 427.266 353.683 427.784 354.091 428.162C354.498 428.539 355.034 428.749 355.589 428.749H373.551C373.914 428.749 374.271 428.659 374.592 428.488C374.912 428.317 375.185 428.07 375.386 427.768C375.588 427.466 375.711 427.119 375.747 426.758C375.782 426.396 375.728 426.032 375.588 425.697L353.545 372.628C353.343 372.143 352.976 371.746 352.508 371.508C352.041 371.27 351.503 371.207 350.993 371.329C350.483 371.451 350.033 371.752 349.724 372.176C349.415 372.6 349.267 373.12 349.308 373.644V373.644Z" fill="#2F2E41"/>
<g id="Font_hand">
<path id="Vector_26" d="M441.548 518.804C442.607 517.52 443.371 516.02 443.787 514.409C444.203 512.798 444.261 511.115 443.957 509.479C443.652 507.843 442.992 506.294 442.024 504.94C441.056 503.587 439.803 502.462 438.353 501.646L402.792 356.782L380.054 366.565L422.352 506.636C421.141 509.162 420.9 512.045 421.672 514.738C422.445 517.431 424.179 519.746 426.545 521.246C428.912 522.746 431.746 523.326 434.511 522.876C437.276 522.426 439.78 520.977 441.548 518.804V518.804Z" fill="#FFB8B8"/>
<path id="Vector_27" d="M383.214 343.986C383.214 343.986 375.797 358.82 383.214 385.308C390.63 411.796 395.928 434.047 395.928 434.047C395.928 434.047 412.881 423.451 420.297 426.63C427.714 429.809 408.565 356.019 408.565 356.019C408.565 356.019 396.988 331.272 383.214 343.986Z" fill="#2F2E41"/>
</g>
<path id="Vector_28" d="M396.005 301.982C396.36 296.538 403.228 296.351 408.684 296.3C414.14 296.248 420.662 296.443 423.749 291.944C425.789 288.971 425.4 284.844 423.714 281.656C422.029 278.469 419.256 276.017 416.529 273.659C409.488 267.57 402.231 261.53 393.777 257.632C385.323 253.735 375.416 252.16 366.649 255.289C355.879 259.132 341.32 278.915 340.063 290.281C338.805 301.647 343.348 313.233 351.004 321.727C358.661 330.22 376.186 326.793 387.215 329.815C380.51 320.325 384.93 303.082 395.671 298.651L396.005 301.982Z" fill="#2F2E41"/>
</g>
</svg>
