<svg xmlns="http://www.w3.org/2000/svg" width="238.756" height="193.99" viewBox="0 0 238.756 193.99">
  <g id="gift-box_1_" data-name="gift-box(1)" transform="translate(-14.818 10.435)">
    <g id="Group_1" data-name="Group 1" transform="translate(14.818 -10.435)">
      <path id="Path_1" data-name="Path 1" d="M234.777,51.731H209.485c15.4-10.066,17.84-28.368,5.452-40.88C208.137,3.984,197.872-.007,187.026,0h-34.89C137.949,0,125.1,6.812,119.378,17.359,113.655,6.812,100.808,0,86.621,0H51.731c-19.764-.013-35.8,13-35.813,29.053-.008,8.813,4.9,17.153,13.354,22.677H3.979C1.782,51.731,0,53.178,0,54.964V87.3c0,1.786,1.782,3.233,3.979,3.233h7.959V190.756c0,1.786,1.782,3.233,3.979,3.233H222.839c2.2,0,3.979-1.448,3.979-3.233V90.528h7.959c2.2,0,3.979-1.448,3.979-3.233V54.964C238.756,53.178,236.975,51.731,234.777,51.731Zm-54.807-45c.322-.039.641-.091.963-.123q1.512-.141,3.036-.145h3.056C202.4,6.48,214.863,16.605,214.881,29.1c-.017,12.493-12.479,22.618-27.855,22.632h-9.347c15.384-10.073,17.805-28.371,5.408-40.87a33.019,33.019,0,0,0-4.668-3.9C178.932,6.877,179.449,6.8,179.971,6.735Zm-10.326,3.1c13.129,6.456,17.331,20.338,9.384,31.005-5.046,6.774-14.091,10.905-23.837,10.887H141.38l17.071-31.7A24.943,24.943,0,0,1,169.644,9.838ZM141.475,58.2H168.65l18.794,30.544,13.04,21.187H187.026a4.347,4.347,0,0,0-3.183,1.293l-7.911,8.568L157.01,85.97Zm5.73,25.865h-7.931V69.888ZM69.112,9.838A24.943,24.943,0,0,1,80.306,20.026l17.071,31.7H83.565c-15.347.029-27.816-10.056-27.852-22.525C55.69,21.288,60.774,13.939,69.112,9.838ZM97.281,58.2,81.762,85.957,62.825,119.789l-7.911-8.568a4.347,4.347,0,0,0-3.183-1.293H38.273l13.06-21.187L70.107,58.2ZM23.876,29.1C23.893,16.605,36.354,6.48,51.731,6.466h3.056q1.522,0,3.036.145c.322.032.641.084.963.123.521.065,1.039.142,1.552.23-15.045,10.4-16.861,28.749-4.055,40.973a33.539,33.539,0,0,0,4.8,3.793H51.731C36.354,51.716,23.893,41.592,23.876,29.1ZM7.959,84.062V58.2H61.209L45.292,84.062ZM99.482,187.523H19.9V90.528H41.313l-13.04,21.187c-.982,1.6-.185,3.539,1.781,4.337a4.755,4.755,0,0,0,1.781.341H49.741l10.744,11.639a4.347,4.347,0,0,0,3.183,1.293q.216,0,.43-.019a4.015,4.015,0,0,0,3.183-1.875l20.66-36.9h11.54Zm0-103.461H91.551l7.931-14.174ZM87.6,17.436A30.594,30.594,0,0,0,77.218,6.466h9.4c11.066,0,21.083,5.323,25.519,13.56l2.893,5.377L103.461,46.9Zm43.72,170.087H107.44V58.2h23.876ZM109.545,51.731l17.071-31.7c4.436-8.237,14.453-13.56,25.519-13.56h9.423a30.594,30.594,0,0,0-10.378,10.97L132.693,51.731ZM218.86,187.523H139.275V90.528h11.54l20.652,36.9a4.015,4.015,0,0,0,3.183,1.875c.145.013.291.02.438.019a4.347,4.347,0,0,0,3.183-1.293l10.744-11.639h17.907c2.2.01,3.989-1.43,4-3.215a2.746,2.746,0,0,0-.42-1.463l-13.06-21.187H218.86ZM230.8,84.062H193.464L177.547,58.2H230.8Z" transform="translate(0 0)"/>
    </g>
  </g>
</svg>
