<?xml version="1.0" encoding="utf-8"?>
<!-- Generator: Adobe Illustrator 21.0.0, SVG Export Plug-In . SVG Version: 6.00 Build 0)  -->
<svg version="1.1" id="main" xmlns="http://www.w3.org/2000/svg" xmlns:xlink="http://www.w3.org/1999/xlink" x="0px" y="0px"
	 viewBox="0 0 800 600" style="enable-background:new 0 0 800 600;" xml:space="preserve">
<style type="text/css">
	.st0{fill:#0BB85C;}
	.st1{fill:#FFFFFF;}
	.st2{fill:#FF454B;}
	.st3{fill:#FF6640;}
	.st4{fill:#FFD7B3;}
	.st5{fill:#96C2E0;}
	.st6{fill:none;stroke:#233A57;stroke-width:4;stroke-linecap:round;stroke-linejoin:round;stroke-miterlimit:10;}
	.st7{opacity:0.12;fill:#0C0C0C;}
	.st8{opacity:0.5;fill:#FFFFFF;}
	.st9{opacity:0.1;fill:#0C0C0C;}
	.st10{opacity:0.2;fill:#0C0C0C;}
	.st11{opacity:0.15;fill:#0C0C0C;}
	.st12{opacity:0.15;}
	.st13{fill:#0C0C0C;}
	.st14{opacity:0.35;fill:#FFFFFF;}
	.st15{opacity:0.25;fill:#FFFFFF;}
	.st16{fill:none;stroke:#233A57;stroke-width:2;stroke-linecap:round;stroke-linejoin:round;stroke-miterlimit:10;}
</style>
<g id="colors">
	<path class="st0" d="M508,203.8c1.8,0.5-0.6,4.5-1.9,5.9c-3.7,4.3-11.3,11.2-17,16.2c5.9-2.2,14-7.7,16.3-4.1
		c2.6,3.7-7.4,8.9-13.2,11.7c-1.8,0.6-3.5,1.4-5.3,2.4c-6.4,4-13.2,9.9-19.8,17.1c-1.4,1.5-2.8,3.1-4.2,4.8l0,0
		c0.3-4.9,0.3-9.9-0.1-14.6c0,0,1.2,1.5,1.2,1.5c2-14.5,8-32.1,14-31.5c3.9,1.4,0.3,8.7-1,14.8C487.4,214.3,499.3,201.1,508,203.8z"
		/>
	<path class="st0" d="M485.2,286.2c9.2,3.2,20,9.7,17.1,15.5c-2.6,4.8-12.7,1.1-18.1-4.7c5,7.2,14,13.6,12,20.2
		c-1.1,3.9-5.8,5.4-9.2,3.2c-2.1-1.4-4.1-3.6-5-6c-0.4-2.5-2.9-5.1-7.4-6.6c4.9-6.9-0.5-16.7-9.8-15.3v0c2.6-4.6,5.5-8.9,8.5-13.1
		c0.8-1.2,1.7-2.3,2.5-3.4h0c10.7-1.8,20-2.3,25.1,1c3,1.9,3,6.4,0,8.2C497.3,287.2,491.2,287.6,485.2,286.2z"/>
	<path class="st1" d="M495.6,177.5c4.3,1.6,6.5,6.3,4.9,10.6c-1.6,4.3-6.3,6.5-10.6,4.9c-4.3-1.6-6.5-6.3-4.9-10.6
		C486.6,178.2,491.3,176,495.6,177.5z"/>
	<path class="st2" d="M481.4,160.9c-6.7,5.1-11.2,14.2-11.3,24.9c-2.3-7.8-14-16.1-24.2-19.8c-8.9-3.2-21.2-4.5-28.6-1.7
		c15.6-42.9,81.4-45.2,75.3,12.5C489.6,170.8,485.9,165.4,481.4,160.9z"/>
	<path class="st1" d="M470.1,185.8c1.1,3.9,0,7.6-4.9,10.7c-4.5-9.9-14.2-16-23.3-19.3c-9.1-3.3-20.5-4.8-30.3-0.1
		c-2.2-6.7,0.6-10.7,5.8-12.7c7.4-2.9,19.7-1.6,28.6,1.7C456,169.7,467.8,178,470.1,185.8z"/>
	<path class="st2" d="M447,262.3c-6.2-4.8-15.3-7.9-21.2-8.2c0.7-0.5,1.3-1,1.9-1.4c9.5-7.4,17.4-17.4,21.9-27.9
		c2.8,0.4,5.6,0.3,8.3-0.2h0c2.7,3.8,4.4,10.7,5.1,18.5c0,0,0,0,0,0c0.4,4.7,0.5,9.8,0.1,14.6l0,0c-1.9,2.3-3.8,4.7-5.6,7.2
		c-1.5,2-2.9,4-4.2,6.1C452.5,267.8,450.2,264.8,447,262.3L447,262.3z"/>
	<path class="st3" d="M421.9,455.5c5-1.7,10-2.4,14.6-2.1c3.7,9.4,4.3,19.9,1.3,29.6c-7.4,23.8-33.3,40.3-61.1,21.8
		c0.9-3.7,2.3-7.4,4-11c2.1-4.4,4.7-8.7,7.6-12.6C397.3,469.1,409.8,459.6,421.9,455.5z"/>
	<path class="st4" d="M435.1,216.1c-2.4,0.3-4.8,0.1-7.1-0.7c-2.3-0.8-4.2-2.2-5.9-4c4-1.2,7.6-3.8,10.3-8.3
		C431.7,208.3,432.8,212.6,435.1,216.1z"/>
	<path class="st1" d="M432.5,203.1c3,1.1,6.2,0.1,8.1-2.1c7,4.2,8.6,10.7,14.1,15.4c2.4,2.1,5.6,3.9,10.4,5
		c-2.1,1.6-4.5,2.6-7.1,3.2h0c-2.7,0.6-5.5,0.7-8.3,0.2c-5.8-0.9-11.3-3.9-14.5-8.7C432.8,212.6,431.7,208.3,432.5,203.1z"/>
	<path class="st1" d="M432.5,203.1c-2.7,4.5-6.4,7.1-10.3,8.3c-5.6,1.7-11.7,0.4-16.7-2.7c-2.4-1.5-4.5-3.3-6.2-5.5
		c-1.6-2.1-2.8-4.5-3.4-7c4.4,2.2,7.9,2.9,11.1,2.8c7.3-0.1,12.7-4.1,20.7-2.8C427.7,199.2,429.5,202,432.5,203.1z"/>
	<path class="st0" d="M453.3,274.6c4.3,3.3,7.9,7.6,10.6,13c0.7,2.1,1,3.7,0.9,4.9v0c-0.1,1.1-0.6,1.8-1.5,2.3
		c-1.1,0.6-2.5,0.5-3.6,0c-2.8-1.2-4.4-3.1-7-5.3c2.5,10.6,15.2,18.3,14.6,27.9c-0.1,2.2-1.6,4.3-3.7,4.9
		c-5.3,1.4-6.8-8.8-10.4-15.4c2.2,4.9,3.3,15.4,0.8,18.6c-1.4,1.8-4.2,1.9-5.9,0.3c-5.5-5.2-2.7-15-4.9-23.9
		c0.2,4-1.4,11.5-2.8,15.7c-1.4,5.2-9.1,4.9-8-3.4c1.7-10.4,2-17.3,2.2-28.1c-0.7,5.7-2.8,10.3-5.4,15.6c-4.7,8.7-12.6,1.5-8.1-7.1
		c6-11.1,8.1-22.3,6.3-33.8c-0.5-2.7-1.4-4.7-2.5-6c0.3-0.2,0.7-0.5,1-0.7c5.8,0.2,15,3.4,21.2,8.2v0c3.2,2.5,5.6,5.5,6.3,8.8
		C453.5,272.2,453.5,273.4,453.3,274.6z"/>
	<path class="st4" d="M466.1,196.8l-0.9-0.3c-4.5-9.9-14.2-16-23.3-19.3c-9.1-3.3-20.5-4.8-30.3-0.1l-0.9-0.3
		c-3.8-1.4-8.1,0.6-9.5,4.4c-1.4,3.8,0.6,8.1,4.4,9.5l0.9,0.3c-0.3,2.7-0.1,5.5,0.4,8.1c7.3-0.1,12.7-4.1,20.7-2.8
		c0.1,3,1.9,5.7,4.9,6.8c3,1.1,6.2,0.1,8.1-2.1c7,4.2,8.6,10.7,14.1,15.4c2.1-1.7,3.9-3.7,5.5-6l0.9,0.3c3.8,1.4,8.1-0.6,9.5-4.4
		C471.9,202.5,469.9,198.2,466.1,196.8z"/>
	<path class="st1" d="M424.8,254.8c-2.3-2.7-5.6-2.7-8.6,0.1c1.6-6.6-5.1-12.3-12.1-11.9v0c-2.3-11.5-1.9-23.7,1.3-34.3
		c5,3.1,11.2,4.3,16.7,2.7c1.6,1.8,3.6,3.1,5.9,4c2.3,0.8,4.7,1,7.1,0.7c3.2,4.9,8.7,7.9,14.5,8.7c-4.5,10.5-12.4,20.4-21.9,27.9
		c-0.6,0.5-1.3,1-1.9,1.4C425.5,254.4,425.1,254.6,424.8,254.8z"/>
	<path class="st2" d="M385,237c-0.4-6.8-6.2-10.6-11.9-10.6c2.6-3.7,5.6-7.3,8.6-10.6c6.1-6.4,12.6-11.4,17.5-12.7
		c1.7,2.2,3.8,4,6.2,5.5c-3.2,10.6-3.6,22.8-1.3,34.3v0c-2.2,0.1-4.5,0.8-6.5,2.3c3.5-9.6-5.8-13.7-12.5-7.4
		C385,237.6,385,237.3,385,237z"/>
	<path class="st1" d="M385,237.9c6.7-6.3,16-2.2,12.5,7.4c2-1.5,4.3-2.2,6.5-2.3c7-0.3,13.7,5.3,12.1,11.9c3-2.8,6.3-2.8,8.6-0.1
		c1.2,1.3,2.1,3.4,2.5,6c1.8,11.5-0.2,22.7-6.3,33.8c-4.5,8.6,3.4,15.8,8.1,7.1c2.7-5.3,4.8-9.9,5.4-15.6
		c-0.2,10.7-0.6,17.6-2.2,28.1c-1,8.3,6.6,8.6,8,3.4c1.5-4.2,2.6-13.6,2.4-17.7c4.5,9.1-0.2,20.6,5.3,25.9c1.7,1.6,4.4,1.6,5.9-0.3
		c2.5-3.2,1.4-13.8-0.8-18.6c3.6,6.6,5.1,16.8,10.4,15.4c2.2-0.6,3.6-2.6,3.7-4.9c0.5-9.6-12.1-17.3-14.6-27.9
		c2.6,2.2,4.2,4.1,7,5.3c1.2,0.5,2.5,0.5,3.6,0c1-0.5,1.5-1.2,1.5-2.3c9.4-1.4,14.7,8.4,9.8,15.3c4.5,1.5,6.9,4.1,7.4,6.6
		c0.6,3.3-2.3,6.6-8.5,7.5c9.2,9.1-3.6,22.1-12.8,13c10.7,10.3,0.2,21.2-10.5,10.9c3.6,11.1-8.5,17.3-14.7,9.7c-1.6-2-2.9-5-3.3-9.1
		c-2.4,10.2-12.3,7.9-9.9-2.3c-5.9,4.4-13.2,0.6-11-7.6c-8.8,5-16.6-0.6-14.4-9.7c-5.9,6.7-16.7,1.2-13.7-8.6
		c-6.6,7.4-18.5,2-17.1-7.9c-10.1,2-15.5-1.6-16-10.7c-8.1,2.8-14.4-5.2-12.8-11.7c0.4-1.4,1.1-2.7,2.3-3.9
		c-11.4-1.4-9.6-10.9-3.9-13.3c-5.8-3.6-1.9-11.6,4.7-10.7c-5.5-5.2,3.7-15.5,9.6-11.7c0.3,0.2,0.6,0.5,0.9,0.7
		c-0.3-0.3-0.6-0.5-0.9-0.7c-6.3-5.2-5.3-12.3-1.1-15.7h0c3.2-2.5,8.2-3.1,13.3,0.7c2.2-4.6,6.5-6.8,10.7-6.8
		c5.8-0.1,11.6,3.8,11.9,10.6C385,237.3,385,237.6,385,237.9z"/>
	<path class="st5" d="M354.6,188.3c0.5,1,1,2,1.5,3C355.5,190.4,355,189.4,354.6,188.3z"/>
	<path class="st0" d="M354.6,188.3c0.4,1.1,0.9,2.1,1.5,3C355.6,190.3,355.1,189.3,354.6,188.3z M373.1,226.5
		c-4.2,0-8.5,2.2-10.7,6.8c-5.2-3.7-10.1-3.2-13.3-0.7h0c-5.1,2.3-9.6,1.7-11.9,0c-1.4-1-1.6-3.1-0.4-4.3c3.6-3.9,12.1-6.8,20.3-9.3
		c-16.4,2.8-38.3,3.3-40.6-4.9c-0.7-10.3,13-10,25.6-8.8c-18.6-2-32.4-6.6-33.7-18c-0.5-4.1,3-7.5,7.1-6.9
		c7.2,1.1,15.2,4.4,23.8,8.9c-11.1-8-16.4-17.8-18.2-28.8c-0.5-3.1,2.6-5.5,5.5-4.3c11.6,5,20.4,17.3,28.1,32.1
		c-2.4-6.2-1.8-14.7,0.5-20.1c1.5-3.6,6.3-4.2,8.7-1.1c5.1,6.6,8.1,20.5,9.9,31.9c-0.5-9.7,0.4-18.4,4.9-24.4c2.3-3,6.8-2.6,8.5,0.8
		c4.7,9.5,1.8,23.7-5.4,40.6C378.6,219.1,375.6,222.8,373.1,226.5z"/>
	<path class="st5" d="M350.1,248.4c0.3,0.2,0.6,0.4,0.9,0.7C350.6,248.8,350.4,248.6,350.1,248.4z"/>
	<path class="st3" d="M326.2,385.1c1.6,6.6,1.8,13.6,0.4,20.9c-1.1,5.9-3.2,11.9-6.4,17.9c-2.1,4.1-4.7,8.2-7.8,12.3
		c-2.2,2.9-4.6,5.7-7.2,8.5l0,0c-22.8-25.9-19.3-52.2-2.6-89c5.7,3.2,10.4,7,14.2,11.3C321.3,372.3,324.5,378.4,326.2,385.1z"/>
	<path class="st2" d="M421.9,455.5c-12.2,4.1-24.7,13.6-33.7,25.7c-3,4-5.6,8.2-7.6,12.6c-1.7,3.6-3,7.2-4,11
		c-25.9-16.7-49.4-35-70.5-59c-0.3-0.4-0.7-0.8-1-1.1l0,0c2.6-2.8,5-5.6,7.2-8.5c3.1-4.1,5.7-8.2,7.8-12.3c3.1-6,5.3-12,6.4-17.9
		c1.4-7.3,1.3-14.3-0.4-20.9c-1.6-6.6-4.8-12.8-9.5-18.1c-3.7-4.3-8.5-8.1-14.2-11.3c8.7-19.2,21-41.3,35-67.8
		c-1.7,6.4,4.6,14.4,12.8,11.7c0.6,9.1,5.9,12.7,16,10.7c-1.4,9.9,10.4,15.3,17.1,7.9c-3.1,9.8,7.7,15.3,13.7,8.6
		c-2.2,9,5.6,14.7,14.4,9.7c-2.2,8.2,5.1,12,11,7.6c-2.4,10.2,7.5,12.6,9.9,2.3c0.4,4.1,1.6,7.1,3.3,9.1
		c-27.7,32.1-25.1,51.8-2.3,91.2c1.3,2.2,2.3,4.4,3.2,6.7C431.9,453.1,426.9,453.8,421.9,455.5z"/>
	<g>
		<g id="XMLID_1_">
			<g>
				<path class="st2" d="M547.5,259.2c1,10.4-2.4,21.1-10.4,29.1l-1.1,1.1c2.3-2.4,0.7-7.6-3.5-11.8c-4.2-4.2-9.5-5.8-11.9-3.4
					l1.2-1.2c3.5-3.5,4.8-8.4,4-13c0.7-2.9,5.1-5.4,10.5-5.6C542,254,546.8,256.1,547.5,259.2C547.5,259.1,547.5,259.2,547.5,259.2z
					"/>
				<path class="st2" d="M547.5,259.2C547.5,259.2,547.5,259.2,547.5,259.2C547.5,259.2,547.5,259.1,547.5,259.2
					C547.5,259.1,547.5,259.1,547.5,259.2z"/>
				<path class="st1" d="M547.5,259.1c-0.8-3-5.5-5.1-11.2-4.8c-5.4,0.3-9.8,2.7-10.5,5.6c-0.5-2.7-1.9-5.3-4-7.4
					c-1.4-1.4-2.9-2.4-4.6-3.1c-2-2.1-2.5-6.6-1-11.4c1.7-5.5,5.5-9.3,8.6-8.9h0c4.5,1.8,8.7,4.4,12.4,8.1
					C543.3,243.4,546.7,251.1,547.5,259.1z"/>
				<path class="st1" d="M532.6,277.6c4.2,4.2,5.7,9.5,3.5,11.8c0,0,0,0-0.1,0.1l-7,7c-4.2,4.2-11.1,4.2-15.3,0
					c-4.2-4.2-4.2-11.1,0-15.3l7-7C523,271.8,528.3,273.3,532.6,277.6z"/>
				<path class="st2" d="M524.8,229.2c-3.1-0.4-6.9,3.3-8.6,8.9c-1.5,4.8-1,9.4,1,11.4c-4.2-1.8-9.1-1.4-13.1,1
					c-3.1,0.3-6.8-3.5-8.5-9c-1.5-4.8-0.9-9.4,1.1-11.5C505.6,225.9,515.8,225.7,524.8,229.2z"/>
				<path class="st1" d="M495.7,241.4c1.7,5.5,5.4,9.3,8.5,9c-1,0.6-1.9,1.3-2.7,2.1l-7.4,7.4c-2.3,2.3-7.7,0.8-11.9-3.4
					c-4.2-4.2-5.8-9.6-3.4-11.9l7.4-7.4c3.1-3.2,6.7-5.6,10.6-7.3C494.8,232,494.2,236.6,495.7,241.4z"/>
				<path class="st2" d="M494.1,260l-15,15c-2.3,2.3-7.7,0.8-11.9-3.4c-4.2-4.2-5.8-9.6-3.4-11.9l15-15c-2.3,2.3-0.8,7.7,3.4,11.9
					C486.4,260.8,491.7,262.3,494.1,260z"/>
				<path class="st1" d="M479.1,275l-15.4,15.5c-1.4-5.4-5.2-13-10.9-19.7l11-11c-2.4,2.3-0.8,7.7,3.4,11.9
					C471.4,275.8,476.7,277.3,479.1,275z"/>
			</g>
			<g>
				<path class="st6" d="M452.8,270.7c5.6,6.8,9.5,14.4,10.9,19.7"/>
				<path class="st6" d="M524.8,229.2c-9-3.5-19.2-3.3-28,0.8c-3.8,1.7-7.4,4.2-10.6,7.3l-7.4,7.4l-15,15l-11,11"/>
				<path class="st6" d="M536,289.4l1.1-1.1c8-8,11.4-18.7,10.4-29.1c0,0,0,0,0,0c-0.8-8-4.3-15.8-10.4-21.9
					c-3.6-3.6-7.9-6.3-12.4-8.1"/>
				<path class="st6" d="M463.6,290.4l15.4-15.5l15-15l7.4-7.4c0.8-0.8,1.8-1.6,2.7-2.1c4-2.4,8.8-2.7,13.1-1
					c1.7,0.7,3.2,1.7,4.6,3.1c2.1,2.1,3.4,4.7,4,7.4c0.9,4.6-0.4,9.5-4,13l-1.2,1.2l-7,7c-4.2,4.2-4.2,11.1,0,15.3
					c4.2,4.2,11.1,4.2,15.3,0l7-7"/>
				<path class="st6" d="M479.1,275c-2.3,2.3-7.7,0.8-11.9-3.4c-4.2-4.2-5.8-9.6-3.4-11.9"/>
				<path class="st6" d="M494.1,260c-2.3,2.3-7.7,0.8-11.9-3.4c-4.2-4.2-5.8-9.6-3.4-11.9"/>
				<path class="st6" d="M496.8,229.9C496.8,229.9,496.8,229.9,496.8,229.9c-2,2.1-2.5,6.7-1.1,11.5c1.7,5.5,5.4,9.3,8.5,9"/>
				<path class="st6" d="M517.3,249.5c-2-2.1-2.5-6.6-1-11.4c1.7-5.5,5.5-9.3,8.6-8.9h0"/>
				<path class="st6" d="M525.8,260c0.7-2.9,5.1-5.4,10.5-5.6c5.7-0.3,10.4,1.8,11.2,4.8c0,0,0,0,0,0s0,0,0,0"/>
				<path class="st6" d="M520.7,274.1c2.3-2.3,7.7-0.8,11.9,3.4c4.2,4.2,5.7,9.5,3.5,11.8c0,0,0,0-0.1,0.1"/>
			</g>
		</g>
	</g>
</g>
<g id="shadows_7_">
	<path class="st7" d="M545,249c5,27.5-26.8,52.3-30.8,34.3c-0.4-1.7-5.7,6.7-2.2,7.4c0.9,6,3.8,8.1,7.6,8.4c1.6,0.3,3.2,0.2,4.9-0.2
		c0,0,0,0,0.1,0c0,0,0,0,0,0c2.3-0.6,4.7-1.9,7.3-4.2C547.7,279.5,551,260.2,545,249z"/>
	<path class="st8" d="M470.1,256.3c2.6,0.5,5.3-0.4,7.1-2.4c13.6-15.6,21.3-22,37.7-21.2c3.3,0.5,6.7,1.5,10.4,3.2
		c3.3,1.5,7.2,0.9,9.8-1.5v0c-12.7-8.6-26.2-10.4-40.6-2.8l-18.6,16.3l-9.3,7.7L470.1,256.3z"/>
	<path class="st9" d="M441.3,200.1c8.2,7.5,18.4,6,23.3-4.8l1.7,1.7c8.6,6.2,3.8,16.2-5.6,13.7l-5.4,5.8L441.3,200.1z"/>
	<path class="st9" d="M436.9,176.3c9.1,1.4,17.6,1.9,23.2-2.5l9.2,10.2c2.2,4.6,1.3,8.8-3.8,12.5
		C459.6,185.2,449.5,179.2,436.9,176.3z"/>
	<path class="st10" d="M464.8,291.1l11.6-15.9l19.7-0.6c8.8-0.6,9.7,12,0.8,12.6h-7.7l8.5,5.3l4.8,5.5l-0.5,5.5c0,0-4.6,0.5-5.1,0.4
		s-7.4-1.5-7.4-1.5l4,5.8c7.8,11.1-3.3,19-11.1,7.8l-2.9-5.8l-3.6-2.6l0.7-7l-4-6.7L464.8,291.1z"/>
	<path class="st11" d="M373.5,225.9c-5.6-11.4-13.7-19.5-22.7-26.4c-13.4,3.1-26.8,0.3-40.1-5.9c4.7,4.8,10.2,8.2,16.7,9.9
		c-13.7,1.2-14.8,15.6-1.1,16.6l21,0.8l-6.2,4.3l-4.2,3.2l-0.8,3.6l3.1,1.7l3.5,0.5l4.5,0c5.5-4.2,10.6-4.4,15.4-0.8
		C364.7,229.8,368.2,227.2,373.5,225.9z"/>
	<path class="st11" d="M331.4,298c-3.6,8.1,9.7,13.7,13,11.1c-0.5,6.8,6.2,13.7,14.3,10.9c1.5,11.5,9.8,15.6,18,12.1
		c0.4,7.6,8,11.9,14.1,8.4c2.8,8.7,10.6,11.2,15.6,8.3c-0.6,6.7,7.5,9.9,11.5,5.5c0.7,6.2,8.6,8.9,13.6,6l4.2-5l-3.4-8.6l-2,4.2
		l-4.3,1.3l-3.3-1.8l-0.4-5.1l-5.2,0.2l-4.8-2.4l-0.9-6.1l-7.6,1l-7.3-5.1l-0.5-5.3l-5.9,1.3l-3.6-1.3l-4.6-6.9h-9.2l-5.2-4.4
		l-1.1-6.3l-8,0.6l-5.2-3.2l-3.6-7.9L343,299l-5.3-6l-1-2.5L331.4,298z"/>
	<path class="st9" d="M293.9,427.6c0.8,1,1.7,1.9,2.7,2.9c21.8,23.4,45.8,41,72.2,56.9c28.3,17.7,53.8,0.4,60.4-23.5
		c2.4-8.6,2-17.5-0.7-25.9c0,0,0,0,0,0c0,0,0,0,0,0c1.5,2.8,3.1,5.7,4.9,8.7c6.4,11,8.2,24.2,4.5,36.4
		c-7.4,23.8-33.3,40.3-61.1,21.8c-25.9-16.7-49.4-35-70.5-59C300.7,439.8,296.6,433.8,293.9,427.6z"/>
	<g class="st12">
		<path class="st13" d="M450.2,343.9c10.2,1.8,6.3-10.5-0.9-17.2c4.9,0.1,7.2-2.9,7.1-9.2c6.6,6.6,10.5,6.6,10.9-2.2
			c-0.9-5.4-7.5-14.4-13.8-23.3c5,3,9.6,5,11.7,0c9.2,1.9,14,6.2,9.5,15.9c10.2,5.7,10.7,10.5-1.1,14.1c9.2,9.1-3.7,22.1-12.9,13
			C471.4,344.2,460.6,356.7,450.2,343.9z"/>
		<path class="st13" d="M421.6,304.7c-0.3,9.1,9.9,11.8,12.1-3.7c2.2-15.4-0.9-9.1-0.9-9.1S430.5,307.8,421.6,304.7z"/>
		<path class="st13" d="M434.4,321.1c2.9,7.1,13.1,10.6,10.2-12.7c-3.2-3.7-2.6,3.8-2.6,3.8S440,321.5,434.4,321.1z"/>
	</g>
	<path class="st10" d="M491.2,233.9c22.6-8.3,20-22.5-2-8c34-23.9,16.2-37.8-12,2c9.8-16.9-3.9-27.9-13.8,20.6l-0.2,9.2l20.8-20.6
		L491.2,233.9z"/>
	<path class="st11" d="M404,210.4c4.6,11.8,17.4,8.1,22.8,4.4l8.8,2l-4.7-11.5l-8.1,6.6l-9.4-0.7l-9.5-2.5V210.4z"/>
	<path class="st11" d="M459.7,227.9c-1.6-0.9-1.8-2.9-1.8-2.9c-9.3,3.6-23.9-7.1-23.9-7.1c2.5,7.3,7.7,10.9,12.8,12.2
		c-3.5,10.9-21.7,25.2-21.7,25.2s2.9,0.1,8.3,0.2c4.1-2.6,11.8-11.6,17.7-24.9C454.8,230.7,458,229.6,459.7,227.9z"/>
	<path class="st9" d="M454.7,170.9c7.2,2.6,25.3-37,36.1-14.4l1.1,18.8l-9.8-15c-11,7.4-12.6,25.5-12.6,25.5
		C464.1,174.1,454.7,170.9,454.7,170.9z"/>
	
		<ellipse transform="matrix(0.9528 -0.3037 0.3037 0.9528 -22.206 144.2318)" class="st14" cx="452.6" cy="143.5" rx="14.2" ry="5.1"/>
	<circle class="st14" cx="434.9" cy="150.4" r="2"/>
	
		<ellipse transform="matrix(0.9998 -1.774581e-02 1.774581e-02 0.9998 -3.0848 6.4205)" class="st15" cx="360.2" cy="177" rx="3.4" ry="8.9"/>
	
		<ellipse transform="matrix(0.8197 -0.5728 0.5728 0.8197 -38.9614 222.0317)" class="st15" cx="333.2" cy="172.9" rx="3.3" ry="13.5"/>
	
		<ellipse transform="matrix(0.2711 -0.9625 0.9625 0.2711 52.9991 451.6872)" class="st15" cx="324.8" cy="190.8" rx="3.8" ry="12.2"/>
	
		<ellipse transform="matrix(0.1494 -0.9888 0.9888 0.1494 139.2437 534.6479)" class="st15" cx="380.4" cy="186.4" rx="8" ry="2.5"/>
	<path class="st15" d="M436.7,265c15.6,8.9,22.6,20.1,25.3,30.8c8-20.4-27.4-41.2-32.4-39.3C432.6,260.1,436.7,265,436.7,265z"/>
	
		<ellipse transform="matrix(0.2299 -0.9732 0.9732 0.2299 48.5529 637.074)" class="st15" cx="426.8" cy="287.9" rx="9.3" ry="2.3"/>
	<ellipse class="st15" cx="436.5" cy="302.3" rx="2.3" ry="9.3"/>
	<path class="st7" d="M519.1,250.4c-0.6-1-1.3-2-2.2-2.8c-5.6-5.6-14.8-5.6-20.4,0l-35.7,35.7l2.8,7.2l37.9-37.9
		C506.3,247.8,513.5,247.1,519.1,250.4z"/>
</g>
<g id="lines_7_">
	<path class="st6" d="M406.9,199.1c-0.9-5-0.6-10.3,1.3-15.4c0.9-2.4,2-4.6,3.4-6.6"/>
	<path class="st6" d="M465.2,196.5c-0.2,2.4-0.8,4.9-1.6,7.3c-1.9,5.1-5,9.4-8.9,12.6"/>
	<path class="st6" d="M422.1,211.4c1.6,1.8,3.6,3.1,5.9,4s4.7,1,7.1,0.7"/>
	<path class="st6" d="M442,198.6c-1.4,3.8-5.6,5.8-9.5,4.4c-3.8-1.4-5.8-5.6-4.4-9.5"/>
	<path class="st6" d="M418.1,183.5c0.8-2.2,3.2-3.3,5.3-2.5c2.2,0.8,3.3,3.2,2.5,5.3"/>
	<path class="st6" d="M411.6,177l-0.9-0.3c-3.8-1.4-8.1,0.6-9.5,4.4c-1.4,3.8,0.6,8.1,4.4,9.5l0.9,0.3"/>
	<path class="st6" d="M465.2,196.5l0.9,0.3c3.8,1.4,5.8,5.6,4.4,9.5c-1.4,3.8-5.6,5.8-9.5,4.4l-0.9-0.3"/>
	<path class="st6" d="M432.5,203.1c-10.2,16.8-33.2,7.8-36.7-6.8c14.3,7.2,20.3-1.8,31.9,0"/>
	<path class="st6" d="M448.5,194.9c0.8-2.2,3.2-3.3,5.3-2.5c2.2,0.8,3.3,3.2,2.5,5.3"/>
	<path class="st6" d="M432.5,203.1c-2.9,19.4,20.5,27.2,32.6,18.3c-15.6-3.6-14.4-14.4-24.5-20.4"/>
	<path class="st6" d="M441.9,177.2c9.1,3.3,18.8,9.4,23.3,19.3c14.6-9.2-4.2-25-19.3-30.5c-15.1-5.5-39.7-5.4-34.4,11
		C421.4,172.3,432.8,173.9,441.9,177.2z"/>
	<path class="st6" d="M417.4,164.4c15.6-42.9,81.4-45.2,75.3,12.5c-3-6.1-6.7-11.5-11.3-16"/>
	<path class="st6" d="M484.3,159c-8.2,4.5-14.1,14.6-14.2,26.8"/>
	
		<ellipse transform="matrix(0.3415 -0.9399 0.9399 0.3415 150.3364 585.1795)" class="st6" cx="492.8" cy="185.3" rx="8.3" ry="8.3"/>
	<path class="st6" d="M405.4,208.7c-3.2,10.6-3.6,22.8-1.3,34.3"/>
	<path class="st6" d="M373.1,226.5c7.7-11,18.7-21.3,26.2-23.2"/>
	<line class="st6" x1="392.9" y1="226.7" x2="385" y2="237"/>
	<path class="st6" d="M449.6,224.8c-4.5,10.5-12.4,20.4-21.9,27.9c-0.6,0.5-1.3,1-1.9,1.5c-0.3,0.2-0.7,0.5-1,0.7
		c16.5,7.5,17.7,25.8,18.3,32"/>
	<path class="st6" d="M457.9,224.5c4.3,6.1,6.9,20.8,5.2,35.8"/>
	<line class="st6" x1="447.3" y1="249" x2="446.2" y2="264"/>
	<path class="st6" d="M465,292.5c9.3-1.3,14.6,8.4,9.7,15.3c10.3,3.4,9.9,12.5-1.1,14.1c9.2,9.1-3.6,22.1-12.8,13
		c10.7,10.3,0.2,21.2-10.5,10.9c4.5,14.1-16,20.2-18,0.6c-2.4,10.2-12.3,7.9-9.9-2.3c-5.9,4.4-13.2,0.6-11-7.6
		c-8.8,5-16.6-0.6-14.4-9.7c-5.9,6.7-16.7,1.2-13.7-8.6c-6.6,7.4-18.5,2-17.1-7.9c-10.1,2-15.5-1.6-16-10.7
		c-9.9,3.4-17.1-9.2-10.5-15.5c-11.3-1.4-9.6-10.9-3.9-13.3c-5.8-3.5-1.9-11.6,4.7-10.7c-5.5-5.2,3.7-15.4,9.6-11.7c0,0,0,0,0,0
		c0.3,0.2,0.6,0.5,0.9,0.7c-0.3-0.3-0.6-0.5-0.9-0.7c0,0,0,0,0,0"/>
	<path class="st6" d="M350.1,248.4c-11-9.1,0.2-23.8,12.3-15c5.3-11.2,22.8-7.9,22.7,4.6c6.7-6.3,16-2.2,12.5,7.4
		c8.5-6.1,20.7,0.9,18.6,9.6c11.5-2.3,16.4,7.6,11.8,18.5c-13.1,31-5.2,52.7,6.6,12.7c-7.3,37.6,6.9,48.2,8.2,13.8
		c1.8,34,15.7,34.4,9.2,5.7c8.1,26.8,25.3,18,0-15.1c27.2,27.4,4.8-37.6-28.4-35.2"/>
	<path class="st6" d="M337.5,287.9c-41.2,77.8-67.6,118.2-31.3,157.9c21.1,24,44.6,42.4,70.5,59c27.8,18.6,53.7,2,61.1-21.8
		c3.8-12.2,1.9-25.3-4.5-36.4c-22.8-39.4-25.4-59.1,2.3-91.2"/>
	<path class="st6" d="M302.5,355.6c32.2,18,33.5,56.2,2.6,89"/>
	<path class="st6" d="M436.5,453.4c-22.5-1.8-52.7,23-59.9,51.4"/>
	<line class="st6" x1="312.8" y1="370.3" x2="321.5" y2="362.6"/>
	<line class="st6" x1="320.1" y1="386.3" x2="331.1" y2="384.1"/>
	<line class="st6" x1="320.9" y1="405.1" x2="332" y2="406.7"/>
	<line class="st6" x1="315.8" y1="421" x2="325.2" y2="427.1"/>
	<line class="st6" x1="308.3" y1="432.8" x2="316.4" y2="439.5"/>
	<line class="st6" x1="374.3" y1="490.5" x2="384.8" y2="496"/>
	<line class="st6" x1="381.9" y1="476.3" x2="393.1" y2="485"/>
	<line class="st6" x1="398.1" y1="458.9" x2="407.2" y2="470"/>
	<line class="st6" x1="418.3" y1="448.8" x2="424.8" y2="461"/>
	<path class="st6" d="M350.7,231.6c-9.3,7.2-30.3-4.9,4-11.8c-45.3,7.1-50-16.9-12.7-14.4c-54-8.7-33.8-37.1-2.8-16
		c-43.9-42.1,1.5-42.9,16.3,1c-9.4-30.1,15.1-41.9,18,9.2c-1.5-48,35.5-25.5-0.4,27c-2.7-8-12.7-20.6-20.9-25.9"/>
	<line class="st6" x1="336.7" y1="332.5" x2="343" y2="338.8"/>
	<line class="st6" x1="336.7" y1="338.8" x2="343" y2="332.5"/>
	<line class="st6" x1="368.6" y1="414.7" x2="374.9" y2="421"/>
	<line class="st6" x1="368.6" y1="421" x2="374.9" y2="414.7"/>
	<line class="st6" x1="346.9" y1="458.2" x2="353.3" y2="464.5"/>
	<line class="st6" x1="346.9" y1="464.5" x2="353.3" y2="458.2"/>
	<line class="st6" x1="400.9" y1="429.6" x2="407.2" y2="436"/>
	<line class="st6" x1="400.9" y1="436" x2="407.2" y2="429.6"/>
	<line class="st6" x1="396.3" y1="367.2" x2="402.7" y2="373.5"/>
	<line class="st6" x1="396.3" y1="373.5" x2="402.7" y2="367.2"/>
	<line class="st6" x1="357.5" y1="372" x2="363.8" y2="378.3"/>
	<line class="st6" x1="357.5" y1="378.3" x2="363.8" y2="372"/>
	<line class="st16" x1="433.5" y1="235.6" x2="431.9" y2="238.7"/>
	<line class="st16" x1="412.9" y1="218" x2="412.4" y2="221.5"/>
	<line class="st16" x1="432.8" y1="223.8" x2="431.6" y2="226.7"/>
	<line class="st16" x1="422.9" y1="242" x2="421.4" y2="244.8"/>
	<line class="st16" x1="412.4" y1="235.3" x2="411.6" y2="238.4"/>
	<line class="st16" x1="421" y1="227.1" x2="420.2" y2="230.2"/>
	<path class="st6" d="M377.8,288.7c-3.9,0-7.1,3.2-7.1,7.1c0,3.9,3.2,7.1,7.1,7.1c1,0,1.9-0.2,2.8-0.6"/>
	<path class="st6" d="M380.6,302.3c0.1,3.8,3.2,6.8,7.1,6.8c2.8,0,5.2-1.6,6.4-4"/>
	<path class="st6" d="M372.5,264.6c-0.4-0.9-1.1-1.8-2-2.4c-2.8-2-6.6-1.4-8.7,1.3c-2,2.8-1.4,6.6,1.3,8.7c0.4,0.3,0.9,0.6,1.4,0.8"
		/>
	<path class="st6" d="M412.9,275.9c0.1-1,0-2.1-0.5-3.1c-1.4-3.1-5-4.6-8.2-3.2c-3.1,1.4-4.6,5-3.2,8.2"/>
	<path class="st6" d="M414.9,324.3c0.1,3.4,3,6.1,6.5,5.9c3.4-0.1,6.1-3,5.9-6.5"/>
	<path class="st6" d="M362.9,210.4c-4.3-4.5-2.2-13.2-2.2-13.2"/>
	<path class="st6" d="M368,217c-5.1-6.6-15.3-4.9-15.3-4.9"/>
	<path class="st6" d="M370.5,207.4c-1.8,3.5-2.1,9.9,1.3,16"/>
	<path class="st6" d="M463.6,250c8.6-47.8,23.4-39,13.6-22.1c28.2-39.8,45.9-25.9,12-2c17.1-11.3,22.5-5.1,13.4,2"/>
	<path class="st6" d="M434.4,276.8c2.7-2.4,3.2-9.1,0.2-14.4"/>
	<path class="st6" d="M449.6,280.7c-2.9-0.9-7.8-4.5-10.8-11.9"/>
	<path class="st6" d="M481.9,313.9c11.5,16.5,22.1,1.5,2.3-16.9c18.3,15.6,32.9,0.2,1-10.8c37,1.4,11.7-21.8-12.1-5.3l0,0"/>
	<g>
		<path class="st6" d="M463.6,290.4l37.9-37.9c5.6-5.6,14.8-5.6,20.4,0s5.6,14.8,0,20.4l-8.2,8.2c-4.2,4.2-4.2,11.1,0,15.3
			c4.2,4.2,11.1,4.2,15.3,0l8.2-8.2c14.1-14.1,14.1-36.9,0-51c-14.1-14.1-36.9-14.1-51,0l-33.4,33.4"/>
		<path class="st6" d="M479.1,275c-2.3,2.3-7.7,0.8-11.9-3.4s-5.7-9.5-3.4-11.9"/>
		<path class="st6" d="M494.1,260c-2.3,2.3-7.7,0.8-11.9-3.4s-5.7-9.5-3.4-11.9"/>
		<path class="st6" d="M496.8,229.9c-2,2.1-2.6,6.7-1.1,11.5c1.7,5.5,5.4,9.3,8.5,9"/>
		<path class="st6" d="M517.3,249.5c-2-2.1-2.5-6.6-1-11.4c1.7-5.5,5.4-9.3,8.6-8.9l0,0"/>
		<path class="st6" d="M525.8,260c0.7-2.9,5.1-5.4,10.5-5.6c5.7-0.3,10.5,1.8,11.2,4.9c0,0,0,0,0,0"/>
		<path class="st6" d="M520.7,274.2c2.3-2.3,7.7-0.8,11.9,3.4c4.2,4.2,5.7,9.5,3.4,11.9"/>
	</g>
</g>
</svg>
