<?xml version="1.0" encoding="utf-8"?>
<!-- Generator: Adobe Illustrator 21.0.0, SVG Export Plug-In . SVG Version: 6.00 Build 0)  -->
<svg version="1.1" id="main" xmlns="http://www.w3.org/2000/svg" xmlns:xlink="http://www.w3.org/1999/xlink" x="0px" y="0px"
	 viewBox="0 0 800 600" style="enable-background:new 0 0 800 600;" xml:space="preserve">
<style type="text/css">
	.st0{fill:#33C9FF;}
	.st1{fill:#339EFF;}
	.st2{fill:#FFB62E;}
	.st3{fill:#FFE880;}
	.st4{fill:#FF4D55;}
	.st5{fill:#FFBC63;}
	.st6{fill:#FFFFFF;}
	.st7{fill:#24B36B;}
	.st8{fill:#FF5A52;}
	.st9{fill:#3AE6AC;}
	.st10{opacity:0.35;}
	.st11{opacity:0.5;fill:#FFFFFF;}
	.st12{opacity:0.3;}
	.st13{opacity:0.2;}
	.st14{opacity:0.35;fill:#FFFFFF;}
	.st15{opacity:7.000000e-02;}
	.st16{opacity:5.000000e-02;}
	.st17{opacity:0.25;}
	.st18{opacity:0.3;fill:#FFFFFF;}
	.st19{fill:none;stroke:#0B3B6B;stroke-width:6;stroke-linecap:round;stroke-linejoin:round;stroke-miterlimit:10;}
	.st20{fill:none;stroke:#0B3B6B;stroke-width:3;stroke-linecap:round;stroke-linejoin:round;stroke-miterlimit:10;}
	.st21{opacity:0;}
	.st22{fill:none;stroke:#FFE880;stroke-width:3;stroke-linecap:round;stroke-linejoin:round;stroke-miterlimit:10;}
</style>
<g id="color">
	<g id="XMLID_1_">
		<g>
			<path class="st0" d="M534.3,459.5v-9.7h58c2.2,0,4,1.8,4,4v8c0,2.2-1.8,4-4,4h-4.1h-53.9V459.5z"/>
			<path class="st1" d="M560,212.3c0.3-0.9,0.5-1.8,0.7-2.6c0.5-2.2,0.6-4.5,0.4-6.9c6.5-2.9,17.3-14.2,23.5-20.2
				c4.1,7.3,5.3,16.1-0.9,25.8c12.5-3.4,17-0.8,21.5,4.4c0,0-27.2,27-61,27h-16C542.9,239.8,556.2,224.2,560,212.3z"/>
			<path class="st2" d="M592.3,469.8v56c0,2.2-1.8,4-4,4h-56v-62c1.1,0,2-0.9,2-2h53.9c-2.2,0-4,1.8-4,4c0,2.2,1.8,4,4,4
				C590.5,473.8,592.2,472,592.3,469.8L592.3,469.8z M553.2,514.8c0-2.2-1.8-4-4-4c-2.2,0-4,1.8-4,4s1.8,4,4,4
				C551.5,518.8,553.2,517,553.2,514.8z"/>
			<path class="st2" d="M592.3,465.8v4h-0.1c0-2.2-1.8-4-4-4H592.3z"/>
			<path class="st2" d="M592.3,413.8v36h-58c0-1.1-0.9-2-2-2v-38h30h26C590.5,409.8,592.3,411.6,592.3,413.8z M584.2,438.8
				c0-2.2-1.8-4-4-4c-2.2,0-4,1.8-4,4s1.8,4,4,4C582.5,442.8,584.2,441,584.2,438.8z"/>
			<circle class="st3" cx="588.2" cy="469.8" r="4"/>
			<circle class="st3" cx="580.2" cy="438.8" r="4"/>
			<path class="st4" d="M572.3,243.8v32c0,2.2-1.8,4-4,4h-6h-66v-40h5c0,0,0,0,0,0h26.8h16h24.2
				C570.5,239.8,572.3,241.6,572.3,243.8z M570.3,246.8c0-3.3-2.7-6-6-6s-6,2.7-6,6c0,3.3,2.7,6,6,6S570.3,250.1,570.3,246.8z
				 M540.3,271.8c0-3.3-2.7-6-6-6s-6,2.7-6,6s2.7,6,6,6S540.3,275.1,540.3,271.8z M510.3,246.8c0-3.3-2.7-6-6-6c-3.3,0-6,2.7-6,6
				c0,3.3,2.7,6,6,6C507.6,252.8,510.3,250.1,510.3,246.8z"/>
			<circle class="st5" cx="564.3" cy="246.8" r="6"/>
			<path class="st6" d="M562.3,291.5c0.6,1,1,2.1,1,3.3s-0.4,2.4-1,3.3V291.5z"/>
			<path class="st6" d="M562.3,341.5c0.6,1,1,2.1,1,3.3s-0.4,2.4-1,3.3V341.5z"/>
			<path class="st6" d="M562.3,391.5c0.6,1,1,2.1,1,3.3s-0.4,2.4-1,3.3V391.5z"/>
			<path class="st4" d="M562.3,398.1v11.7h-30c0-2.2-1.8-4-4-4h-8c-2.2,0-4,1.8-4,4h-24v-11.7c1.1,1.6,2.9,2.7,5,2.7
				c3.3,0,6-2.7,6-6s-2.7-6-6-6c-2.1,0-3.9,1.1-5,2.7v-43.4c1.1,1.6,2.9,2.7,5,2.7c3.3,0,6-2.7,6-6s-2.7-6-6-6c-2.1,0-3.9,1.1-5,2.7
				v-43.4c1.1,1.6,2.9,2.7,5,2.7c3.3,0,6-2.7,6-6s-2.7-6-6-6c-2.1,0-3.9,1.1-5,2.7v-11.7h4h66v11.7c-1.1-1.6-2.9-2.7-5-2.7
				c-3.3,0-6,2.7-6,6s2.7,6,6,6c2.1,0,3.9-1.1,5-2.7v43.4c-1.1-1.6-2.9-2.7-5-2.7c-3.3,0-6,2.7-6,6s2.7,6,6,6c2.1,0,3.9-1.1,5-2.7
				v43.4c-1.1-1.6-2.9-2.7-5-2.7c-3.3,0-6,2.7-6,6s2.7,6,6,6C559.4,400.8,561.3,399.7,562.3,398.1z M533.3,319.8c0-3.3-2.7-6-6-6
				s-6,2.7-6,6s2.7,6,6,6S533.3,323.1,533.3,319.8z M533.3,369.8c0-3.3-2.7-6-6-6s-6,2.7-6,6s2.7,6,6,6S533.3,373.1,533.3,369.8z"/>
			<path class="st5" d="M562.3,391.5v6.6c-1.1,1.6-2.9,2.7-5,2.7c-3.3,0-6-2.7-6-6s2.7-6,6-6C559.4,388.8,561.3,389.9,562.3,391.5z"
				/>
			<path class="st5" d="M562.3,341.5v6.6c-1.1,1.6-2.9,2.7-5,2.7c-3.3,0-6-2.7-6-6s2.7-6,6-6C559.4,338.8,561.3,339.9,562.3,341.5z"
				/>
			<path class="st5" d="M562.3,291.5v6.6c-1.1,1.6-2.9,2.7-5,2.7c-3.3,0-6-2.7-6-6s2.7-6,6-6C559.4,288.8,561.3,289.9,562.3,291.5z"
				/>
			<path class="st1" d="M496.3,239.8c-3.6-8.2-7.6-12.8-11.5-15.1c8.2-52,51.3-60.1,60.7-51.8c7.8,6.8,14.7,19,15.5,29.9
				c0.2,2.4,0.1,4.7-0.4,6.9c-0.2,0.8-0.4,1.7-0.7,2.6c-3.8,12-17.1,27.5-31.8,27.5h-26.8c0,0,0,0,0,0H496.3z M500.4,225.5
				c28.5-16.7,45.5-44.7,36.9-45.5c-20.2-2-39.3,20.5-45.7,50.1C494.7,228.8,497.6,227.2,500.4,225.5z"/>
			<circle class="st3" cx="549.2" cy="514.8" r="4"/>
			<circle class="st5" cx="534.3" cy="271.8" r="6"/>
			<path class="st1" d="M500.4,225.5c-2.8,1.7-5.8,3.2-8.8,4.6c6.3-29.6,25.5-52.1,45.7-50.1C546,180.9,529,208.9,500.4,225.5z"/>
			<path class="st0" d="M534.3,459.5v6.3c0,1.1-0.9,2-2,2h-16c-1.1,0-2-0.9-2-2v-9.3v-6.7c0-1.1,0.9-2,2-2h16c1.1,0,2,0.9,2,2V459.5
				z"/>
			<polygon class="st0" points="525.8,529.8 516.3,529.8 516.3,467.8 532.3,467.8 532.3,529.8 			"/>
			<path class="st0" d="M532.3,409.8v38h-16v-38c0-2.2,1.8-4,4-4h8C530.5,405.8,532.3,407.6,532.3,409.8z"/>
			<circle class="st5" cx="527.3" cy="319.8" r="6"/>
			<circle class="st5" cx="527.3" cy="369.8" r="6"/>
			<path class="st2" d="M516.3,467.8v62h-9.5c0.9-0.7,1.4-1.8,1.4-3c0-2.2-1.8-4-4-4c-2.2,0-4,1.8-4,4c0,1.2,0.5,2.3,1.4,3H352.3
				c-2.2,0-4-1.8-4-4v-60h85.4c-2,0.3-3.5,1.9-3.5,4c0,2.2,1.8,4,4,4c2.2,0,4-1.8,4-4c0-2-1.5-3.7-3.5-4h79.6
				C514.3,466.9,515.2,467.8,516.3,467.8z M498.2,480.8c0-2.2-1.8-4-4-4c-2.2,0-4,1.8-4,4s1.8,4,4,4
				C496.5,484.8,498.2,483,498.2,480.8z M416.2,506.8c0-2.2-1.8-4-4-4c-2.2,0-4,1.8-4,4s1.8,4,4,4
				C414.5,510.8,416.2,509,416.2,506.8z M373.2,514.8c0-2.2-1.8-4-4-4c-2.2,0-4,1.8-4,4s1.8,4,4,4
				C371.5,518.8,373.2,517,373.2,514.8z"/>
			<path class="st2" d="M516.3,409.8v38c-1.1,0-2,0.9-2,2h-166v-6v-30c0-2.2,1.8-4,4-4h30h70h40H516.3z M500.2,437c0-2.2-1.8-4-4-4
				c-2.2,0-4,1.8-4,4c0,2.2,1.8,4,4,4C498.5,441,500.2,439.2,500.2,437z M380.2,422.8c0-2.2-1.8-4-4-4c-2.2,0-4,1.8-4,4s1.8,4,4,4
				C378.5,426.8,380.2,425,380.2,422.8z"/>
			<path class="st0" d="M514.3,456.5v9.3h-79.6c-0.2,0-0.4,0-0.5,0c-0.2,0-0.4,0-0.5,0h-85.4c-0.6,0-1.1-0.1-1.6-0.4
				c-1.4-0.6-2.4-2-2.4-3.6v-8c0-2.2,1.8-4,4-4h166V456.5z"/>
			<circle class="st5" cx="504.3" cy="246.8" r="6"/>
			<path class="st3" d="M504.2,522.8c2.2,0,4,1.8,4,4c0,1.2-0.5,2.3-1.4,3h-5.2c-0.9-0.7-1.4-1.8-1.4-3
				C500.2,524.5,502,522.8,504.2,522.8z"/>
			<path class="st6" d="M501.6,529.8h5.2c-0.7,0.6-1.6,1-2.6,1C503.2,530.8,502.3,530.4,501.6,529.8z"/>
			<path class="st5" d="M497.3,288.8c3.3,0,6,2.7,6,6s-2.7,6-6,6c-2.1,0-3.9-1.1-5-2.7v-6.6C493.4,289.9,495.2,288.8,497.3,288.8z"
				/>
			<path class="st5" d="M497.3,338.8c3.3,0,6,2.7,6,6s-2.7,6-6,6c-2.1,0-3.9-1.1-5-2.7v-6.6C493.4,339.9,495.2,338.8,497.3,338.8z"
				/>
			<path class="st5" d="M497.3,388.8c3.3,0,6,2.7,6,6s-2.7,6-6,6c-2.1,0-3.9-1.1-5-2.7v-6.6C493.4,389.9,495.2,388.8,497.3,388.8z"
				/>
			<circle class="st3" cx="496.2" cy="437" r="4"/>
			<circle class="st3" cx="494.2" cy="480.8" r="4"/>
			<polygon class="st1" points="496.3,239.8 496.3,279.8 492.3,279.8 452.3,279.8 448.3,279.8 448.3,239.8 			"/>
			<path class="st1" d="M467.6,227.2c2.8-3,9.8-6.9,17.2-2.6c3.9,2.3,8,6.9,11.5,15.1h-48c0-3.4,1.8-7,4.7-9.6
				c1.9-1.8,4.4-3.1,7.1-3.6C462.5,226.1,465,226.3,467.6,227.2z"/>
			<path class="st1" d="M492.3,398.1v11.7h-40v-11.7c0.6-0.9,1-2.1,1-3.3s-0.4-2.4-1-3.3v-43.4c0.6-0.9,1-2.1,1-3.3s-0.4-2.4-1-3.3
				v-43.4c0.6-0.9,1-2.1,1-3.3s-0.4-2.4-1-3.3v-11.7h40v11.7c-0.6,1-1,2.1-1,3.3s0.4,2.4,1,3.3v43.4c-0.6,1-1,2.1-1,3.3
				s0.4,2.4,1,3.3v43.4c-0.6,1-1,2.1-1,3.3S491.7,397.1,492.3,398.1z"/>
			<path class="st6" d="M492.3,391.5v6.6c-0.6-0.9-1-2.1-1-3.3S491.7,392.4,492.3,391.5z"/>
			<path class="st6" d="M492.3,341.5v6.6c-0.6-0.9-1-2.1-1-3.3S491.7,342.4,492.3,341.5z"/>
			<path class="st6" d="M492.3,291.5v6.6c-0.6-0.9-1-2.1-1-3.3S491.7,292.4,492.3,291.5z"/>
			<path class="st1" d="M448.3,239.8h-4.9c0,0-0.1,0-0.1,0h-26.8c-15.8,0-30-18-32.5-30.1c-0.5-2.2-0.6-4.5-0.4-6.9
				c0.9-10.9,7.8-23.1,15.5-29.9c9.5-8.3,53.5,0,61,53.7c-2.8,0.5-5.2,1.8-7.1,3.6c-6.3-29.6-25.5-52.1-45.7-50.1
				c-8.7,0.9,8.4,28.9,36.9,45.5c2.8,1.7,5.8,3.2,8.8,4.6C450.1,232.8,448.3,236.4,448.3,239.8z"/>
			<path class="st6" d="M452.3,291.5c0.6,1,1,2.1,1,3.3s-0.4,2.4-1,3.3V291.5z"/>
			<path class="st6" d="M452.3,341.5c0.6,1,1,2.1,1,3.3s-0.4,2.4-1,3.3V341.5z"/>
			<path class="st6" d="M452.3,391.5c0.6,1,1,2.1,1,3.3s-0.4,2.4-1,3.3V391.5z"/>
			<path class="st4" d="M452.3,398.1v11.7h-70v-11.7c1.1,1.6,2.9,2.7,5,2.7c3.3,0,6-2.7,6-6s-2.7-6-6-6c-2.1,0-3.9,1.1-5,2.7v-25.7
				v-17.7c1.1,1.6,2.9,2.7,5,2.7c3.3,0,6-2.7,6-6s-2.7-6-6-6c-2.1,0-3.9,1.1-5,2.7v-7.7v-35.7c1.1,1.6,2.9,2.7,5,2.7
				c3.3,0,6-2.7,6-6s-2.7-6-6-6c-2.1,0-3.9,1.1-5,2.7v-11.7h66h4v11.7c-1.1-1.6-2.9-2.7-5-2.7c-3.3,0-6,2.7-6,6s2.7,6,6,6
				c2.1,0,3.9-1.1,5-2.7v43.4c-1.1-1.6-2.9-2.7-5-2.7c-3.3,0-6,2.7-6,6s2.7,6,6,6c2.1,0,3.9-1.1,5-2.7v43.4c-1.1-1.6-2.9-2.7-5-2.7
				c-3.3,0-6,2.7-6,6s2.7,6,6,6C449.4,400.8,451.3,399.7,452.3,398.1z M423.3,319.8c0-3.3-2.7-6-6-6c-3.3,0-6,2.7-6,6s2.7,6,6,6
				C420.6,325.8,423.3,323.1,423.3,319.8z M423.3,369.8c0-3.3-2.7-6-6-6c-3.3,0-6,2.7-6,6s2.7,6,6,6
				C420.6,375.8,423.3,373.1,423.3,369.8z"/>
			<path class="st5" d="M452.3,391.5v6.6c-1.1,1.6-2.9,2.7-5,2.7c-3.3,0-6-2.7-6-6s2.7-6,6-6C449.4,388.8,451.3,389.9,452.3,391.5z"
				/>
			<path class="st5" d="M452.3,341.5v6.6c-1.1,1.6-2.9,2.7-5,2.7c-3.3,0-6-2.7-6-6s2.7-6,6-6C449.4,338.8,451.3,339.9,452.3,341.5z"
				/>
			<path class="st5" d="M452.3,291.5v6.6c-1.1,1.6-2.9,2.7-5,2.7c-3.3,0-6-2.7-6-6s2.7-6,6-6C449.4,288.8,451.3,289.9,452.3,291.5z"
				/>
			<path class="st4" d="M448.3,239.8v40h-66h-6c-2.2,0-4-1.8-4-4v-32c0-2.2,1.8-4,4-4h24.2h16h26.8c0,0,0.1,0,0.1,0H448.3z
				 M446.3,271.8c0-3.3-2.7-6-6-6c-3.3,0-6,2.7-6,6s2.7,6,6,6C443.6,277.8,446.3,275.1,446.3,271.8z M416.3,246.8c0-3.3-2.7-6-6-6
				c-3.3,0-6,2.7-6,6c0,3.3,2.7,6,6,6C413.6,252.8,416.3,250.1,416.3,246.8z M386.3,271.8c0-3.3-2.7-6-6-6c-3.3,0-6,2.7-6,6
				s2.7,6,6,6C383.6,277.8,386.3,275.1,386.3,271.8z"/>
			<path class="st1" d="M444.2,225.5c-28.5-16.7-45.5-44.7-36.9-45.5c20.1-2,39.3,20.5,45.7,50.1C450,228.8,447,227.2,444.2,225.5z"
				/>
			<circle class="st5" cx="440.3" cy="271.8" r="6"/>
			<path class="st3" d="M434.8,465.8c2,0.3,3.5,1.9,3.5,4c0,2.2-1.8,4-4,4c-2.2,0-4-1.8-4-4c0-2,1.5-3.7,3.5-4H434.8z"/>
			<path class="st6" d="M434.8,465.8h-1.1c0.2,0,0.4,0,0.5,0C434.4,465.8,434.6,465.8,434.8,465.8z"/>
			<circle class="st5" cx="417.3" cy="319.8" r="6"/>
			<circle class="st5" cx="417.3" cy="369.8" r="6"/>
			<path class="st1" d="M416.5,239.8h-16c-33.8,0-61-27-61-27c4.5-5.2,9-7.8,21.5-4.4c-6.2-9.7-5-18.5-0.9-25.8
				c6.2,6,17,17.3,23.5,20.2c-0.2,2.4-0.1,4.7,0.4,6.9C386.5,221.8,400.7,239.8,416.5,239.8z"/>
			<circle class="st3" cx="412.2" cy="506.8" r="4"/>
			<circle class="st5" cx="410.3" cy="246.8" r="6"/>
			<path class="st5" d="M387.3,288.8c3.3,0,6,2.7,6,6s-2.7,6-6,6c-2.1,0-3.9-1.1-5-2.7v-6.6C383.4,289.9,385.2,288.8,387.3,288.8z"
				/>
			<path class="st5" d="M387.3,338.8c3.3,0,6,2.7,6,6s-2.7,6-6,6c-2.1,0-3.9-1.1-5-2.7v-6.6C383.4,339.9,385.2,338.8,387.3,338.8z"
				/>
			<path class="st5" d="M387.3,388.8c3.3,0,6,2.7,6,6s-2.7,6-6,6c-2.1,0-3.9-1.1-5-2.7v-6.6C383.4,389.9,385.2,388.8,387.3,388.8z"
				/>
			<circle class="st5" cx="380.3" cy="271.8" r="6"/>
			<path class="st7" d="M382.3,398.1v11.7h-30c-2.2,0-4,1.8-4,4v30l-30,30v-60l48-48h16v25.7c-0.6,1-1,2.1-1,3.3
				S381.7,397.1,382.3,398.1z"/>
			<path class="st6" d="M382.3,391.5v6.6c-0.6-0.9-1-2.1-1-3.3S381.7,392.4,382.3,391.5z"/>
			<path class="st7" d="M382.3,348.1v17.7h-16h-20h-24v-32h11.5h48.5v7.7c-0.6,1-1,2.1-1,3.3S381.7,347.1,382.3,348.1z"/>
			<path class="st6" d="M382.3,341.5v6.6c-0.6-0.9-1-2.1-1-3.3S381.7,342.4,382.3,341.5z"/>
			<path class="st6" d="M382.3,291.5v6.6c-0.6-0.9-1-2.1-1-3.3S381.7,292.4,382.3,291.5z"/>
			<circle class="st3" cx="376.2" cy="422.8" r="4"/>
			<circle class="st3" cx="369.2" cy="514.8" r="4"/>
			<path class="st8" d="M369.1,313.9c0.8,3.5,0.9,6.9-0.6,9.1c-4,6-14.8,10.8-34.7,10.8h-11.5h-4c2.1-3.7,1.7-7.8-0.1-11.1
				c10.2-8.1,20.8-16.5,29.4-20.8c5.7-2.9,10.5-4,13.6-2.2C363.8,301,367.6,307.7,369.1,313.9z"/>
			<polygon class="st9" points="366.3,365.8 318.3,413.8 318.3,393.8 346.3,365.8 			"/>
			<path class="st8" d="M357.3,279.8c1.6,1.6-0.9,8.4-9.7,22l0,0.1c-8.6,4.3-19.3,12.7-29.4,20.8c0-0.1-0.1-0.1-0.1-0.2
				C333.9,295.5,354.1,276.5,357.3,279.8L357.3,279.8z"/>
			<path class="st8" d="M343.4,264.3c6.3,5,12.2,11.8,14,15.5c-3.2-3.3-23.5,15.7-39.2,42.7c-2-3.5-5.5-6.2-9.2-6.5
				c0.1-7-0.5-14.5-1.7-21.9c6.2-19.1,16.2-36.1,23.1-36.1c2.4,0,5.4,1.2,8.4,3.1C340.2,262,341.8,263.1,343.4,264.3z"/>
			<path class="st7" d="M352.3,529.8h-34v-36l28.4-28.4c0.5,0.2,1.1,0.4,1.6,0.4v60C348.3,528,350.1,529.8,352.3,529.8z"/>
			<path class="st9" d="M348.3,443.8v6c-2.2,0-4,1.8-4,4v8c0,1.6,1,3,2.4,3.6l-28.4,28.4v-20L348.3,443.8z"/>
			<polygon class="st7" points="346.3,365.8 318.3,393.8 318.3,365.8 322.3,365.8 			"/>
			<polygon class="st8" points="322.3,333.8 322.3,365.8 318.3,365.8 286.3,365.8 282.3,365.8 282.3,333.8 284.4,333.8 318.3,333.8 
							"/>
			<path class="st8" d="M303.6,317.4c1.7-1.1,3.5-1.5,5.3-1.4c3.7,0.3,7.3,2.9,9.2,6.5c0,0.1,0.1,0.1,0.1,0.2
				c1.8,3.3,2.2,7.5,0.1,11.1h-33.9c-2.3-6.7-1.1-12.1,1.9-15.5c2.9-3.1,7.5-4.4,12.4-3.1v0C300.3,315.7,302,316.4,303.6,317.4z"/>
			<polygon class="st8" points="318.3,493.8 318.3,529.8 286.3,529.8 286.3,505.8 286.3,445.8 286.3,425.8 286.3,365.8 318.3,365.8 
				318.3,393.8 318.3,413.8 318.3,473.8 			"/>
			<path class="st8" d="M298.7,315.3c-4.9-1.3-9.5-0.1-12.4,3.1c-9.7-31.3-25.1-51.7-28-47.8c5-9.4,23.9-19.2,30.7-18.2
				c7.3,1.1,14.9,20.7,18.2,41.8c1.2,7.4,1.8,14.9,1.7,21.9c-1.8-0.1-3.6,0.3-5.3,1.4C302,316.4,300.3,315.7,298.7,315.3
				L298.7,315.3z"/>
			<polygon class="st9" points="286.3,505.8 286.3,529.8 262.3,529.8 			"/>
			<polygon class="st7" points="286.3,445.8 286.3,505.8 262.3,529.8 206.3,529.8 206.3,525.8 			"/>
			<polygon class="st9" points="286.3,425.8 286.3,445.8 206.3,525.8 206.3,505.8 			"/>
			<polygon class="st7" points="286.3,365.8 286.3,425.8 206.3,505.8 206.3,445.8 			"/>
			<polygon class="st9" points="286.3,365.8 206.3,445.8 206.3,425.8 266.3,365.8 282.3,365.8 			"/>
			<path class="st8" d="M237.2,288.9c1.9-1.6,4-2.9,6.1-3.6c5.2-1.8,13.6,3.1,22.4,10.9c7,6.2,14.3,14.1,20.6,22.1
				c-3.1,3.3-4.3,8.7-1.9,15.5h-2.1h-11c-27,0-43-17.3-44.5-24.3C225.7,304.1,230.6,294.5,237.2,288.9z"/>
			<path class="st7" d="M282.3,333.8v32h-16h-60h-10c-2.2,0-4-1.8-4-4v-24c0-2.2,1.8-4,4-4h13.3h61.7H282.3z"/>
			<polygon class="st7" points="266.3,365.8 206.3,425.8 206.3,365.8 			"/>
			<path class="st8" d="M258.3,270.5L258.3,270.5c2.9-3.9,18.3,16.5,28,47.8c-6.3-7.9-13.6-15.9-20.6-22.1
				C258.6,280.5,256.9,272.5,258.3,270.5z"/>
		</g>
		<g>
		</g>
	</g>
</g>
<g id="shadows">
	<path class="st10" d="M282.3,309.7c-4.1-23.4-22.4-39.5-22.4-39.5C257.2,289.6,271.9,303.1,282.3,309.7z"/>
	<path class="st10" d="M324.5,314.6c9.2-21.9,30.7-33.5,30.7-33.5C353.5,300.7,336.1,310.6,324.5,314.6z"/>
	<g class="st10">
		<ellipse transform="matrix(0.4768 -0.879 0.879 0.4768 -124.4123 439.0703)" class="st6" cx="306.6" cy="324" rx="4.5" ry="2.5"/>
		
			<ellipse transform="matrix(0.7235 -0.6903 0.6903 0.7235 -141.9724 290.7047)" class="st6" cx="291.9" cy="322.6" rx="4.4" ry="2.4"/>
		<path class="st6" d="M227.1,310.3c10.7,5.7,31.6-13.8,18.8-25.3c10.9,2.8,30.1,24,30.1,24c-14.5-11.1-31.7,18.2-12.4,24
			C243.8,328.6,227.1,310.3,227.1,310.3z"/>
		<path class="st6" d="M269.2,278.9c-7-14.9,29.6,2.6,24.1-21.8c8.2,10,10.9,32.8,10.9,32.8c-8.1-13.4-17.8,23.2-27.4,1
			C272.4,285.2,269.2,278.9,269.2,278.9z"/>
		<path class="st6" d="M309.8,289.9c-1.5,18.3,28.1-1.1,18.8,14.7c13.6-18.6,11.2-13.7,11.2-13.7c6.3-13.7-21.3-8.8-17.2-25.5
			C309,275.9,309.8,289.9,309.8,289.9z"/>
		<path class="st6" d="M329.5,313.9c6.4,0.1,15.7,21.4-0.6,19.9c16.7,0,35.4-6.6,35.4-6.6c-13.8,5.2-17.6-16.7-9.1-27.8
			C344.7,301,329.5,313.9,329.5,313.9z"/>
	</g>
	<path class="st11" d="M199.5,366.8v-21.1c0-2.6,2.1-4.7,4.7-4.7h79.2v-7.1h-89.5v32.9H199.5z"/>
	<rect x="321.9" y="333.9" class="st11" width="61.1" height="7.1"/>
	<rect x="206.3" y="365.8" class="st12" width="81" height="10"/>
	<rect x="318.1" y="365.8" class="st12" width="64.9" height="10"/>
	<rect x="287.3" y="367.3" class="st13" width="31" height="6"/>
	<rect x="285.8" y="373.3" class="st14" width="7.1" height="157.5"/>
	<path class="st15" d="M285.8,509.3v21.5h-79.5v-34.2C206.3,507.8,243.8,513.5,285.8,509.3z"/>
	<path class="st15" d="M349.4,494.2v36.5h-31.3V504C329,501.5,339.6,498.3,349.4,494.2z"/>
	<path class="st14" d="M300,428.5L300,428.5c-1.6,0-2.9-1.3-2.9-2.9v-29.5c0-1.6,1.3-2.9,2.9-2.9l0,0c1.6,0,2.9,1.3,2.9,2.9v29.5
		C302.8,427.2,301.5,428.5,300,428.5z"/>
	<path class="st14" d="M308.8,471.4L308.8,471.4c-1.6,0-2.9-1.3-2.9-2.9V459c0-1.6,1.3-2.9,2.9-2.9l0,0c1.6,0,2.9,1.3,2.9,2.9v9.5
		C311.7,470.1,310.4,471.4,308.8,471.4z"/>
	<path class="st14" d="M300,438L300,438c-1.6,0-2.9-1.3-2.9-2.9l0,0c0-1.6,1.3-2.9,2.9-2.9l0,0c1.6,0,2.9,1.3,2.9,2.9l0,0
		C302.8,436.7,301.5,438,300,438z"/>
	<path class="st14" d="M321.9,333.9h-38.6l-1,30.9l6.5-1v-20.6c0-1.6,1.3-2.9,2.9-2.9h0.9v6.8c0,1.6,1.2,3,2.7,3
		c1.7,0.1,3-1.2,3-2.9v-2.7c0-2.4,1.9-4.3,4.3-4.3h19.2V333.9z"/>
	<path class="st14" d="M356.2,447.8v-26.5c0-2.5,2-4.6,4.6-4.6h155.5v-5.9H349.4v39L356.2,447.8z"/>
	<rect x="348.3" y="463.8" class="st14" width="8.2" height="64"/>
	<g>
		<g>
			<path class="st3" d="M386.2,438.8c1.9,0,1.9-3,0-3C384.3,435.8,384.3,438.8,386.2,438.8L386.2,438.8z"/>
		</g>
	</g>
	<rect x="532.2" y="409.8" class="st14" width="59" height="7"/>
	<path class="st16" d="M516.3,511v19H349.4l-1.1-22.9C350.1,520.1,445.4,524.5,516.3,511z"/>
	<path class="st16" d="M592.3,465.8c0,30.7,0,64.2,0,64.2h-58v-22.9C567.8,498.6,592.3,485.2,592.3,465.8z"/>
	<rect x="346.3" y="448.8" class="st11" width="168" height="6.2"/>
	<rect x="534.3" y="448.8" class="st11" width="61" height="6.2"/>
	<path class="st11" d="M521.6,445.8v-31.7c0-1.6,1.3-2.9,2.9-2.9h8.2l-2-4.5l-13.4,1.3v39L521.6,445.8z"/>
	<rect x="516.3" y="467.8" class="st11" width="5.2" height="63"/>
	<path class="st11" d="M519.8,465.4v-11c0-1.1,0.9-2.1,2.1-2.1h12.5l-2-3.9l-19.2-1l1.3,19.1L519.8,465.4z"/>
	<rect x="382.3" y="280.8" class="st17" width="70.7" height="9"/>
	<rect x="493" y="280.8" class="st17" width="70.7" height="9"/>
	<rect x="453" y="278.8" class="st13" width="39.7" height="9"/>
	<path class="st16" d="M453.3,392.8v17H383l-1.7-19.5l1-5.2C382.3,393.7,415.4,396.9,453.3,392.8z"/>
	<path class="st16" d="M564.3,332.9c0,48.1,0,76.9,0,76.9h-31.7l-2-3.1l-13.4,1.3l-9.7,1.8h-15.3v-23.6
		C539.6,378.1,564.3,359.7,564.3,332.9z"/>
	<path class="st14" d="M379.6,280.4v-28.7c0-2.5,2-4.5,4.5-4.5H448v-6.4h-73.6v38L379.6,280.4z"/>
	<path class="st14" d="M498.2,247.2H572v-6.4h-75.6C496.3,240.8,495.7,247.2,498.2,247.2z"/>
	<g class="st12">
		<polygon class="st6" points="459.2,287.8 459.2,409.8 452,409.8 452,286.8 453,286.8 453,287.8 		"/>
		<path class="st6" d="M471,344.8L471,344.8c-1.7,0-3-1.3-3-3V303c0-1.7,1.3-3,3-3l0,0c1.7,0,3,1.3,3,3v38.8
			C474,343.4,472.7,344.8,471,344.8z"/>
		<path class="st6" d="M483,384.8L483,384.8c-1.7,0-3-1.3-3-3V353c0-1.7,1.3-3,3-3l0,0c1.7,0,3,1.3,3,3v28.8
			C486,383.4,484.7,384.8,483,384.8z"/>
		<path class="st6" d="M496,239h-9h-6h-29v0.8h-4v40h7.2v-30c0-2,1.6-3.6,3.6-3.6h20.1c1.2,0,2.2,1,2.2,2.2v5.3
			c0,1.6,1.2,3.1,2.8,3.2c1.7,0.1,3.2-1.3,3.2-3v-5.4c0-1.2,1-2.2,2.2-2.2h6.8V239z"/>
	</g>
	
		<ellipse transform="matrix(0.8901 -0.4557 0.4557 0.8901 -55.4347 235.2347)" class="st18" cx="460.1" cy="232.6" rx="4.4" ry="2.1"/>
	<path class="st18" d="M474.5,230.1c4.8-2.5,12.3-1.8,18.6,3.4c-13.7-16.7-24.2-6.5-24.2-6.5L474.5,230.1z"/>
	<path class="st17" d="M451.2,226.3c-5-39.5-32.9-44.5-39-45.2c-6.7-1.7-6.7,0-6.7,0l4.6,14.3l21.1,21.1l16.8,11.1L451.2,226.3z"/>
	<path class="st17" d="M495.4,226.3c5-39.5,32.9-44.5,39-45.2c6.7-1.7,6.7,0,6.7,0l-4.6,14.3l-21.1,21.1l-16.8,11.1L495.4,226.3z"/>
	<path class="st18" d="M407.4,237.9c-12.2-8.7,4.7-30.4,24.5-18.4c-21.5-21.2-23.9-26.8-29.3-34.1c6.6,21.9-21.3-0.4-18,22.6
		C386.9,224.5,407.4,237.9,407.4,237.9z"/>
	<path class="st18" d="M345.9,217.9c-0.1-4.1,11.6-4.1,18.9-3c2.1,0.3,3.8-1.8,3-3.8c-1.6-4.1-2.4-7.1-2.7-9.4
		c-0.3-2.4,2.5-4.1,4.4-2.5c5,4.1,10.8,7.2,14.1,7.7c-0.3-3.3-1.9-4-1.9-4l-22.6-21.5c0,0-8,5.3,1.2,24.1c-8-1.2-19.2-0.7-21.8,6.1
		C341.2,214.1,345.9,217.9,345.9,217.9z"/>
	<path class="st18" d="M537.8,237.9c12.2-8.7-4.7-30.4-24.5-18.4c21.5-21.2,23.9-26.8,29.3-34.1c-6.6,21.9,21.3-0.4,18,22.6
		C558.3,224.5,537.8,237.9,537.8,237.9z"/>
	<path class="st18" d="M563.1,207.4c5.6-2.7,11.9-7.4,15.9-11c1.3-1.2,3.4-0.2,3.3,1.6c-0.2,5.4-1.3,10.7-1.3,10.7s13.5-10,4-25.1
		c-12.3,8.1-22,19-22,19V207.4z"/>
	<path class="st18" d="M582.6,211.2c6.1,2.8,11-1.4,18.7,5C611,205,587.6,205,582.6,211.2z"/>
</g>
<g id="lines">
	<line class="st19" x1="632.3" y1="529.8" x2="134.3" y2="529.8"/>
	<line class="st19" x1="666.3" y1="529.8" x2="644.3" y2="529.8"/>
	<line class="st19" x1="122.3" y1="529.8" x2="122.3" y2="529.8"/>
	<path class="st19" d="M532.3,409.8h56c2.2,0,4,1.8,4,4v36"/>
	<path class="st19" d="M348.3,449.8v-36c0-2.2,1.8-4,4-4h164"/>
	<path class="st19" d="M592.3,465.8v60c0,2.2-1.8,4-4,4h-236c-2.2,0-4-1.8-4-4v-60"/>
	<line class="st19" x1="516.3" y1="529.8" x2="516.3" y2="467.8"/>
	<path class="st19" d="M516.3,447.8v-38c0-2.2,1.8-4,4-4h8c2.2,0,4,1.8,4,4v38"/>
	<line class="st19" x1="532.3" y1="529.8" x2="532.3" y2="467.8"/>
	<path class="st19" d="M514.3,465.8h-166c-2.2,0-4-1.8-4-4v-8c0-2.2,1.8-4,4-4h166"/>
	<path class="st19" d="M534.3,449.8h58c2.2,0,4,1.8,4,4v8c0,2.2-1.8,4-4,4h-58"/>
	<path class="st19" d="M532.3,467.8h-16c-1.1,0-2-0.9-2-2v-16c0-1.1,0.9-2,2-2h16c1.1,0,2,0.9,2,2v16
		C534.3,466.9,533.4,467.8,532.3,467.8z"/>
	<path class="st19" d="M568.3,239.8h-192c-2.2,0-4,1.8-4,4v32c0,2.2,1.8,4,4,4h192c2.2,0,4-1.8,4-4v-32
		C572.3,241.6,570.5,239.8,568.3,239.8z"/>
	<line class="st19" x1="382.3" y1="279.8" x2="382.3" y2="409.8"/>
	<line class="st19" x1="562.3" y1="279.8" x2="562.3" y2="409.8"/>
	<path class="st19" d="M496.3,279.8v-40c-10.3-23.8-24.5-17.2-28.7-12.6"/>
	<line class="st19" x1="452.3" y1="279.8" x2="452.3" y2="409.8"/>
	<line class="st19" x1="492.3" y1="279.8" x2="492.3" y2="409.8"/>
	<path class="st19" d="M474,231c-13-11-25.7-0.3-25.7,8.8v40"/>
	<path class="st19" d="M453,230.1c-6.4-29.6-25.5-52.1-45.7-50.1C397.8,180.9,419.3,214.7,453,230.1z"/>
	<path class="st19" d="M400.5,239.8c-33.8,0-61-27-61-27c4.5-5.2,9-7.8,21.5-4.4c-6.2-9.7-5-18.5-0.9-25.8c6.2,6,17,17.3,23.5,20.2"
		/>
	<path class="st20" d="M424.9,224.3c4.8,6.8,18.6,14.2,23.4,15.5"/>
	<path class="st20" d="M420.4,230.9c2.6,3.4,12.4,8.9,23,8.9"/>
	<path class="st20" d="M444.2,225.5c-1.9-6-4.3-11.5-7.1-16.4"/>
	<path class="st19" d="M460.1,226.6c-7.5-53.7-51.5-62.1-61-53.7c-9.5,8.3-17.7,24.7-15.2,36.8c2.5,12.2,16.7,30.1,32.5,30.1"/>
	<path class="st19" d="M491.6,230.1c6.4-29.6,25.5-52.1,45.7-50.1C546.9,180.9,525.3,214.7,491.6,230.1z"/>
	<path class="st19" d="M544.2,239.8c33.8,0,61-27,61-27c-4.5-5.2-9-7.8-21.5-4.4c6.2-9.7,5-18.5,0.9-25.8c-6.2,6-17,17.3-23.5,20.2"
		/>
	<path class="st20" d="M496.3,239.8c3.5-1,11.6-5,17.7-9.8"/>
	<path class="st20" d="M528,228c-5,5.9-16.1,11.8-26.7,11.8"/>
	<line class="st20" x1="510.7" y1="204.3" x2="510.7" y2="204.3"/>
	<path class="st20" d="M507.6,209.2c-2.9,4.9-5.3,10.4-7.1,16.4"/>
	<path class="st19" d="M484.8,224.7c8.2-52,51.3-60.1,60.7-51.8c9.5,8.3,17.7,24.7,15.2,36.8c-2.5,12.2-16.7,30.1-32.5,30.1"/>
	<path class="st19" d="M382.3,365.8h-186c-2.2,0-4-1.8-4-4v-24c0-2.2,1.8-4,4-4h186"/>
	<line class="st19" x1="206.3" y1="365.8" x2="206.3" y2="529.8"/>
	<line class="st19" x1="322.3" y1="333.8" x2="322.3" y2="365.8"/>
	<line class="st19" x1="282.3" y1="333.8" x2="282.3" y2="365.8"/>
	<line class="st19" x1="286.3" y1="529.8" x2="286.3" y2="365.8"/>
	<line class="st19" x1="318.3" y1="529.8" x2="318.3" y2="365.8"/>
	<path class="st19" d="M318.3,333.8c5.5-9.5-6-22-14.7-16.4c-1.8,1.1-3.2,3-4,5.8"/>
	<path class="st19" d="M303.6,317.4c-12-7.3-24.4,1.3-19.2,16.4"/>
	<path class="st19" d="M271.3,333.8c-27,0-43-17.3-44.5-24.3s7.2-21,16.5-24.2c9.3-3.2,28.7,15,43,33
		c-14.6-47.1-42.1-69.3-20.6-22.1"/>
	<path class="st19" d="M308.9,316c0.4-27-10.1-62.2-19.9-63.7c-6.9-1.1-26.2,9-30.9,18.5"/>
	<path class="st19" d="M318.2,322.7c16.9-13.5,35-27.6,43.1-23c3.8,2.2,11.2,17.3,7.2,23.3c-4,6-14.8,10.8-34.7,10.8"/>
	<path class="st19" d="M318.1,322.5c23.3-40,56.6-62.5,29.5-20.7"/>
	<path class="st19" d="M307.2,294.1c6.2-19.1,16.2-36.1,23.1-36.1c8.7,0,24,15.4,27,21.8"/>
	<path class="st19" d="M246.8,333.8c-50.4,0-76.2-16.8-63.8-47.3c9.3-22.8,23.6-6.4,15,6c-12.8,18.5-44.5-3.2-23.8-37.2"/>
	<path class="st19" d="M209.7,333.8c-34.8-7.5-51,34.2-69.7,4.5"/>
	<g class="st21">
		<line class="st20" x1="266.3" y1="365.8" x2="206.3" y2="425.8"/>
		<line class="st20" x1="286.3" y1="365.8" x2="206.3" y2="445.8"/>
		<line class="st20" x1="286.3" y1="425.8" x2="206.3" y2="505.8"/>
		<line class="st20" x1="346.3" y1="365.8" x2="318.3" y2="393.8"/>
		<line class="st20" x1="286.3" y1="445.8" x2="206.3" y2="525.8"/>
		<line class="st20" x1="366.3" y1="365.8" x2="318.3" y2="413.8"/>
		<line class="st20" x1="286.3" y1="505.8" x2="262.3" y2="529.8"/>
		<line class="st20" x1="348.3" y1="443.8" x2="318.3" y2="473.8"/>
		<line class="st20" x1="346.7" y1="465.4" x2="318.3" y2="493.8"/>
	</g>
	<g class="st21">
		<circle class="st20" cx="527.3" cy="319.8" r="6"/>
		<circle class="st20" cx="527.3" cy="369.8" r="6"/>
		<circle class="st20" cx="557.3" cy="294.8" r="6"/>
		<circle class="st20" cx="557.3" cy="344.8" r="6"/>
		<circle class="st20" cx="557.3" cy="394.8" r="6"/>
		<circle class="st20" cx="497.3" cy="294.8" r="6"/>
		<circle class="st20" cx="497.3" cy="344.8" r="6"/>
		<circle class="st20" cx="497.3" cy="394.8" r="6"/>
		<circle class="st20" cx="417.3" cy="319.8" r="6"/>
		<circle class="st20" cx="417.3" cy="369.8" r="6"/>
		<circle class="st20" cx="447.3" cy="294.8" r="6"/>
		<circle class="st20" cx="447.3" cy="344.8" r="6"/>
		<circle class="st20" cx="447.3" cy="394.8" r="6"/>
		<circle class="st20" cx="387.3" cy="294.8" r="6"/>
		<circle class="st20" cx="387.3" cy="344.8" r="6"/>
		<circle class="st20" cx="387.3" cy="394.8" r="6"/>
		<circle class="st20" cx="410.3" cy="246.8" r="6"/>
		<circle class="st20" cx="440.3" cy="271.8" r="6"/>
		<circle class="st20" cx="380.3" cy="271.8" r="6"/>
		<circle class="st20" cx="534.3" cy="271.8" r="6"/>
		<circle class="st20" cx="504.3" cy="246.8" r="6"/>
		<circle class="st20" cx="564.3" cy="246.8" r="6"/>
	</g>
	<line class="st20" x1="458" y1="255" x2="458" y2="263.2"/>
	<line class="st20" x1="464" y1="249.1" x2="464" y2="269.1"/>
	<line class="st20" x1="468" y1="373.2" x2="468" y2="364.2"/>
	<line class="st20" x1="468" y1="359.2" x2="468" y2="325"/>
	<line class="st20" x1="474" y1="309.1" x2="474" y2="337.1"/>
	<line class="st20" x1="480" y1="378.1" x2="480" y2="397.1"/>
	<path class="st20" d="M332.3,276c0,0,3.7-5.9,11.1-11.7"/>
	<path class="st20" d="M332.3,267c1.3-1.7,3.7-4,6.4-6"/>
	<path class="st20" d="M315.5,304.6c-2.5,2.9-4.5,5.7-6.6,11.4"/>
	<path class="st20" d="M295.5,304.1c1.4,3.2,2.7,7.5,3.2,11.2"/>
	<line class="st20" x1="292.8" y1="299.4" x2="292.8" y2="299.4"/>
	<path class="st20" d="M280.4,254c2.5,1,6.4,5.4,7.5,7.6"/>
	<line class="st20" x1="276" y1="321" x2="283.2" y2="324.9"/>
	<line class="st20" x1="277.5" y1="327.2" x2="282.3" y2="329.2"/>
	<path class="st20" d="M358.7,322.5c2.8-1.5,7-4.4,10.4-8.6"/>
	<path class="st20" d="M245.3,293c-1.5-1.2-6.1-3.6-8.1-4.1"/>
	<line class="st20" x1="312.7" y1="327.5" x2="319.7" y2="327.5"/>
	<line class="st20" x1="312.7" y1="346.1" x2="312.7" y2="356"/>
	<line class="st20" x1="308.8" y1="379.1" x2="308.8" y2="401.4"/>
	<line class="st20" x1="302.8" y1="397.1" x2="302.8" y2="413.2"/>
	<line class="st20" x1="302.8" y1="487.3" x2="302.8" y2="505.8"/>
	<line class="st20" x1="381.6" y1="230" x2="381.6" y2="230"/>
	<path class="st20" d="M368.1,224c1.7,1.3,5.5,3.2,8.9,4.5"/>
	<path class="st20" d="M572.3,205c-2.7,2.8-8.7,6-12.4,7.3"/>
	<g>
		<g>
			<line class="st22" x1="459.9" y1="510" x2="468.4" y2="501.5"/>
			<line class="st22" x1="459.9" y1="501.5" x2="468.4" y2="510"/>
			<line class="st22" x1="464.2" y1="499.8" x2="464.2" y2="511.8"/>
		</g>
		<g>
			<line class="st22" x1="379.9" y1="490" x2="388.4" y2="481.5"/>
			<line class="st22" x1="379.9" y1="481.5" x2="388.4" y2="490"/>
			<line class="st22" x1="384.2" y1="479.8" x2="384.2" y2="491.8"/>
		</g>
		<g>
			<line class="st22" x1="434.9" y1="433" x2="443.4" y2="424.5"/>
			<line class="st22" x1="434.9" y1="424.5" x2="443.4" y2="433"/>
			<line class="st22" x1="439.2" y1="422.8" x2="439.2" y2="434.8"/>
		</g>
		<g>
			<line class="st22" x1="554.9" y1="433" x2="563.4" y2="424.5"/>
			<line class="st22" x1="554.9" y1="424.5" x2="563.4" y2="433"/>
			<line class="st22" x1="559.2" y1="422.8" x2="559.2" y2="434.8"/>
		</g>
		<g>
			<line class="st22" x1="566.9" y1="496" x2="575.4" y2="487.5"/>
			<line class="st22" x1="566.9" y1="487.5" x2="575.4" y2="496"/>
			<line class="st22" x1="571.2" y1="485.8" x2="571.2" y2="497.8"/>
		</g>
	</g>
	<g class="st21">
		<circle class="st20" cx="412.2" cy="506.8" r="4"/>
		<circle class="st20" cx="369.2" cy="514.8" r="4"/>
		<circle class="st20" cx="434.2" cy="469.8" r="4"/>
		<circle class="st20" cx="494.2" cy="480.8" r="4"/>
		<circle class="st20" cx="496.2" cy="437" r="4"/>
		<circle class="st20" cx="376.2" cy="422.8" r="4"/>
		<circle class="st20" cx="580.2" cy="438.8" r="4"/>
		<circle class="st20" cx="588.2" cy="469.8" r="4"/>
		<circle class="st20" cx="549.2" cy="514.8" r="4"/>
		<circle class="st20" cx="504.2" cy="526.8" r="4"/>
	</g>
	<line class="st20" x1="514.3" y1="456.5" x2="505.2" y2="456.5"/>
	<line class="st20" x1="541.7" y1="459.5" x2="534.3" y2="459.5"/>
	<line class="st20" x1="525.8" y1="518.8" x2="525.8" y2="530"/>
	<line class="st20" x1="352.5" y1="456.5" x2="346.3" y2="456.5"/>
	<line class="st20" x1="525.8" y1="413.8" x2="525.8" y2="424.5"/>
</g>
</svg>
