<?xml version="1.0" encoding="utf-8"?>
<!-- Generator: Adobe Illustrator 21.0.0, SVG Export Plug-In . SVG Version: 6.00 Build 0)  -->
<svg version="1.1" xmlns="http://www.w3.org/2000/svg" xmlns:xlink="http://www.w3.org/1999/xlink" x="0px" y="0px"
	 viewBox="0 0 800 600" style="enable-background:new 0 0 800 600;" xml:space="preserve">
<style type="text/css">
	.st0{fill:#FFC247;}
	.st1{fill:#29CDFF;}
	.st2{fill:#42F9FF;}
	.st3{fill:#AF8CFF;}
	.st4{fill:#FF454B;}
	.st5{fill:#0BD975;}
	.st6{fill:#CCFFDD;}
	.st7{fill:#FFE747;}
	.st8{display:none;}
	.st9{display:inline;opacity:0.35;fill:#1C0300;}
	.st10{display:inline;opacity:0.4;fill:#1C0300;}
	.st11{display:inline;opacity:0.6;}
	.st12{fill:#FFC038;}
	.st13{display:inline;opacity:0.25;}
	.st14{fill:#AD000E;}
	.st15{opacity:0.25;fill:#1C0300;}
	.st16{display:inline;opacity:0.4;fill:#FFFFFF;}
	.st17{display:inline;opacity:0.6;fill:#FFFFFF;}
	.st18{display:inline;opacity:0.75;}
	.st19{fill:#FFFFFF;}
	.st20{display:inline;opacity:0.1;fill:#1C0300;}
	.st21{display:inline;opacity:0.25;fill:#1C0300;}
	.st22{fill:#006B2E;}
	.st23{display:inline;opacity:0.42;}
	.st24{fill:#FFC7BD;}
	.st25{display:inline;opacity:0.5;}
	.st26{display:inline;fill:#E8AF33;}
	.st27{display:inline;opacity:0.65;fill:#FFFFFF;}
	.st28{display:inline;opacity:0.3;fill:#FFFFFF;}
	.st29{display:inline;opacity:0.35;}
	.st30{opacity:0.12;fill:#1C0300;}
	.st31{opacity:0.15;fill:#1C0300;}
	.st32{opacity:0.6;fill:#FFFFFF;}
	.st33{opacity:0.75;}
	.st34{opacity:0.1;fill:#1C0300;}
	.st35{opacity:0.5;}
	.st36{fill:none;stroke:#233A57;stroke-width:6;stroke-linecap:round;stroke-linejoin:round;stroke-miterlimit:10;}
	.st37{fill:none;stroke:#233A57;stroke-width:3;stroke-linecap:round;stroke-linejoin:round;stroke-miterlimit:10;}
</style>
<g id="main">
	<g id="colors">
		<path class="st0" d="M590,264.1c1.5,0.2,2.1,2.1,1,3.1l-5.7,5.5l-2.2,2.1c-0.4,0.4-0.6,1-0.5,1.6l1.9,10.8
			c0.3,1.5-1.3,2.6-2.6,1.9l-9.7-5.1c-0.5-0.3-1.2-0.3-1.7,0l-9.7,5.1c-1.3,0.7-2.9-0.4-2.6-1.9l1.9-10.8c0.1-0.6-0.1-1.2-0.5-1.6
			l-7.8-7.6c-1.1-1-0.5-2.9,1-3.1l10.8-1.6c0.6-0.1,1.1-0.5,1.4-1l0.3-0.6l4.5-9.2c0.7-1.4,2.6-1.4,3.2,0l4.8,9.8
			c0.3,0.5,0.8,0.9,1.4,1L590,264.1z"/>
		<path class="st1" d="M554.4,300.3c13.7,1.8,23.4,14.4,21.6,28.1s-14.4,23.4-28.1,21.6c-13.7-1.8-23.4-14.4-21.6-28.1
			C528.1,308.1,540.7,298.5,554.4,300.3z"/>
		<path class="st2" d="M558.3,373.3c6.4,0.8,10.9,6.7,10.1,13.1c-0.8,6.4-6.7,10.9-13.1,10.1c-6.4-0.8-10.9-6.7-10.1-13.1
			C546,377,551.9,372.4,558.3,373.3z"/>
		<path class="st3" d="M532.5,165.3c6.4,0.8,10.9,6.7,10.1,13.1c-0.8,6.4-6.7,10.9-13.1,10.1c-6.4-0.8-10.9-6.7-10.1-13.1
			C520.2,169,526.1,164.5,532.5,165.3z"/>
		<path class="st3" d="M525.5,265.5c6.4,0.8,10.9,6.7,10.1,13.1c-0.8,6.4-6.7,10.9-13.1,10.1c-6.4-0.8-10.9-6.7-10.1-13.1
			C513.2,269.2,519.1,264.7,525.5,265.5z"/>
		<path class="st4" d="M478.7,498.2c-8.8,11.7-21.7,21.2-39.1,18.6c23.6-19.3,39.1-50,37.8-83c0.3,0,0.5,0.1,0.8,0.2l9.7,5.1
			c1.3,0.7,2.9-0.4,2.6-1.9l-1.9-10.8c-0.1-0.6,0.1-1.2,0.5-1.6l7.8-7.6c1.1-1.1,0.5-2.9-1-3.1l-10.8-1.6c-0.6-0.1-1.1-0.5-1.4-1
			l-4.8-9.8c-0.7-1.4-2.6-1.4-3.2,0l-2.9,5.9c-2.8-9-7-18-12.8-26.9c-3.6-6,1.4-10.6,7.5-15.1c0.6-0.5,1.2-0.9,1.8-1.4
			c5.4-4.6,9.3-10.6,11.7-17.3c1.5-4.1,5.6-6.5,7.8-5c0.2,0.1,0.3,0.3,0.5,0.4c0,0,0,0,0,0v0c8,7.1,14.5,15.1,19.7,23.7
			c-10.1,6.7-5.9,20.7,10.1,22.4c-2.7,6.5-0.5,10.6,3.1,12c4.8,24.4,1.3,50-9,71.4c-4.9,10-11.2,19.1-19,26.7
			C487.8,504.3,480.3,503.5,478.7,498.2z"/>
		<path class="st0" d="M508.3,117.4l10.8-1.6c0.6-0.1,1.1-0.5,1.4-1l4.8-9.8c0.7-1.3,2.6-1.3,3.3,0l4.8,9.8c0.3,0.5,0.8,0.9,1.4,1
			l10.8,1.6c1.5,0.2,2.1,2.1,1,3.1l-7.8,7.6c-0.4,0.4-0.6,1-0.5,1.6l1.9,10.8c0.3,1.5-1.3,2.6-2.6,1.9l-9.7-5.1
			c-0.5-0.3-1.2-0.3-1.7,0l-9.7,5.1c-1.3,0.7-2.9-0.4-2.6-1.9l1.8-10.8c0.1-0.6-0.1-1.2-0.5-1.6l-7.8-7.6c-0.3-0.3-0.5-0.6-0.5-0.9
			C506.5,118.6,507.2,117.6,508.3,117.4z"/>
		<path class="st5" d="M533.1,207.2c-3.5,0.1-7,0.3-10.4,0.8c-11.7,1.4-22.5,5.1-32.8,10.5c-4.2,2.3-8.2,5-12,8.1
			c-2-2.4-3.8-5.3-5.3-8.8l-9.1-21l11.6,4.4c14.6,5.6,30.7-4.4,31.5-20c0-1.1-0.1-2.3-0.2-3.3c-0.6-4.7-2.2-8.9-3.8-13.1
			c-0.9-2.4-1.7-4.8-2.4-7.4c-0.9-3.5-1.3-7.4-0.7-11.8v0c4.5-5.2,7.2-11.9,7.2-19.3c0-2.2-0.2-4.3-0.7-6.4l0.7-0.2
			c0.1,0.3,0.2,0.7,0.5,0.9l7.8,7.6c0.4,0.4,0.6,1,0.5,1.6l-1.8,10.8c-0.3,1.5,1.3,2.6,2.6,1.9l9.7-5.1c0.5-0.3,1.2-0.3,1.7,0
			l9.7,5.1c1.3,0.7,2.9-0.4,2.6-1.9l-1.9-10.8c13.9-2.2,23.3,8,20.9,16.4c20.5-6.4,29,13.2,13.9,24.8c11.4-0.5,15.9,11.2,8.9,18.3
			c14,0.6,19.1,13.5,13.2,27.9c17.7-7,19,17.3,6.2,15.7c-10.7-11.6-27.2-20.1-45.7-23.7C554.6,224.2,533.8,226.5,533.1,207.2z
			 M542.6,178.4c0.8-6.4-3.7-12.3-10.1-13.1c-6.4-0.8-12.3,3.7-13.1,10.1c-0.8,6.4,3.7,12.3,10.1,13.1
			C535.9,189.4,541.7,184.9,542.6,178.4z"/>
		<path class="st5" d="M506,119.7c-2.9-13.3-14.8-23.3-29-23.3c-7.6,0-25.7,7.1-42.1,14.2c-2.9-12.2-6.7-25.9-11.9-34.1
			c5.7-3.8,11-3.9,15.7,3c14.2-15.3,36.3-13.3,40,11.6c9-16,35-1.3,26,14.7c6.9-7.9,15.8-2.4,15.8,9c-0.3,0.5-0.8,0.9-1.4,1
			l-10.8,1.6c-1.1,0.2-1.7,1.2-1.5,2.2L506,119.7z"/>
		<path class="st4" d="M421.2,158.3v-7.1v-21.1c0,0,46.1,13.7,55.8,13.7c9.7,0,17.6-7.9,17.6-17.7c0-9.8-7.9-17.7-17.6-17.7
			c-9.8,0-55.8,21.6-55.8,21.6v-6.7c0-2.3-1.2-4-3-5.2c4.9-2.3,10.7-4.9,16.7-7.6c16.4-7.1,34.5-14.2,42.1-14.2
			c14.2,0,26.1,10,29,23.3c0.5,2.1,0.7,4.2,0.7,6.4c0,7.4-2.7,14.1-7.2,19.3v0c-0.6,4.4-0.1,8.3,0.7,11.8c0.6,2.6,1.5,5,2.4,7.4
			c1.6,4.3,3.3,8.4,3.8,13.1c0.1,1.1,0.2,2.2,0.2,3.3c-0.8,15.6-17,25.6-31.5,20l-11.6-4.4l-0.2-0.4c-7.3-16.7-26.7-24.4-43.5-17.1
			c-0.9,0.4-1.7,0.8-2.6,1.2c0.3-0.3,0.6-0.6,0.9-0.9c1.8-2,3-4.7,3-7.7V158.3z"/>
		<path class="st0" d="M496,414c1.5,0.2,2.1,2,1,3.1l-7.8,7.6c-0.4,0.4-0.6,1-0.5,1.6l1.9,10.8c0.3,1.5-1.3,2.6-2.6,1.9l-9.7-5.1
			c-0.2-0.1-0.5-0.2-0.8-0.2c-0.3,0-0.6,0.1-0.9,0.2l-9.7,5.1c-1.3,0.7-2.9-0.4-2.6-1.9l1.8-10.8c0.1-0.6-0.1-1.2-0.5-1.6l-7.8-7.6
			c-1.1-1.1-0.5-2.9,1-3.1l10.8-1.6c0.6-0.1,1.1-0.5,1.4-1l2-3.9v0l2.9-5.9c0.7-1.4,2.6-1.4,3.2,0l4.8,9.8c0.3,0.5,0.8,0.9,1.4,1
			L496,414z"/>
		<path class="st6" d="M493.6,241.5c0.6,0.4,1.1,1,1.3,1.6C494.5,242.6,494.1,242,493.6,241.5z"/>
		<path class="st4" d="M477,108.5c9.7,0,17.6,7.9,17.6,17.7c0,9.8-7.9,17.7-17.6,17.7c-9.8,0-55.8-13.7-55.8-13.7
			S467.2,108.5,477,108.5z"/>
		<path class="st4" d="M491.6,258c-1.2,0.3-2.5,0.4-3.7,0.3c-1-0.1-2-0.3-2.8-0.7c7.4-5.7,11.4-11.1,9.9-14.5v0
			c-0.3-0.6-0.7-1.2-1.3-1.6c0,0,0,0,0,0c-4.6-5.2-10.6-8.8-15.6-14.9c3.8-3.1,7.8-5.8,12-8.1c10.2-5.4,21.1-9,32.8-10.5
			c3.5-0.4,6.9-0.7,10.4-0.8c0.7,19.3,21.5,17,22.5,1.9c18.4,3.6,35,12,45.7,23.7c9.8,10.7,14.6,24.1,11.4,39l-1,0.1
			c4.1,11.5,2.8,23.5,0.6,34c-7-13.7-16.2-24.8-27-33.2l5.7-5.5c1.1-1,0.5-2.9-1-3.1l-10.8-1.6c-0.6-0.1-1.1-0.5-1.4-1l-4.8-9.8
			c-0.7-1.4-2.6-1.4-3.2,0l-4.5,9.2C543.9,251.9,518.6,250.8,491.6,258z"/>
		<path class="st6" d="M489.3,342.2c-0.2-0.1-0.3-0.3-0.5-0.4C489,341.9,489.2,342,489.3,342.2z"/>
		<path class="st7" d="M493.6,241.5c-3.7-2.7-13.2-2.2-25.2,1c-1.4,0.4-2.8,0.8-4.3,1.3c-0.6,0.2-1.2,0.4-1.9,0.6
			c-3.9,1.3-7.9,2.8-12,4.6c-4.1,1.8-8,3.7-11.6,5.6c-0.5,0.3-1,0.6-1.5,0.8c0,0,0,0,0,0c-12.8,7.2-21.4,14.9-22.1,20
			c-0.9-9.7,2.3-19.1-3-31.4l-9.3-21.4c-1.9-4.3-2.7-8.8-2.7-13.1c0-10.5,5.1-20.7,13.9-26.9c0,0,0,0,0,0c1.1-0.8,2.2-1.5,3.4-2.1
			c0.8-0.4,1.7-0.9,2.6-1.2c16.7-7.3,36.2,0.4,43.5,17.1l0.2,0.4l9.1,21c1.5,3.5,3.4,6.4,5.3,8.8C483,232.7,489,236.3,493.6,241.5z"
			/>
		<path class="st5" d="M272.9,480.2c-14.4,11.5-36.9-12.7-22.9-26.1c-24.1,2.1-36.7-21.9-23.6-34.8c-10.4,6.4-18.4-2.6-16.5-9.3
			c-17.5,2.7-20.9-19.7-11.2-21.8l0,0c16.8,17.7,40.9,28.5,66,31.7v0c0.1-19.8,30.5-22,32.4,0c23.3-3.2,44.8-13.2,59.3-30.5v0
			c7.8-3.2,17.8-0.4,21.7,6.1c7-20.4,37.3-11.7,33.1,6.4l0.1,0c4.5-6.6,15-7.5,21.1-0.3c2.1-19.6,13-23.6,27.6-21h0
			c5.7,8.9,9.9,17.9,12.8,26.9v0l-2,3.9c-0.3,0.5-0.8,0.9-1.4,1l-10.8,1.6c-1.5,0.2-2.1,2-1,3.1l7.8,7.6c0.4,0.4,0.6,1,0.5,1.6
			l-1.8,10.8c-0.3,1.5,1.3,2.6,2.6,1.9l9.7-5.1c0.3-0.1,0.6-0.2,0.9-0.2c1.3,33.1-14.2,63.7-37.8,83c-13.8,10.4-26.5,7.3-32.2-5.8
			c-6.2,4.4-11.7,5.8-14.6-3.3c-7,18.2-25.5,19.6-31.6-1.1c-15.3,25.3-42.8,16-38.6-12.3c-10.9,9.2-20.9,11.7-22.6-4.6
			C290.1,500.9,276.7,492.3,272.9,480.2z M417.3,488.9c11.4-7.8,14.4-23.4,6.6-34.8c-7.8-11.4-23.4-14.4-34.8-6.6
			c-11.4,7.8-14.4,23.4-6.6,34.8C390.3,493.8,405.9,496.7,417.3,488.9z M369.8,436.6c1.1-8.1-4.6-15.5-12.8-16.6
			c-8.1-1.1-15.5,4.6-16.6,12.8c-1.1,8.1,4.6,15.5,12.8,16.6C361.3,450.5,368.7,444.8,369.8,436.6z M329.6,451.6
			c1.1-1,0.5-2.9-1-3.1l-10.8-1.6c-0.6-0.1-1.1-0.5-1.4-1l-4.8-9.8c-0.7-1.4-2.6-1.4-3.3,0l-4.8,9.8c-0.3,0.5-0.8,0.9-1.4,1
			l-10.8,1.6c-1.5,0.2-2.1,2.1-1,3.1l7.8,7.6c0.4,0.4,0.6,1,0.5,1.6l-1.9,10.8c-0.2,1.5,1.3,2.6,2.6,1.9l9.7-5.1
			c0.5-0.3,1.2-0.3,1.7,0l9.7,5.1c1.3,0.7,2.9-0.4,2.6-1.9l-1.9-10.8c-0.1-0.6,0.1-1.2,0.5-1.6L329.6,451.6z"/>
		<path class="st4" d="M465,324.2c-0.1,8.2-0.3,15.4-0.5,20.3c-0.1,1.8-2.4,2.5-3.5,1.1l-14-18.3c-1.7-2.2-5.1-2.2-6.7,0.2
			l-16.7,24.1c-1.1,1.6-3.5,0.8-3.5-1.1c0.2-13.6,0.3-50.5-0.1-69.8c7.7,1.6,23.3-1.6,40-8.9c1.6-0.7,3.2-1.4,4.8-2.2
			C465.2,284.6,465.2,306.8,465,324.2z"/>
		<path class="st0" d="M464.4,244.5c3.2,7.5-0.2,16.1-7.6,19.3c-7.4,3.2-16.1-0.2-19.3-7.6c-0.1-0.2-0.2-0.5-0.3-0.7c0,0,0,0,0,0
			c0.5-0.3,1-0.6,1.5-0.8c3.6-2,7.5-3.8,11.6-5.6c4.1-1.8,8.1-3.3,12-4.6c0.6-0.2,1.3-0.4,1.9-0.6
			C464.2,244,464.3,244.3,464.4,244.5z"/>
		<path class="st7" d="M437.5,256.2c3.2,7.5,11.9,10.9,19.3,7.6c7.4-3.2,10.9-11.9,7.6-19.3c-0.1-0.2-0.2-0.5-0.3-0.7
			c1.5-0.5,2.9-0.9,4.3-1.3c11.9-3.3,21.5-3.8,25.2-1c0,0,0,0,0,0c0.5,0.5,0.9,1.1,1.3,1.6v0c1.5,3.4-2.4,8.8-9.9,14.5
			c-5.2,4-12.2,8.2-20.2,12c-1.5,0.7-3.1,1.5-4.8,2.2c-16.7,7.3-32.3,10.5-40,8.9c-2.4-0.5-4-1.5-4.7-3c-0.3-0.6-0.4-1.4-0.3-2.1
			c0,0,0,0,0,0c0.7-5.2,9.3-12.9,22.1-20C437.2,255.7,437.3,256,437.5,256.2z"/>
		<path class="st3" d="M423.9,454.1c7.8,11.4,4.9,27-6.6,34.8c-11.4,7.8-27,4.9-34.8-6.6c-7.8-11.4-4.9-27,6.6-34.8
			C400.5,439.8,416.1,442.7,423.9,454.1z"/>
		<path class="st4" d="M408.1,70.8c6-3.6,10.9-0.6,14.9,5.8c5.2,8.2,9,21.9,11.9,34.1c-6,2.6-11.8,5.3-16.7,7.6
			c-5.8-3.9-18.2-2.2-18.2,5.2c0-7.4-12.4-9.2-18.2-5.2c-4.9-2.3-10.6-4.9-16.6-7.5c2.7-11.6,6.3-24.7,11.2-33
			c4.2-7.1,9.3-10.7,15.6-6.9c2.7-2.2,5.3-3.2,8-3.2h0.1C402.8,67.5,405.5,68.6,408.1,70.8z"/>
		<path class="st4" d="M400,123.5c0-7.4,12.4-9.2,18.2-5.2c1.8,1.2,3,3,3,5.2v6.7v21.1v7.1v13.5c0,2.9-1.1,5.6-3,7.7
			c-0.3,0.3-0.6,0.6-0.9,0.9c-1.2,0.6-2.3,1.3-3.4,2.1c0,0,0,0,0,0c-1.3,0.5-2.7,0.8-4.2,0.8h-19.3c-1.5,0-3-0.3-4.3-0.8h0
			c-1.1-0.8-2.2-1.4-3.3-2.1l0,0c-0.3-0.3-0.6-0.6-0.9-0.9c-1.8-2-3-4.7-3-7.7v-14.6V150v-19.9v-6.7c0-2.3,1.2-4,3-5.2
			C387.6,114.3,400,116,400,123.5z"/>
		<path class="st4" d="M409.6,183.4c1.5,0,2.9-0.3,4.2-0.8c-8.8,6.2-13.9,16.4-13.9,26.9c0-10.6-5.1-20.7-13.9-27
			c1.3,0.5,2.8,0.8,4.3,0.8H409.6z"/>
		<path class="st7" d="M384.9,275.5c-0.7-5.2-9.3-12.9-22.1-20c0,0,0,0,0,0c-0.5-0.3-1-0.6-1.5-0.8c-3.6-2-7.5-3.8-11.6-5.6
			c-4.1-1.8-8.1-3.3-12-4.6c-0.6-0.2-1.3-0.4-1.9-0.6c-13.9-4.4-25.4-5.4-29.5-2.3c0,0-0.1,0-0.1,0.1c2.8-3.1,6-5.7,9.3-8.5
			c4.3-3.8,8.6-8.2,11.7-15.3l9.1-21l0.2-0.4c7.3-16.7,26.7-24.4,43.5-17.1c0.9,0.4,1.8,0.8,2.6,1.3l0,0c1.2,0.6,2.3,1.3,3.3,2.1h0
			c8.8,6.2,13.9,16.4,13.9,27c0,4.4-0.9,8.9-2.7,13.1l-9.3,21.4C382.6,256.5,385.8,265.8,384.9,275.5z"/>
		<path class="st4" d="M379.9,280.7c-0.4,19.4-0.3,56.3-0.1,69.9c0,1.9-2.4,2.7-3.5,1.1l-16.7-24.1c-1.6-2.3-5-2.4-6.7-0.2l-14,18.3
			c-1.1,1.4-3.4,0.7-3.5-1.1c-0.6-15.4-0.8-52.8-0.3-74.9c1.5,0.7,3.1,1.4,4.7,2.1C356.6,279.1,372.2,282.3,379.9,280.7z"/>
		<path class="st4" d="M366.7,133.6c-14.4,4.1-37.1,10.2-43.7,10.2c-9.7,0-17.6-7.9-17.6-17.7c0-9.8,7.9-17.7,17.6-17.7
			c1.5,0,3.8,0.5,6.6,1.3c7.5,2.2,18.7,6.8,28.6,11c11.2,4.8,20.7,9.3,20.7,9.3S373.8,131.6,366.7,133.6L366.7,133.6z"/>
		<path class="st1" d="M357,420c8.1,1.1,13.8,8.5,12.8,16.6c-1.1,8.1-8.5,13.8-16.6,12.8c-8.1-1.1-13.8-8.5-12.8-16.6
			C341.5,424.7,348.9,419,357,420z"/>
		<path class="st7" d="M362.8,255.5c12.8,7.2,21.4,14.9,22.1,20c0,0,0,0,0,0c0.1,0.8,0,1.5-0.3,2.1c-0.6,1.5-2.3,2.5-4.7,3
			c-7.7,1.6-23.3-1.6-40-8.9c-1.6-0.7-3.2-1.4-4.7-2.1c-9.3-4.4-17.2-9.4-22.6-13.9c-1.7-1.4-3.1-2.8-4.3-4.1
			c-2.9-3.3-4.2-6.3-3.2-8.4c0,0,0,0,0,0c0.4-0.5,0.9-1.1,1.3-1.6c0,0,0.1,0,0.1-0.1c4.1-3.1,15.6-2.1,29.5,2.3
			c-0.1,0.2-0.2,0.5-0.3,0.7c-3.2,7.5,0.2,16.1,7.6,19.3c7.5,3.2,16.1-0.2,19.4-7.6C362.6,256,362.7,255.7,362.8,255.5z"/>
		<path class="st0" d="M361.3,254.7c0.5,0.3,1,0.6,1.5,0.8c0,0,0,0,0,0c-0.1,0.2-0.2,0.5-0.3,0.7c-3.2,7.5-11.9,10.9-19.4,7.6
			c-7.4-3.2-10.9-11.9-7.6-19.3c0.1-0.2,0.2-0.5,0.3-0.7c0.6,0.2,1.2,0.4,1.9,0.6c3.9,1.3,7.9,2.8,12,4.6
			C353.9,250.8,357.8,252.7,361.3,254.7z"/>
		<path class="st4" d="M182.3,345.5c-2.8-7.5-2.2-15.7,1.5-24.4c11,18.5,25.1,32.2,41.1,41.2v0c-2,15.1,10.6,18.6,15.2,7.7
			c4.9,1.5,9.1,2.4,14.2,3.3c0,0,15,2.2,22.8,2.2c0.2,0.3,0.2,0.7,0.2,1.1l-1.9,10.8c-0.2,1.5,1.3,2.6,2.6,1.9l9.7-5.1
			c0.5-0.3,1.2-0.3,1.7,0l9.7,5.1c1.3,0.7,2.9-0.4,2.6-1.9l-1.8-10.8c-0.1-0.6,0.1-1.2,0.5-1.6l2.6-2.5c5.5-1.2,11-2.9,16.5-4.9
			c6-2.2,12.8,0.1,15.9,5.7c1.4,2.6,3.4,5,5.7,7.1c3,2.7,7,4.1,11,3.4c0.6-0.1,1.2-0.3,1.8-0.5c2.2,0.2,3.6,2.3,3.3,4.2
			c-0.1,0.7-0.4,1.3-0.9,1.9v0c-14.5,17.3-36,27.4-59.3,30.5c-1.9-22-32.4-19.7-32.4,0v0c-25-3.2-49.2-14-66-31.7
			c-5.8-6.1-10.8-13.1-14.6-20.8c-2.1-4.7-4.5-16-2.5-21.7L182.3,345.5z"/>
		<path class="st0" d="M328.6,448.5c1.5,0.2,2.1,2.1,1,3.1l-7.8,7.6c-0.4,0.4-0.6,1-0.5,1.6l1.9,10.8c0.2,1.5-1.3,2.6-2.6,1.9
			l-9.7-5.1c-0.5-0.3-1.2-0.3-1.7,0l-9.7,5.1c-1.3,0.7-2.9-0.4-2.6-1.9l1.9-10.8c0.1-0.6-0.1-1.2-0.5-1.6l-7.8-7.6
			c-1.1-1-0.5-2.9,1-3.1l10.8-1.6c0.6-0.1,1.1-0.5,1.4-1l4.8-9.8c0.7-1.4,2.6-1.4,3.3,0l4.8,9.8c0.3,0.5,0.8,0.9,1.4,1L328.6,448.5z
			"/>
		<path class="st4" d="M300.5,145.5L300.5,145.5c-4.5-5.2-7.2-12-7.2-19.3c0-16.4,13.3-29.7,29.7-29.7c0.8,0,1.8,0.1,2.9,0.2
			c7.9,1.2,21.6,6.4,35,12.1c1.5,0.6,2.9,1.2,4.3,1.9c6,2.6,11.7,5.2,16.6,7.5c-1.8,1.2-3,3-3,5.2v6.7c0,0-9.4-4.4-20.7-9.3
			c-9.9-4.3-21.1-8.8-28.6-11c-2.8-0.8-5.1-1.3-6.6-1.3c-9.7,0-17.6,7.9-17.6,17.7c0,9.8,7.9,17.7,17.6,17.7
			c6.5,0,29.3-6.1,43.7-10.2h0c7.1-2,12.2-3.5,12.2-3.5V150v7.3v14.6c0,2.9,1.1,5.6,3,7.7c0.3,0.3,0.6,0.6,0.9,0.9
			c-0.8-0.5-1.7-0.9-2.6-1.3c-16.7-7.3-36.2,0.4-43.5,17.1l-0.2,0.4l-11.6,4.4c-14.6,5.6-30.7-4.4-31.5-20
			C293.3,168.4,302.4,160.1,300.5,145.5z"/>
		<path class="st0" d="M307.2,364.2c1.5,0.2,2.1,2,1,3.1l-5.2,5.1l-2.6,2.5c-0.4,0.4-0.6,1-0.5,1.6l1.8,10.8
			c0.3,1.5-1.3,2.6-2.6,1.9l-9.7-5.1c-0.5-0.3-1.2-0.3-1.7,0l-9.7,5.1c-1.3,0.7-2.9-0.4-2.6-1.9l1.9-10.8c0.1-0.4,0-0.8-0.2-1.1
			c-0.1-0.2-0.2-0.4-0.4-0.5l-7.8-7.6c-1.1-1-0.5-2.9,1-3.1l10.8-1.6c0.6-0.1,1.1-0.5,1.4-1l4.8-9.8c0.7-1.4,2.6-1.4,3.3,0l4.8,9.8
			c0.3,0.5,0.8,0.9,1.4,1L307.2,364.2z"/>
		<path class="st6" d="M306.3,241.6c-0.4,0.5-0.9,1-1.3,1.6C305.3,242.5,305.7,242,306.3,241.6z"/>
		<path class="st6" d="M299.5,284.6c0.5,0,0.9,0,1.3,0.1C300.4,284.7,299.9,284.7,299.5,284.6z"/>
		<path class="st5" d="M276,147.7L276,147.7c-15.3-2.8-16.2-21.6,5-27.2c-0.7-2.5-0.9-5-0.7-7.2c0.6-9.8,8.5-16.1,17.3-14.4
			c-4.8-14,20-17.9,20.9-6.5c6.2-11,14.7-10.2,24.5-6c-4.7-17.1,13.9-18.8,12.8-2.5c3.9-5.9,11.4-6.5,20.6-6.2
			c-4.9,8.3-8.5,21.4-11.2,33c-1.4-0.6-2.9-1.2-4.3-1.9c-13.4-5.7-27.1-11-35-12.1c-1.1-0.2-2-0.2-2.9-0.2
			c-16.4,0-29.7,13.3-29.7,29.7c0,7.4,2.7,14.1,7.2,19.3v0c1.9,14.7-7.1,22.9-7.1,35.7c0.8,15.6,17,25.6,31.5,20l11.6-4.4l-9.1,21
			c-3.1,7.1-7.4,11.5-11.7,15.3c-11.3-8.1-20.5-17.5-27.2-28.4c-13.9,6.4-22.6-12.5-8.7-18.9C276.1,174.4,274.8,161.8,276,147.7z"/>
		<path class="st2" d="M261.4,296.2c13.7,1.8,23.4,14.4,21.6,28.1c-1.8,13.7-14.4,23.4-28.1,21.6c-13.7-1.8-23.4-14.4-21.6-28.1
			C235.1,304.1,247.6,294.5,261.4,296.2z"/>
		<path class="st4" d="M302.2,265.4c0,0-0.1,0-0.1,0c-23.3-2.3-44.2-13.6-57.1-33.1c0-0.5,0.2-0.9,0.6-1.3l7.8-7.6
			c1.1-1,0.5-2.9-1-3.1l-10.8-1.6c-0.6-0.1-1.1-0.5-1.4-1l-4.8-9.8c-0.2-0.5-0.6-0.8-1.1-0.9v0c-3.1-13.1-3.5-28.2-0.4-45.3
			c0.8-4.7,1.9-9.5,3.2-14.4c3.1-10.3,11.4-17.1,19.3-18.5c4.1-8.4,10.1-14.5,18.7-16.2c2.2-0.5,3.8-0.4,5.2,0.8h0
			c-0.2,2.2,0.1,4.7,0.7,7.2c-21.2,5.6-20.3,24.4-5,27.1v0c-1.2,14.1,0.1,26.7,3.6,38.1c-13.9,6.4-5.2,25.2,8.7,18.9
			c6.7,10.8,15.9,20.2,27.2,28.4c-3.2,2.9-6.5,5.4-9.3,8.5c-0.6,0.4-1,0.9-1.3,1.6c0,0,0,0,0,0c-0.9,2.2,0.3,5.1,3.2,8.4
			c1.2,1.3,2.6,2.7,4.3,4.1c0,0.3,0,0.7,0,1C312.4,262,307.5,265.9,302.2,265.4z"/>
		<path class="st0" d="M252.4,220.3c1.5,0.2,2.1,2.1,1,3.1l-7.8,7.6c-0.3,0.3-0.5,0.8-0.6,1.3c0,0.1,0,0.2,0,0.3l1.8,10.8
			c0.3,1.5-1.3,2.6-2.6,1.9l-9.7-5.1c-0.5-0.3-1.2-0.3-1.7,0l-9.7,5.1c-1.3,0.7-2.9-0.4-2.6-1.9l1.8-10.8c0.1-0.6-0.1-1.2-0.5-1.6
			l-7.8-7.6c-1.1-1-0.5-2.9,1-3.1l10.8-1.6c0.6-0.1,1.1-0.5,1.4-1l4.8-9.8c0.4-0.9,1.4-1.2,2.2-0.9v0c0.4,0.1,0.8,0.4,1.1,0.9
			l4.8,9.8c0.3,0.5,0.8,0.9,1.4,1L252.4,220.3z"/>
		<path class="st5" d="M245,232.3c12.8,19.5,33.8,30.8,57.1,33.1c0,0,0.1,0,0.1,0c11.8,1.7,9.8,19.5-1.4,19.3
			c-0.4-0.1-0.9-0.1-1.3-0.1c0.5,0.1,0.9,0.1,1.3,0.1c20.7,2,19.1,27.2-2.5,26.2c17,9.5,15.7,17.8,5.5,25.7
			c17.5,3,20.9,14.4,15.7,30.9v0c-5.5,2-11,3.6-16.5,4.9l5.2-5.1c1.1-1,0.5-2.9-1-3.1l-10.8-1.6c-0.6-0.1-1.1-0.5-1.4-1l-4.8-9.8
			c-0.7-1.4-2.6-1.4-3.3,0l-4.8,9.8c-0.3,0.5-0.8,0.9-1.4,1l-10.8,1.6c-1.5,0.2-2.1,2-1,3.1l7.8,7.6c0.2,0.1,0.3,0.3,0.4,0.5
			c-7.7,0.1-22.8-2.2-22.8-2.2c-5.1-0.9-9.3-1.7-14.2-3.3c-4.7,10.9-17.2,7.4-15.2-7.7v0c-16-9-30.1-22.7-41.1-41.2
			c-5.1-4.7-7-20.3,6.4-20.4c-9.3-5.4-12.8-19.1,1-22.8c-8.7-6.5-9.2-29.5,3-37.4c-14.3-1.7-12.9-13.4,1.4-11.7
			c-7.3-14.8-0.4-37.1,24.8-34.8c-14.7-8.3-4.6-30.2,13.4-32.4l0.2,0c-3,17.1-2.6,32.3,0.4,45.3c-0.8-0.3-1.8,0-2.2,0.9l-4.8,9.8
			c-0.3,0.5-0.8,0.9-1.4,1l-10.8,1.6c-1.5,0.2-2.1,2.1-1,3.1l7.8,7.6c0.4,0.4,0.6,1,0.5,1.6l-1.8,10.8c-0.3,1.5,1.3,2.6,2.6,1.9
			l9.7-5.1c0.5-0.3,1.2-0.3,1.7,0l9.7,5.1c1.3,0.7,2.9-0.4,2.6-1.9l-1.8-10.8C245.1,232.5,245,232.4,245,232.3z M282.9,324.3
			c1.8-13.7-7.9-26.3-21.6-28.1c-13.7-1.8-26.3,7.9-28.1,21.6c-1.8,13.7,7.9,26.3,21.6,28.1C268.6,347.7,281.1,338,282.9,324.3z
			 M239.6,275.4c1.1-8.1-4.6-15.5-12.8-16.6c-8.1-1.1-15.5,4.6-16.6,12.8c-1.1,8.1,4.6,15.5,12.8,16.6
			C231.1,289.2,238.6,283.5,239.6,275.4z"/>
		<path class="st3" d="M226.9,258.8c8.1,1.1,13.8,8.5,12.8,16.6c-1.1,8.1-8.5,13.8-16.6,12.8c-8.1-1.1-13.8-8.5-12.8-16.6
			C211.3,263.4,218.8,257.7,226.9,258.8z"/>
		<path class="st5" d="M522.2,400.3c-3.5-1.4-5.8-5.5-3.1-12c-16-1.7-20.2-15.6-10.1-22.4c-5.2-8.6-11.7-16.6-19.7-23.7v0
			c0,0,0,0,0,0c-0.1-0.2-0.3-0.3-0.5-0.4c-13.1-11-9.4-29.2,9.5-31.4c-12.4-1-14-17.1-2.5-21.5c-7.6-4.7-8.8-13.6-1.9-18.4
			c-5.7,0.8-11.5-6.2-6.1-12.2c1.2,0.1,2.5,0,3.7-0.3c27-7.3,52.3-6.2,73.7,2.9l-0.3,0.6c-0.3,0.5-0.8,0.9-1.4,1l-10.8,1.6
			c-1.5,0.2-2.1,2.1-1,3.1l7.8,7.6c0.4,0.4,0.6,1,0.5,1.6l-1.9,10.8c-0.3,1.5,1.3,2.6,2.6,1.9l9.7-5.1c0.5-0.3,1.2-0.3,1.7,0
			l9.7,5.1c1.3,0.7,2.9-0.4,2.6-1.9l-1.9-10.8c-0.1-0.6,0.1-1.2,0.5-1.6l2.2-2.1c10.8,8.4,20,19.5,27,33.2h0
			c17.2,15,4.3,35.2-8.1,31.4c19.2,8.8,13.4,33.5-12,22c10.2,6,6.4,18.1-8.5,16c23.9,15.6,5.9,44.7-16.7,35.1
			c6,9.3-3.6,15.5-9.6,6.2c7.6,12.8,5.6,21.6-10.6,17.3c22.1,17.4-0.4,43.6-18,27.4c5.6,13.9-13.7,18.1-15.8,10.3
			C523.6,450.3,527,424.7,522.2,400.3z M576,328.4c1.8-13.7-7.9-26.3-21.6-28.1c-13.7-1.8-26.3,7.9-28.1,21.6
			c-1.8,13.7,7.9,26.3,21.6,28.1C561.6,351.7,574.2,342.1,576,328.4z M568.4,386.4c0.8-6.4-3.7-12.3-10.1-13.1
			c-6.4-0.8-12.3,3.7-13.1,10.1c-0.8,6.4,3.7,12.3,10.1,13.1C561.7,397.4,567.5,392.8,568.4,386.4z M535.6,278.7
			c0.8-6.4-3.7-12.3-10.1-13.1c-6.4-0.8-12.3,3.7-13.1,10.1c-0.8,6.4,3.7,12.3,10.1,13.1C528.9,289.6,534.7,285.1,535.6,278.7z"/>
	</g>
	<g id="shadows_copy" class="st8">
		<path class="st9" d="M378,130.4c-14.8-8.3-33.5-15.5-55-21.9c-23.5,0-23.5,35.3,0,35.3C335.8,142.3,355.8,136.9,378,130.4z"/>
		<path class="st9" d="M421.6,130.4c14.8-8.3,33.5-15.5,55-21.9c23.5,0,23.5,35.3,0,35.3C463.8,142.3,443.8,136.9,421.6,130.4z"/>
		<path class="st10" d="M387.3,183.4h25.4c-6.4,4.7-10,11.3-12.7,18.6C398.2,194.7,394,188.5,387.3,183.4z"/>
		<g class="st11">
			<path class="st12" d="M313.8,238.5c9.6-1.5,19.2-2.5,29.2-1.7c18.6,1.6,36.2-8.5,44.3-25.3l0,0c4.7-14.3,0.5-24.2-7.2-32.3
				c12.3,7.8,22.3,17.4,19.3,36.4L386,249.5l-1.3,25.3C369,255.8,345.6,243.5,313.8,238.5z"/>
			<path class="st12" d="M463.5,196.8c-2.4-5.7-6.1-10.3-10.8-13.8l0,0c-0.2-0.1-0.4-0.2-0.5-0.4c0,0-0.1,0-0.1-0.1
				c-0.7-0.5-1.5-1-2.3-1.5c-1-0.6-2-1.1-3.1-1.7c0,0.1,0,0.2,0.1,0.3c-3.3-1.3-7.1-1.9-11.2-2.3c0.1,0,0.1,0.1,0.2,0.1
				c7.6,4,13.3,10.9,16.1,19c5.8,17,13.6,32.4,24.8,45c4.7-2.3,10.7-1.7,17.1,0C479.7,230.2,470,215,463.5,196.8z"/>
		</g>
		<g class="st13">
			<path class="st14" d="M585.4,272.7c14.5,6,22.2-9.4,13.6-19.7c7.1-12.5-19.2-37-43.7-44.5c39.8,10.8,60.1,30,56.8,59.4
				c3.2,11.7,3,23.8,0.7,36.2C604.9,291.9,595.9,281.2,585.4,272.7z"/>
			<path class="st14" d="M506.1,176.8l0.1-2.1l-0.8-1.3c-2-7.8-6-16-6-26.2l-14.3,13.3c-4.3,3.1-9.1,4.4-14.4,4.3
				c-3.5-0.1-4.8,4.6-1.7,6.2c4.5,2.3,9.3,3.4,14.6,3.2c5.9-0.3,10.7,4.8,9.8,10.6c-0.8,4.8-3.3,9.3-7.6,12.3
				c-2.3,1.6-4.9,3.1-7.8,4.4c10.5,1.8,19.6,0.1,25.4-10.2c0,0.2,0,0.3,0,0.5c1.1-1.9,1.8-3.8,2.3-5.6c0,0,0,0,0,0l0,0
				C506.6,182.9,506.6,179.8,506.1,176.8z"/>
			<path class="st14" d="M224.9,408c25.7,0.4,47.5-5.4,61.5-23.2l12.7,4.4l0.8-12.7c18.7-14,32.3-11.1,35.5-3.3
				c3.2,6.7,7.6,11.2,14.5,11.5c9.3-3.2,7.9,1.4,2.4,9c-10.4,14.5-49.1,30-54,26.2c0,0-6.4-13.1-10.6-14.2
				c-13.2-2.9-21.3,1.3-23.1,14.2C252.3,419.4,238.7,414,224.9,408z"/>
			<path class="st14" d="M469.3,477.1c29-8.6,53-28.5,54-76.3c4.4,39.7-0.9,72.5-31.2,99.9l-13.6-0.7c-10.6,12-27.5,16.9-36,17.2
				C451.2,506.8,464.4,488.3,469.3,477.1z"/>
			<path class="st14" d="M304.5,246.1c0.2-2.9,2-5.1,6.3-6.4c-0.3-0.2-0.7-0.5-1-0.7l5.8-4.8l-5.5-5.2l0.1-0.3l-21.8-24.1l-5.7,1.3
				c4.4,9.9,10.1,17.9,17.3,23.8c1.8,1.4,1.1,4.4-1.1,4.7c0,0,0,0-0.1,0c-18.3,2.5-34.3-0.3-48-8.3l-6.7,8.4
				c14.7,15.8,31.7,26.9,52.5,30.3c-0.3,0.2-0.7,0.3-1,0.4l11.4,0.9l6.6-8.8l-6.8-7.6L304.5,246.1z"/>
			<path class="st15" d="M379,174c26.6,0,36.7-15.4,41.2-36l0.5,37.1c-1.8,4.4-4.5,7.2-8.1,8.4h-25.4C382.1,181,379.7,177.7,379,174
				z"/>
			<path class="st14" d="M564.4,212.3c-2.5,9.9-7.9,14-21.7,11.1c6.8-1.7,11.8-6.5,12.9-13.3L564.4,212.3z"/>
			<path class="st14" d="M226.5,377.1c9.5,6.9,22.9,7,32.1-3.3l-17.3-4.6C239.8,373.7,235.5,376.4,226.5,377.1z"/>
		</g>
		<path class="st16" d="M384.5,168.5L384.5,168.5c-2.8,0-5.1-2.3-5.1-5.1v-29.1c0-2.8,2.3-5.1,5.1-5.1l0,0c2.8,0,5.1,2.3,5.1,5.1
			v29.1C389.6,166.2,387.3,168.5,384.5,168.5z"/>
		<path class="st16" d="M405.2,142.4L405.2,142.4c-2.8,0-5.1-2.3-5.1-5.1v-14c0-2.8,2.3-5.1,5.1-5.1l0,0c2.8,0,5.1,2.3,5.1,5.1v14
			C410.3,140.2,408,142.4,405.2,142.4z"/>
		<path class="st17" d="M218.9,226.8l9.2-1.5c2.3-0.4,4.3-2,5.2-4.2l3.9-9.6l-3-5.5l-7.1,12.5l-13.3,2.9L218.9,226.8z"/>
		<g class="st18">
			<path class="st19" d="M375.6,178.2c-1,1.2-2,2.5-3,3.9c-5.9,8.4-10.7,20.4-14.7,34.6c-1.3,4.7-6.2,7.4-10.8,6.1
				c-3.9-1.1-6.4-4.6-6.4-8.4c0-1,0.2-2,0.5-3c4.1-11.3,8.6-21.9,14-30.4c0.6-0.9,1.1-1.7,1.7-2.5
				C363.6,177,369.9,176.7,375.6,178.2z"/>
			<path class="st19" d="M418.7,224.8c4.3,15.7,6.3,30.1,2.7,41.7c7.5-6.5,15.9-11.7,25.2-15.8L431,220c-1.7-3.4-5.9-4.6-9.2-2.7
				l0,0C419.2,218.8,417.9,221.9,418.7,224.8z"/>
			<circle class="st19" cx="419.6" cy="208.1" r="6"/>
		</g>
		<path class="st20" d="M221.7,233c12.5,7.5,24.6-2.7,21.6-14.3l10.6,2.7l-8.8,11.2l1.8,12.2l-13.9-4.6l-11.2,5.3V233z"/>
		<path class="st17" d="M274.1,371l9.2-1.5c2.3-0.4,4.3-2,5.2-4.2l3.9-9.6l-3-5.5l-7.1,12.5l-13.3,2.9L274.1,371z"/>
		<path class="st20" d="M276.9,377.3c12.5,7.5,24.6-2.7,21.6-14.3l10.6,2.7l-8.8,11.2l1.8,12.2l-13.9-4.6l-11.2,5.3V377.3z"/>
		<path class="st20" d="M298.4,461.8c12.5,7.5,24.6-2.7,21.6-14.3l10.6,2.7l-8.8,11.2l1.8,12.2l-13.9-4.6l-11.2,5.3V461.8z"/>
		<path class="st17" d="M463.1,421l9.2-1.5c2.3-0.4,4.3-2,5.2-4.2l3.9-9.6l-3-5.5l-7.1,12.5l-13.3,2.9L463.1,421z"/>
		<path class="st20" d="M465.9,427.3c12.5,7.5,24.6-2.7,21.6-14.3l10.6,2.7l-8.8,11.2l1.8,12.2l-13.9-4.6l-11.2,5.3V427.3z"/>
		<path class="st17" d="M556.5,270.6l9.2-1.5c2.3-0.4,4.3-2,5.2-4.2l3.9-9.6l-3-5.5l-7.1,12.5l-13.3,2.9L556.5,270.6z"/>
		<path class="st20" d="M559.3,276.9c12.5,7.5,24.6-2.7,21.6-14.3l10.6,2.7l-8.8,11.2l1.8,12.2l-13.9-4.6l-11.2,5.3V276.9z"/>
		<path class="st17" d="M512,123.9l9.2-1.5c2.3-0.4,4.3-2,5.2-4.2l3.9-9.6l-3-5.5l-7.1,12.5l-13.3,2.9L512,123.9z"/>
		<path class="st20" d="M514.8,130.2c12.5,7.5,24.6-2.7,21.6-14.3l10.6,2.7l-8.8,11.2L540,142l-13.9-4.6l-11.2,5.3V130.2z"/>
		<path class="st21" d="M341.1,445.3c12.8,30.9,53.8,1.4,27.5-22.2C381.4,439.1,353.8,461.2,341.1,445.3z"/>
		<g class="st13">
			<path class="st22" d="M611.4,304.2c-5.4-13-16-22.7-28.4-31.2l1,15.9c15.9,2,18.7,18,11.2,26.4c-4.2,4.8-11.9,4.3-15.5-1
				c-2.5-3.7-6.1-7.4-10.8-10.8c25.6,25.4-13.4,65.2-39,39.8c8.6,14.1,21.1,17.5,32.1,14.7c4.1-1,8.5,0.7,10.3,4.6
				c2.7,5.9-2.6,12.8-13.9,10.7c10.4,3.9,12.8,10.4,5.5,20.2l0.2,1.2c-4.9,3.2-11.8,3.3-16.8-3c2.6,8.6-10.1,10.8-10-2.9l-0.7,3.8
				c-0.2-0.9-0.5-1.8-0.8-2.8c-3.2,7.9-5.9,12.1-13.4,11.1c4.4,24.5,1.6,48.9-9.1,73c10.9,4.1,16.4,0.4,15.8-12.4
				c10.9,8.3,20.4,7,27.8-8.4c-0.1,0.1-0.2,0.2-0.3,0.3c-4.6,3.8-10.2,4-14.7,1.9c-10.3-5-3-20.9,7.5-16.2c1.4,0.6,2.8,1.4,4.1,2.3
				l-6.5-7.2c-3.4,0.5-6.1,0.1-8.4-1c-2.4-1.1-3.8-3.6-3.8-6.2l0,0c0-2.9,0.9-5.6,2.4-7.7c6.4-9.2,21.1-0.9,16.6,9.4
				c-1.2,2.7-3.4,4.8-6.8,5.6c15.3,2.7,19.1-2.8,10.6-17.3c5.2,0.7,8.7-1,9.7-6.4c0.4-0.3,0.7-0.7,1-1c15.1-2,23.2-10.6,15.6-33.9
				c11.4,6.1,19.9-10,8.5-16c21.5,11.7,33.5-10.3,12-22C623.4,334.5,626.4,323.8,611.4,304.2z"/>
			<path class="st22" d="M487.5,341.4c5.4,1.4,10.7,2.6,15.7,2.9c9.4,0.6,16.1,9.4,13.7,18.5c0,0.1,0,0.1-0.1,0.2l-8.5,1.9
				C502.1,356.2,495.4,348.1,487.5,341.4z"/>
			<path class="st22" d="M595.3,216.9l2.3-12.7c-4.9,5.9-11.3,6.9-16.6,5.5c-0.3-0.1-0.5-0.2-0.8-0.2c-5.7-2.1-7.3-9.4-3.4-14.1
				l5.3-6.2c7-7.3,3.3-19.7-9.8-18.1c6.9-13.9-1-22.6-13.2-24.8c-0.3-13-8.3-16.8-19.9-16.5l0.8,11l-12.3-3.2l-10.5,4.6l-3.7-1.2
				l1.6-12.6l-6.8-4.8c0.5,8-2.3,16-8.9,23.8c-0.7,10.2,1.9,19.7,6.5,28.9l0.6,11.2c-1.8,7.8-7.8,13.1-18.9,15.5
				c-6.9,1.4-14.3-1.1-21.9-4.6c1.8,11,6,20.7,12.8,28.9c6.4-6,14.3-10.6,23.7-14l5-0.4c0.1-0.3,0.2-0.5,0.3-0.8l25.7-5.8
				c-3.6,0.6-6.9,0.7-10,0.3c-6.5-0.7-11.3-6.5-10.9-12.9c0-0.1,0-0.1,0-0.2c0.3-4.7,3.5-8.7,8.1-9.9l0.1,0l0-9.2
				c-0.4,0.3-0.7,0.5-1.1,0.7c0.7-3.6,5-7.9,9.4-9.4c-13.4-5.8-6.7-24.5,9.4-19.9c16.2,3.2,12.5,22.8-3.2,20.3
				c8.4,1.8,9.8,11.9,5.9,18.1c9-3.6,15.7-4,18.8,0.8l5.5,3.4c2.3,6.7-3.4,13.2-11.9,10l2,10.5l5.5,1.6l-0.1,1.2
				c16.8,3.4,31.1,11,42.5,23.6C614.5,222.3,610.4,217,595.3,216.9z"/>
			<path class="st22" d="M315.6,232.3c9.4-6.3,15.2-19.6,20.4-34.3c-12.1,8.2-23.7,5.9-35.1-1.2c6.6,10.4-5.9,18.3-12.5,7.9
				C296.4,216,304.9,226.4,315.6,232.3z"/>
			<path class="st22" d="M408.2,410.1c6.7-5.1,14.5-7.7,24.2-5.8c-1.1-7.6-6-10.9-19.8-4L408.2,410.1z"/>
			<path class="st22" d="M432.9,398.4c12.6-20.7,38.4-5.1,25.8,15.6l11.6-1.9l1.7-7.2l-12.6-25.7
				C437.8,380.2,432.7,388.2,432.9,398.4z"/>
			<path class="st22" d="M250,454.1c-3,17.1,16.8,17.7,26.6,6.5c-3.7,8.6-6.5,16-3.7,22.6C251.5,482.4,241.7,474.1,250,454.1z"/>
			<path class="st22" d="M252.3,453.2c-0.7,0.3-1.5,0.6-2.2,0.9c-9.3,2.3-16.7-1.6-23.5-7.5c-6.8-3.3-7.1-23.8-0.1-27.3
				c-10.1-1.4-13.4-8.8-12.1-20.1c15.5,11.1,32.4,17.4,50.3,20.7c0,0.4,0.1,0.9,0.1,1.3C240.8,419.3,233.7,440.4,252.3,453.2z"/>
			<path class="st22" d="M369.2,389.4c0.2-0.4,0.5-0.8,0.7-1.1l-13.5,1.1c-12.1,15.6-32.6,25.3-59.3,30.5l0.1,5.3
				c18.5,0.2,34.2-3.6,47.1-11.2l0,0c0,0,0,0,0,0c1.2-0.7,2.3-1.4,3.5-2.2c10.8-6.7,20.7-10.4,29-9.2l1.3-7.2
				C376.1,391.9,372.9,390.2,369.2,389.4z"/>
			<path class="st22" d="M239.4,244.3c-10.2,13.2,10.7,29.4,20.9,16.1c3,10.5,15.3,7,12.3-3.5c-13.1-3.6-20-10.6-23.8-19.4l-3.7,8
				L239.4,244.3z"/>
			<path class="st22" d="M303.8,336.6c-4.5,0.1-7.6-1.5-9.6-4.6c-2.3-3.6-2.4-8.2-0.4-12c0-0.1,0.1-0.1,0.1-0.2c1.6-3.1,4-5.6,7-7.4
				l7.2-3.2c6.9-4,8.3-8.8,6.4-14.1l0.5-0.4l-1.2-1.3c-0.8-1.7-1.9-3.4-3.3-5.1c-0.1,0.5-0.2,0.9-0.2,1.3l-4.6-5
				c6.2-6,5.8-12-1.7-17.8l-22-5.9c-7.8,11.7,4.1,22.3,13.6,17.4c1.8-0.9,4-0.3,5,1.5c0,0,0,0,0,0c6.7,12.5-3.4,27.6-17.5,25.9
				c-0.1,0-0.1,0-0.2,0c-2-2.2-4.4-4.3-7.2-6.4c1.9,1.9,3.5,3.9,4.7,5.9c-1.2-0.3-2.4-0.8-3.4-1.3l7.1,14.8
				c-0.4,21.2-27.8,39.9-47.4,20.5c4.3,7,9.5,11.4,15.1,13.7c8.4,3.5,5.1,16.4-3.8,14.8c-2.3-0.4-4.5-1.7-6.4-4.1l-1.4,6.5
				c10.7,3.1,22.8,4.9,36.1,5.5l-7.4-10.7l12.8-1.2l5.3-12.7l0.2-2.2c0.6,0.6,1.1,1.3,1.4,2.2l5.7,9.2l2.7,1
				c-0.8,0.6-1.7,1.1-2.7,1.6l13,1.6l-0.4,7.2l12.6-3.9C325.7,345.5,316.9,338.9,303.8,336.6z"/>
			<path class="st22" d="M512,285.5c10.6,25.6,44.6,1.2,22.8-18.3C545.4,280.3,522.6,298.6,512,285.5z"/>
			<path class="st22" d="M466.8,439.1l-2.6-1.9l1.9-10.8c-4-13.4-30.4-5.5-26.4,8c12.7-7.1,19.2,4.3,6.4,11.5
				c21,3.7,17.6,23.4-3.5,19.7c-2,2.6-6.1,1.9-7.2-1.1c-2.2-6-6.8-12.1-14.4-17.7c21,20.8-1.4,51.4-24.4,47.6l-12.1-9.3l-0.7,0.2
				c-3.1,1.1-6.4-0.4-7.9-3.2c-2.8-5-10.8-4.3-11.9,4c0,0.1,0,0.2,0.1,0.2c2,10.5-13.3,14.3-16.5,4.1l-0.2-0.6
				c-1.2-3.7-5.6-4.8-8.6-2.4c-7.9,6.6-18.8-0.6-13.7-14.9l-3.2-11.1l-1.3,12.2l-10.9-4.6l-7.5,3.2l-4.9-3.5
				c7.2,10.7-14.5,25.2-21.7,14.5c4.8,10.6,11.8,15.9,24.5,7.2c0.8,8.1,4.2,12,10.8,10.8l10.1-5.1l1.3,5.6
				c-2.3,5.4,13.8,31.1,31.6,12l0.9-0.8c2.1-1.8,4.2-4,6.5-6.4c9.3,18,19.5,21.2,31,2.5l1.4,1c1.5,5,5.5,7.4,13.8,0.9
				c3.7,8,9.3,13.5,20.8,11.5c7.7-3.1,14.2-7.5,19.6-12.9c-2.7,1.3-5.6,1.6-8.4,1.2c-11.9-1.8-15.2-11.5-8-21.1
				c0-0.1,0.1-0.1,0.1-0.2c3.9-4.8,8.9-7.8,13.5-9.3c4.5-1.4,9.5-0.1,12.3,3.7c3.4,4.4,2.4,9.9-1.7,16.1c9.3-11.9,16.9-24,18.5-36.9
				c0,0,0,0,0-0.1l0.2-2.4c0,0,0,0,0,0l2.1-26.7L466.8,439.1z"/>
			<path class="st22" d="M478.7,91.2c-1.9-15.4-10.6-20.7-22.7-21.4c7.7,4.8,11.7,10.3,11.2,16.8c-0.6,7.8-7.7,13.5-15.5,13
				c-0.9-0.1-1.8-0.1-2.6-0.3c-9.9-1.3-14.9-12.7-9.3-20.9l0-0.1c-3.8-3.4-9.6-3.3-15.7-2.5l8.3,23.9l2.5,10.9l23.7-8.4l19.3-6.8
				L478.7,91.2z"/>
			<path class="st22" d="M517.4,105c-0.7,8.1-11.4,7.1-10.7-1l-0.1,0l0.1-1.7L503,90.2c-0.6,7.7-6.2,10.4-16.2,8.7
				c9.4,2.8,16.4,8.9,20.1,19.5l12.4-3.6l0.9-3.5L517.4,105z"/>
			<path class="st22" d="M210.1,283c12.8,30.9,53.8,1.4,27.5-22.2C250.4,276.8,222.9,298.9,210.1,283z"/>
		</g>
		<g class="st18">
			<circle class="st19" cx="520.5" cy="277.1" r="4.7"/>
			<circle class="st19" cx="351" cy="429.6" r="5.6"/>
			<circle class="st19" cx="221.6" cy="267.2" r="5.6"/>
			<circle class="st19" cx="553.9" cy="383.1" r="4.7"/>
			<circle class="st19" cx="528.3" cy="174.6" r="4.8"/>
			<circle class="st19" cx="405.8" cy="453" r="3.4"/>
			<path class="st19" d="M295.6,455.5l9.2-1.5c2.3-0.4,4.3-2,5.2-4.2l3.9-9.6l-3-5.5l-7.1,12.5l-13.3,2.9L295.6,455.5z"/>
			<path class="st19" d="M243.6,326.3c-1.7,0-3.2-1.3-3.5-3.1c-1.3-10.4,4.9-18.9,15.1-20.5c1.9-0.3,3.7,1,4,2.9
				c0.3,1.9-1,3.7-2.9,4c-4.9,0.8-10.3,4.6-9.3,12.8c0.2,1.9-1.1,3.7-3,3.9C243.9,326.3,243.7,326.3,243.6,326.3z"/>
			<path class="st19" d="M387.7,468.3c-1.6-0.6-2.5-2.4-2.1-4.1c1.5-6.1,4.6-10.2,9.5-12.4c1.7-0.8,3.8-0.1,4.7,1.7
				c0.8,1.7,0.1,3.8-1.7,4.7c-2.9,1.4-4.6,3.8-5.7,7.8c-0.5,1.9-2.4,3-4.3,2.5C387.9,468.4,387.8,468.4,387.7,468.3z"/>
			<path class="st19" d="M535.1,330.3c-1.2-0.6-2-1.8-2-3.2c0-9.4,5.3-17.3,13.1-19.7c1.9-0.6,3.8,0.5,4.4,2.3
				c0.6,1.9-0.5,3.8-2.3,4.4c-4.9,1.5-8.1,6.7-8.2,13c0,1.9-1.6,3.5-3.5,3.5C536.1,330.7,535.6,330.6,535.1,330.3z"/>
		</g>
		<g class="st23">
			<circle class="st19" cx="208.3" cy="301" r="5"/>
			<ellipse class="st19" cx="230.8" cy="364.3" rx="5" ry="9"/>
			
				<ellipse transform="matrix(0.7071 -0.7071 0.7071 0.7071 -12.9413 233.6731)" class="st19" cx="275.6" cy="132.5" rx="11.8" ry="8.3"/>
			
				<ellipse transform="matrix(0.7071 -0.7071 0.7071 0.7071 -54.3278 254.3593)" class="st19" cx="279.9" cy="192.8" rx="5.6" ry="5.6"/>
			
				<ellipse transform="matrix(0.7071 -0.7071 0.7071 0.7071 74.2958 342.8658)" class="st19" cx="451" cy="81.8" rx="9.1" ry="8.2"/>
			
				<ellipse transform="matrix(0.7522 -0.6589 0.6589 0.7522 -164.1736 356.6983)" class="st19" cx="392.2" cy="396.6" rx="10.1" ry="7.1"/>
			<path class="st19" d="M514.8,314.9C514.8,314.9,514.7,314.9,514.8,314.9c-1.6-2-2.1-4.6-1.5-7.1c2.1-8.9-4.5-20.9-14.5-19.5
				c-1.2,0.2-2.4,0.7-3.5,1.4c-6,4.2-7.5,8.9-5.4,14c1.4,3.6,0.3,7.7-2.8,10c-3.7,2.6-5.7,6.9-5.9,12.9c0,1.3,0.2,2.6,0.8,3.8
				c8,15.5,38.3,4.6,34.2-12.5C516,316.8,515.5,315.8,514.8,314.9z"/>
			<circle class="st19" cx="511.3" cy="373.2" r="7"/>
			<ellipse class="st19" cx="541.5" cy="209.8" rx="7" ry="9.5"/>
			
				<ellipse transform="matrix(0.3462 -0.9382 0.9382 0.3462 -26.5621 747.6899)" class="st19" cx="523.2" cy="392.9" rx="4.8" ry="3.8"/>
			<path class="st19" d="M297.6,98.9c1.9,6.6,22.9,0.5,21-6.1C314.6,79.5,293.7,85.6,297.6,98.9z"/>
			<path class="st19" d="M344,87.1c5.8,2.1,11-12.4,5.2-14.5C343.8,70.7,338.5,85.2,344,87.1z"/>
			<path class="st19" d="M184.1,319c16.1-11.6,32.7,7.7,23,23.3c10.8-5.5,22,7.9,12,15.5C203.7,350,191.7,337.5,184.1,319z"/>
			<circle class="st19" cx="220.3" cy="329.8" r="6.3"/>
			<circle class="st19" cx="285.7" cy="429.6" r="5.1"/>
			<circle class="st19" cx="387.1" cy="420.5" r="5.1"/>
			<circle class="st19" cx="495.2" cy="275.8" r="5.1"/>
			<circle class="st19" cx="258.6" cy="281.4" r="5.1"/>
			<circle class="st19" cx="197.8" cy="270.5" r="5.1"/>
			<path class="st19" d="M207.2,206.3c-0.2-0.1-0.4-0.1-0.6-0.2c-1.9-0.5-2.9-2.7-1.7-4.3c3.2-4.3,8.5-6.9,15.3-7.9
				c-17.7-1.4-25.1,7.6-27.5,21.7c0,0,1.1,6.1,3.3,10c-1.1,0.1-2.2,0.3-3.4,0.6c-4.8,1.4-8.1,4.7-7.3,7.4c0.8,2.7,5.2,3.4,10.1,2.3
				c6.3-1.4,13.8-8.2,15.3-15.6C212.2,213.9,211.5,207.9,207.2,206.3z"/>
			
				<ellipse transform="matrix(0.4364 -0.8997 0.8997 0.4364 -154.6835 659.1099)" class="st19" cx="448.8" cy="453" rx="5.1" ry="8"/>
			<path class="st19" d="M279.4,407.5c-3.4-2-8.4,0.4-11.2,5.2c-1.6,2.7-2.1,5.7-1.6,8.1c-0.6-0.1-1.2-0.2-1.8-0.2
				c-6.8,0-12.2,5.5-12.2,12.2c0,6.8,5.5,12.2,12.2,12.2s12.2-5.5,12.2-12.2c0-2.9-1-5.5-2.7-7.6c2.3-0.8,4.6-2.7,6.2-5.5
				C283.3,414.9,282.8,409.4,279.4,407.5z"/>
			<path class="st19" d="M193.2,241.2c3-3.1,6.7-3.5,10-2.3c9.2,3.2,7.8,16.5-1.7,18.5c-10.9,2.2-13.6,9.7-10.8,20.7
				C183.5,267.5,181.2,255.9,193.2,241.2z"/>
		</g>
		<g class="st18">
			<path class="st24" d="M308.3,170.8c-5.7,4.6-8.4,13.1-7.5,26c-9.4-6.6-9.1-18.9-2.5-34.9l2.6-14.8l12.4,13.9
				C313.6,164.6,312.4,168,308.3,170.8z"/>
			<path class="st24" d="M295,119.4c2.1,4.4,5.8,5.3,10.6,3.4c5.2-15,15.6-19.2,32.4-10.1c-3.2-5.3-1.7-9.4,4.1-12.4
				C319,91.9,302.3,96.4,295,119.4z"/>
			<path class="st24" d="M347,103.5c-3,3-4.3,7.1-4.3,12.2l7.8,2.7c-1.3-5.8,0.1-9.8,5.3-11.6L347,103.5z"/>
			<path class="st24" d="M279.7,119.5c-21.6,9.2-37,25.9-46.6,48.4l4.1-22.4c3.8-8.1,9.2-13.5,16.8-15.1c7-11.6,15.4-18.2,25.7-18.1
				V119.5z"/>
			<path class="st24" d="M233.1,179.2c17.2,4,31.3-3.9,42.5-22.9c-1.3,10.8-0.6,20.8,4.1,29.5c-16.4,5.4-29,16.5-38.1,32.9l-8-15.1
				C231.8,194.9,231.4,186.7,233.1,179.2z"/>
			<path class="st24" d="M495.2,214.1c21.9,5,33,26.6,29.4,39.2l40.6,7.6l4.8-9.6c-12.5,1.3-25.8-22.2-22.9-31.8
				c-7.7,2.2-12.5-1.5-14-12.3L495.2,214.1z"/>
			<path class="st24" d="M196.3,339.7c7.3,13.6,15.2,33.4,6.5,52.1l33.3,20.9c-11.1-16.7-14.8-33.5-11.3-50.5L196.3,339.7z"/>
			<path class="st24" d="M347.5,185c3.2-27.4-18.2-40-18.2-40l-17.2-4.5c15.5,15.8,17.5,36.5,5.8,62.3l19.5-6L347.5,185z"/>
			<path class="st24" d="M474.7,145.5c-16.8,6.9-14.7,29.5-9,50.5c-5.4-10.6-18.9-15.8-30-18.6c14-3.3,11.8-26.3,0.7-40.8
				L474.7,145.5z"/>
			<path class="st24" d="M375.4,85.1c20,3.7,34.4,6.5,50.4-3.4l6.5,21.7c-22.8-6.2-45-3.3-67.1,7.2L375.4,85.1z"/>
			<path class="st24" d="M336,298.8c13.8,7.2,36.8,10.7,43.6-9.3l0.4,34.1c-11.3-10.8-27.2-10.2-45.6-1.5L336,298.8z"/>
			<path class="st24" d="M420.3,301.8c12.3,0.5,36.5-3.5,45.2-18.9l0.1,26.1c-17.7-5.5-32.4,6.4-45.6,26.7L420.3,301.8z"/>
			<path class="st24" d="M449.6,104.5c4.7,2.8,5.9,6.7,4.4,11.4l22.6-7.4l11.5,3.9c1.9-5.6,5.1-8.1,9.2-8.1
				C485,92.2,468.1,95.8,449.6,104.5z"/>
			<path class="st24" d="M493.4,413.7c-1-17.4,3.7-33.7,15-48.8L493,346c-0.1,21.5-8.8,38.2-25.2,50.5l5,11l4.3-6.9l6.6,10.8
				L493.4,413.7z"/>
			<path class="st24" d="M461.1,381.9c14.3-9.8,24-23,28.2-40l-2.6-0.5l-4.8,1.8c-3.4,12-10.3,21.1-20.9,27l-2.3,6.1L461.1,381.9z"
				/>
		</g>
		<path class="st20" d="M384.6,485c20.7,12.3,44.1-10.8,35.8-35C445.1,475.4,409.3,510.3,384.6,485z"/>
		<path class="st20" d="M343.2,444c12.4,7.3,26.3-6.4,21.4-20.9C379.3,438.3,358,459.1,343.2,444z"/>
		<path class="st20" d="M213.3,282.5c12.4,7.3,26.3-6.4,21.4-20.9C249.4,276.7,228,297.6,213.3,282.5z"/>
		<path class="st20" d="M546.6,392c9.6,5.7,20.4-5,16.5-16.2C574.5,387.6,558,403.7,546.6,392z"/>
		<path class="st20" d="M513.8,283.7c9.6,5.7,20.4-5,16.5-16.2C541.7,279.3,525.2,295.4,513.8,283.7z"/>
		<path class="st20" d="M521.6,183.7c9.6,5.7,20.4-5,16.5-16.2C549.6,179.3,533.1,195.4,521.6,183.7z"/>
		<path class="st20" d="M239.8,337.5c20.7,12.3,44.1-10.8,35.8-35C300.3,327.9,264.5,362.9,239.8,337.5z"/>
		<path class="st20" d="M531.8,340.9c20.7,12.3,44.1-10.8,35.8-35C592.4,331.3,556.6,366.3,531.8,340.9z"/>
		<g class="st25">
			<path class="st14" d="M335,278.6c13.8,7.9,28.7,12.2,44.8,12.8l-0.2-10.3c-14.9,0.4-29.7-3.7-44.4-11.5L335,278.6z"/>
			<path class="st14" d="M420.2,291.4c17.3-1.9,33.4-5.2,45.3-13.7l-0.7-8.1c-15.2,8.2-30.2,11.8-44.8,11.1L420.2,291.4z"/>
			<path class="st14" d="M506.4,250.7c-0.6,1.8-1.3,3.5-2.2,5.2l-18.3,4.1c0-0.7,0.1-1.3,0.1-2.1l10.5-13.7l-6.8-6.1L478,224.9
				l7.1-3.8c4.4,5.1,9.8,9.8,16.2,14.2C506.1,238.8,508.3,245,506.4,250.7z"/>
			<path class="st14" d="M425.2,114c3.2,2.9,5.2,6.6,5.2,11.8l-7.8,4.6l-3-13.6L425.2,114z"/>
			<path class="st14" d="M422.6,130.4c1.2,12.6,6.2,22.5,18.8,26.9c-6.8,0.3-13-1.6-18.8-5.1l-2.2-2.6L422.6,130.4z"/>
			<path class="st14" d="M421.6,158.8c4.7,12.7,16.1,17.4,28,21.7c-10.8-3.8-21-4.5-30,0L421.6,158.8z"/>
		</g>
		<path class="st26" d="M382.4,277.3c-3,6.6-22.2,4.4-42.9-5c-20.8-9.3-35.2-22.3-32.2-28.9c2.1-4.8,12.7-4.9,26.2-1.2
			c-0.2,1.1-0.3,2.3-0.3,3.5c0,9.8,8,17.8,17.8,17.8c5.8,0,11-2.8,14.2-7.1C377.4,264.2,384.6,272.5,382.4,277.3z"/>
		<path class="st26" d="M418.3,277.3c3,6.6,22.2,4.4,42.9-5c20.8-9.3,35.2-22.3,32.2-28.9c-2.1-4.8-12.7-4.9-26.2-1.2
			c0.2,1.1,0.3,2.3,0.3,3.5c0,9.8-8,17.8-17.8,17.8c-5.8,0-11-2.8-14.2-7.1C423.3,264.2,416.1,272.5,418.3,277.3z"/>
		<circle class="st27" cx="342" cy="257.8" r="5.3"/>
		<circle class="st27" cx="449.6" cy="261.3" r="5.3"/>
	</g>
	<g id="shadows_copy_2" class="st8">
		<path class="st9" d="M378,130.4c-14.8-8.3-33.5-15.5-55-21.9c-23.5,0-23.5,35.3,0,35.3C335.8,142.3,355.8,136.9,378,130.4z"/>
		<path class="st9" d="M421.6,130.4c14.8-8.3,33.5-15.5,55-21.9c23.5,0,23.5,35.3,0,35.3C463.8,142.3,443.8,136.9,421.6,130.4z"/>
		<path class="st10" d="M387.3,183.4h25.4c-6.4,4.7-10,11.3-12.7,18.6C398.2,194.7,394,188.5,387.3,183.4z"/>
		<g class="st11">
			<path class="st12" d="M313.8,238.5c9.6-1.5,19.2-2.5,29.2-1.7c18.6,1.6,36.2-8.5,44.3-25.3l0,0c4.7-14.3,0.5-24.2-7.2-32.3
				c12.3,7.8,22.3,17.4,19.3,36.4L386,249.5l-1.3,25.3C369,255.8,345.6,243.5,313.8,238.5z"/>
			<path class="st12" d="M463.5,196.8c-2.4-5.7-6.1-10.3-10.8-13.8l0,0c-0.2-0.1-0.4-0.2-0.5-0.4c0,0-0.1,0-0.1-0.1
				c-0.7-0.5-1.5-1-2.3-1.5c-1-0.6-2-1.1-3.1-1.7c0,0.1,0,0.2,0.1,0.3c-3.3-1.3-7.1-1.9-11.2-2.3c0.1,0,0.1,0.1,0.2,0.1
				c7.6,4,13.3,10.9,16.1,19c5.8,17,13.6,32.4,24.8,45c4.7-2.3,10.7-1.7,17.1,0C479.7,230.2,470,215,463.5,196.8z"/>
		</g>
		<g class="st13">
			<path class="st14" d="M585.4,272.7c14.5,6,22.2-9.4,13.6-19.7c7.1-12.5-19.2-37-43.7-44.5c39.8,10.8,60.1,30,56.8,59.4
				c3.2,11.7,3,23.8,0.7,36.2C604.9,291.9,595.9,281.2,585.4,272.7z"/>
			<path class="st14" d="M506.1,176.8l0.1-2.1l-0.8-1.3c-2-7.8-6-16-6-26.2l-14.3,13.3c-4.3,3.1-9.1,4.4-14.4,4.3
				c-3.5-0.1-4.8,4.6-1.7,6.2c4.5,2.3,9.3,3.4,14.6,3.2c5.9-0.3,10.7,4.8,9.8,10.6c-0.8,4.8-3.3,9.3-7.6,12.3
				c-2.3,1.6-4.9,3.1-7.8,4.4c10.5,1.8,19.6,0.1,25.4-10.2c0,0.2,0,0.3,0,0.5c1.1-1.9,1.8-3.8,2.3-5.6c0,0,0,0,0,0l0,0
				C506.6,182.9,506.6,179.8,506.1,176.8z"/>
			<path class="st14" d="M224.9,408c25.7,0.4,47.5-5.4,61.5-23.2l12.7,4.4l0.8-12.7c18.7-14,32.3-11.1,35.5-3.3
				c3.2,6.7,7.6,11.2,14.5,11.5c9.3-3.2,7.9,1.4,2.4,9c-10.4,14.5-49.1,30-54,26.2c0,0-6.4-13.1-10.6-14.2
				c-13.2-2.9-21.3,1.3-23.1,14.2C252.3,419.4,238.7,414,224.9,408z"/>
			<path class="st14" d="M469.3,477.1c29-8.6,53-28.5,54-76.3c4.4,39.7-0.9,72.5-31.2,99.9l-13.6-0.7c-10.6,12-27.5,16.9-36,17.2
				C451.2,506.8,464.4,488.3,469.3,477.1z"/>
			<path class="st14" d="M304.5,246.1c0.2-2.9,2-5.1,6.3-6.4c-0.3-0.2-0.7-0.5-1-0.7l5.8-4.8l-5.5-5.2l0.1-0.3l-21.8-24.1l-5.7,1.3
				c4.4,9.9,10.1,17.9,17.3,23.8c1.8,1.4,1.1,4.4-1.1,4.7c0,0,0,0-0.1,0c-18.3,2.5-34.3-0.3-48-8.3l-6.7,8.4
				c14.7,15.8,31.7,26.9,52.5,30.3c-0.3,0.2-0.7,0.3-1,0.4l11.4,0.9l6.6-8.8l-6.8-7.6L304.5,246.1z"/>
			<path class="st15" d="M379,174c26.6,0,36.7-15.4,41.2-36l0.5,37.1c-1.8,4.4-4.5,7.2-8.1,8.4h-25.4C382.1,181,379.7,177.7,379,174
				z"/>
			<path class="st14" d="M564.4,212.3c-2.5,9.9-7.9,14-21.7,11.1c6.8-1.7,11.8-6.5,12.9-13.3L564.4,212.3z"/>
			<path class="st14" d="M226.5,377.1c9.5,6.9,22.9,7,32.1-3.3l-17.3-4.6C239.8,373.7,235.5,376.4,226.5,377.1z"/>
		</g>
		<path class="st28" d="M384.5,168.5L384.5,168.5c-2.8,0-5.1-2.3-5.1-5.1v-29.1c0-2.8,2.3-5.1,5.1-5.1l0,0c2.8,0,5.1,2.3,5.1,5.1
			v29.1C389.6,166.2,387.3,168.5,384.5,168.5z"/>
		<path class="st28" d="M405.2,142.4L405.2,142.4c-2.8,0-5.1-2.3-5.1-5.1v-14c0-2.8,2.3-5.1,5.1-5.1l0,0c2.8,0,5.1,2.3,5.1,5.1v14
			C410.3,140.2,408,142.4,405.2,142.4z"/>
		<path class="st17" d="M218.9,226.8l9.2-1.5c2.3-0.4,4.3-2,5.2-4.2l3.9-9.6l-3-5.5l-7.1,12.5l-13.3,2.9L218.9,226.8z"/>
		<g class="st18">
			<path class="st19" d="M375.6,178.2c-1,1.2-2,2.5-3,3.9c-5.9,8.4-10.7,20.4-14.7,34.6c-1.3,4.7-6.2,7.4-10.8,6.1
				c-3.9-1.1-6.4-4.6-6.4-8.4c0-1,0.2-2,0.5-3c4.1-11.3,8.6-21.9,14-30.4c0.6-0.9,1.1-1.7,1.7-2.5
				C363.6,177,369.9,176.7,375.6,178.2z"/>
			<path class="st19" d="M418.7,224.8c4.3,15.7,6.3,30.1,2.7,41.7c7.5-6.5,15.9-11.7,25.2-15.8L431,220c-1.7-3.4-5.9-4.6-9.2-2.7
				l0,0C419.2,218.8,417.9,221.9,418.7,224.8z"/>
			<circle class="st19" cx="419.6" cy="208.1" r="6"/>
		</g>
		<path class="st20" d="M221.7,233c12.5,7.5,24.6-2.7,21.6-14.3l10.6,2.7l-8.8,11.2l1.8,12.2l-13.9-4.6l-11.2,5.3V233z"/>
		<path class="st17" d="M274.1,371l9.2-1.5c2.3-0.4,4.3-2,5.2-4.2l3.9-9.6l-3-5.5l-7.1,12.5l-13.3,2.9L274.1,371z"/>
		<path class="st20" d="M276.9,377.3c12.5,7.5,24.6-2.7,21.6-14.3l10.6,2.7l-8.8,11.2l1.8,12.2l-13.9-4.6l-11.2,5.3V377.3z"/>
		<path class="st20" d="M298.4,461.8c12.5,7.5,24.6-2.7,21.6-14.3l10.6,2.7l-8.8,11.2l1.8,12.2l-13.9-4.6l-11.2,5.3V461.8z"/>
		<path class="st17" d="M463.1,421l9.2-1.5c2.3-0.4,4.3-2,5.2-4.2l3.9-9.6l-3-5.5l-7.1,12.5l-13.3,2.9L463.1,421z"/>
		<path class="st20" d="M465.9,427.3c12.5,7.5,24.6-2.7,21.6-14.3l10.6,2.7l-8.8,11.2l1.8,12.2l-13.9-4.6l-11.2,5.3V427.3z"/>
		<path class="st17" d="M556.5,270.6l9.2-1.5c2.3-0.4,4.3-2,5.2-4.2l3.9-9.6l-3-5.5l-7.1,12.5l-13.3,2.9L556.5,270.6z"/>
		<path class="st20" d="M559.3,276.9c12.5,7.5,24.6-2.7,21.6-14.3l10.6,2.7l-8.8,11.2l1.8,12.2l-13.9-4.6l-11.2,5.3V276.9z"/>
		<path class="st17" d="M512,123.9l9.2-1.5c2.3-0.4,4.3-2,5.2-4.2l3.9-9.6l-3-5.5l-7.1,12.5l-13.3,2.9L512,123.9z"/>
		<path class="st20" d="M514.8,130.2c12.5,7.5,24.6-2.7,21.6-14.3l10.6,2.7l-8.8,11.2L540,142l-13.9-4.6l-11.2,5.3V130.2z"/>
		<path class="st21" d="M341.1,445.3c12.8,30.9,53.8,1.4,27.5-22.2C381.4,439.1,353.8,461.2,341.1,445.3z"/>
		<g class="st18">
			<circle class="st19" cx="520.5" cy="277.1" r="4.7"/>
			<circle class="st19" cx="351" cy="429.6" r="5.6"/>
			<circle class="st19" cx="221.6" cy="267.2" r="5.6"/>
			<circle class="st19" cx="553.9" cy="383.1" r="4.7"/>
			<circle class="st19" cx="528.3" cy="174.6" r="4.8"/>
			<circle class="st19" cx="405.8" cy="453" r="3.4"/>
			<path class="st19" d="M295.6,455.5l9.2-1.5c2.3-0.4,4.3-2,5.2-4.2l3.9-9.6l-3-5.5l-7.1,12.5l-13.3,2.9L295.6,455.5z"/>
			<path class="st19" d="M243.6,326.3c-1.7,0-3.2-1.3-3.5-3.1c-1.3-10.4,4.9-18.9,15.1-20.5c1.9-0.3,3.7,1,4,2.9
				c0.3,1.9-1,3.7-2.9,4c-4.9,0.8-10.3,4.6-9.3,12.8c0.2,1.9-1.1,3.7-3,3.9C243.9,326.3,243.7,326.3,243.6,326.3z"/>
			<path class="st19" d="M387.7,468.3c-1.6-0.6-2.5-2.4-2.1-4.1c1.5-6.1,4.6-10.2,9.5-12.4c1.7-0.8,3.8-0.1,4.7,1.7
				c0.8,1.7,0.1,3.8-1.7,4.7c-2.9,1.4-4.6,3.8-5.7,7.8c-0.5,1.9-2.4,3-4.3,2.5C387.9,468.4,387.8,468.4,387.7,468.3z"/>
			<path class="st19" d="M535.1,330.3c-1.2-0.6-2-1.8-2-3.2c0-9.4,5.3-17.3,13.1-19.7c1.9-0.6,3.8,0.5,4.4,2.3
				c0.6,1.9-0.5,3.8-2.3,4.4c-4.9,1.5-8.1,6.7-8.2,13c0,1.9-1.6,3.5-3.5,3.5C536.1,330.7,535.6,330.6,535.1,330.3z"/>
		</g>
		<path class="st20" d="M384.6,485c20.7,12.3,44.1-10.8,35.8-35C445.1,475.4,409.3,510.3,384.6,485z"/>
		<path class="st20" d="M343.2,444c12.4,7.3,26.3-6.4,21.4-20.9C379.3,438.3,358,459.1,343.2,444z"/>
		<path class="st20" d="M213.3,282.5c12.4,7.3,26.3-6.4,21.4-20.9C249.4,276.7,228,297.6,213.3,282.5z"/>
		<path class="st20" d="M546.6,392c9.6,5.7,20.4-5,16.5-16.2C574.5,387.6,558,403.7,546.6,392z"/>
		<path class="st20" d="M513.8,283.7c9.6,5.7,20.4-5,16.5-16.2C541.7,279.3,525.2,295.4,513.8,283.7z"/>
		<path class="st20" d="M521.6,183.7c9.6,5.7,20.4-5,16.5-16.2C549.6,179.3,533.1,195.4,521.6,183.7z"/>
		<path class="st20" d="M239.8,337.5c20.7,12.3,44.1-10.8,35.8-35C300.3,327.9,264.5,362.9,239.8,337.5z"/>
		<path class="st20" d="M531.8,340.9c20.7,12.3,44.1-10.8,35.8-35C592.4,331.3,556.6,366.3,531.8,340.9z"/>
		<g class="st29">
			<path class="st14" d="M335,278.6c13.8,7.9,28.7,12.2,44.8,12.8l-0.2-10.3c-14.9,0.4-29.7-3.7-44.4-11.5L335,278.6z"/>
			<path class="st14" d="M420.2,291.4c17.3-1.9,33.4-5.2,45.3-13.7l-0.7-8.1c-15.2,8.2-30.2,11.8-44.8,11.1L420.2,291.4z"/>
			<path class="st14" d="M423.3,115.2c3.2,2.9,5.2,6.6,5.2,11.8l-7.8,4.6l-3-13.6L423.3,115.2z"/>
			<path class="st14" d="M422.6,130.4c1.2,12.6,6.2,22.5,18.8,26.9c-6.8,0.3-13-1.6-18.8-5.1l-2.2-2.6L422.6,130.4z"/>
			<path class="st14" d="M421.6,158.8c4.7,12.7,16.1,17.4,28,21.7c-10.8-3.8-21-4.5-30,0L421.6,158.8z"/>
		</g>
		<path class="st26" d="M382.4,277.3c-3,6.6-22.2,4.4-42.9-5c-20.8-9.3-35.2-22.3-32.2-28.9c2.1-4.8,12.7-4.9,26.2-1.2
			c-0.2,1.1-0.3,2.3-0.3,3.5c0,9.8,8,17.8,17.8,17.8c5.8,0,11-2.8,14.2-7.1C377.4,264.2,384.6,272.5,382.4,277.3z"/>
		<path class="st26" d="M418.3,277.3c3,6.6,22.2,4.4,42.9-5c20.8-9.3,35.2-22.3,32.2-28.9c-2.1-4.8-12.7-4.9-26.2-1.2
			c0.2,1.1,0.3,2.3,0.3,3.5c0,9.8-8,17.8-17.8,17.8c-5.8,0-11-2.8-14.2-7.1C423.3,264.2,416.1,272.5,418.3,277.3z"/>
		<circle class="st27" cx="342" cy="257.8" r="5.3"/>
		<circle class="st27" cx="449.6" cy="261.3" r="5.3"/>
		<path class="st28" d="M490.3,217.2c11.7-4.2,40.6,25.3,12.7,37.2c31.1-1.8,44.8-1.2,57.1,4.5c-18-18.3-21.8-29.9-10.6-38.7
			c-14.5-0.9-16.4-14.2-16.4-14.2L490.3,217.2z"/>
		<path class="st28" d="M422.7,296.5l4.4,29.6c0.4,2.9,3.7,4.4,6.2,2.9l7.9-4.7l-19.8,28.7L422.7,296.5z"/>
		<polygon class="st28" points="447.5,324.4 462.6,334.2 461.1,345.6 		"/>
		<path class="st28" d="M336.9,291.4l4.8,32.7c0.4,2.4,2.9,3.9,5.2,3l6.8-2.6L335,347.5L336.9,291.4z"/>
		<polygon class="st28" points="359.4,324.4 379.6,338.9 377.1,352.3 		"/>
		<path class="st28" d="M231.8,168.5c3.5-14.1,13.4-16.4,17.9-4.8c7.2-15.7,23.8-14.9,25.8,4.2s4.1,17.9,4.1,17.9l-6.6,11
			c-13.4-5-36.3,12.4-29.8,21.9C229.5,193.5,231.8,168.5,231.8,168.5z"/>
		<path class="st28" d="M351.2,117.8c-13.8-10,1-12.3,5.6-9.3c-34.1-16.2-49.4-13.4-56.4,1s-12.2,27.4,5.3,41.7s53.8-17.1,70.6-2.9
			c4.6-4.3,1.6-18,1.6-18l-55,13.5c-14.2,3.2-22.4-14.6-13.2-29.8C318.5,104.5,339.8,109.2,351.2,117.8z"/>
		<path class="st28" d="M366.1,107.1c8.1-20.9,18.9-28.3,20.6-16.9c7.5-14,20.2-15.5,23.4-1.1c7.2-14.1,15.7-5.3,19.2,5.6
			c-11.6-35.6-20.9-23.3-20.9-23.3s-11.5-7.2-17.2,1.2C383.2,66.7,372.8,79.3,366.1,107.1z"/>
		<path class="st28" d="M195.5,382.8c-10.2-13.1-3.7-23.9,5-13.5c-7.5-20.1-3.7-25.3,9.1-15.8c12.9,9.5,15.1,9.5,15.1,9.5l3.7,14
			c-6.5-0.6-19,20,0,33.1C195.3,388.8,195.5,382.8,195.5,382.8z"/>
		<path class="st28" d="M483.6,408.2c-3.8-11,24.2-36.2,35.7-12.1c-2.4-10.9-10.2-12.4-10.2-12.4l-5.5-8.4l4.8-10.5l-22.2-23.3
			c-9.8,4.3-4.2,9.9-14.2,20c-10,10.1-16.8,9.6-10.6,21.1c6.2,11.5,11.5,24.8,11.5,24.8S477.4,395.3,483.6,408.2z"/>
	</g>
	<g id="shadows_1_">
		<path class="st30" d="M378,130.4c-14.8-8.3-33.5-15.5-55-21.9c-23.5,0-23.5,35.3,0,35.3C335.8,142.3,355.8,136.9,378,130.4z"/>
		<path class="st30" d="M421.6,130.4c14.8-8.3,33.5-15.5,55-21.9c23.5,0,23.5,35.3,0,35.3C463.8,142.3,443.8,136.9,421.6,130.4z"/>
		<path class="st31" d="M387.3,183.4h25.4c-6.4,4.7-10,11.3-12.7,18.6C398.2,194.7,394,188.5,387.3,183.4z"/>
		<path class="st32" d="M218.9,226.8l9.2-1.5c2.3-0.4,4.3-2,5.2-4.2l3.9-9.6l-3-5.5l-7.1,12.5l-13.3,2.9L218.9,226.8z"/>
		<g class="st33">
			<path class="st19" d="M418.7,224.8c4.3,15.7,6.3,30.1,2.7,41.7c7.5-6.5,15.9-11.7,25.2-15.8L431,220c-1.7-3.4-5.9-4.6-9.2-2.7
				l0,0C419.2,218.8,417.9,221.9,418.7,224.8z"/>
			<circle class="st19" cx="419.6" cy="208.1" r="6"/>
			
				<ellipse transform="matrix(0.4506 -0.8927 0.8927 0.4506 6.1176 426.0507)" class="st19" cx="349.2" cy="208.1" rx="19.8" ry="7.1"/>
		</g>
		<path class="st32" d="M274.1,371l9.2-1.5c2.3-0.4,4.3-2,5.2-4.2l3.9-9.6l-3-5.5l-7.1,12.5l-13.3,2.9L274.1,371z"/>
		<path class="st34" d="M276.9,377.3c12.5,7.5,24.6-2.7,21.6-14.3l10.6,2.7l-8.8,11.2l1.8,12.2l-13.9-4.6l-11.2,5.3V377.3z"/>
		<path class="st32" d="M463.1,421l9.2-1.5c2.3-0.4,4.3-2,5.2-4.2l3.9-9.6l-3-5.5l-7.1,12.5l-13.3,2.9L463.1,421z"/>
		<path class="st32" d="M556.5,270.6l9.2-1.5c2.3-0.4,4.3-2,5.2-4.2l3.9-9.6l-3-5.5l-7.1,12.5l-13.3,2.9L556.5,270.6z"/>
		<path class="st32" d="M512,123.9l9.2-1.5c2.3-0.4,4.3-2,5.2-4.2l3.9-9.6l-3-5.5l-7.1,12.5l-13.3,2.9L512,123.9z"/>
		<path class="st34" d="M514.8,130.2c12.5,7.5,24.6-2.7,21.6-14.3l10.6,2.7l-8.8,11.2L540,142l-13.9-4.6l-11.2,5.3V130.2z"/>
		<g class="st33">
			<circle class="st19" cx="520.5" cy="277.1" r="4.7"/>
			<circle class="st19" cx="351" cy="429.6" r="5.6"/>
			<circle class="st19" cx="221.6" cy="267.2" r="5.6"/>
			<circle class="st19" cx="553.9" cy="383.1" r="4.7"/>
			<circle class="st19" cx="528.3" cy="174.6" r="4.8"/>
			<circle class="st19" cx="405.8" cy="453" r="3.4"/>
			<path class="st19" d="M295.6,455.5l9.2-1.5c2.3-0.4,4.3-2,5.2-4.2l3.9-9.6l-3-5.5l-7.1,12.5l-13.3,2.9L295.6,455.5z"/>
			<path class="st19" d="M243.6,326.3c-1.7,0-3.2-1.3-3.5-3.1c-1.3-10.4,4.9-18.9,15.1-20.5c1.9-0.3,3.7,1,4,2.9
				c0.3,1.9-1,3.7-2.9,4c-4.9,0.8-10.3,4.6-9.3,12.8c0.2,1.9-1.1,3.7-3,3.9C243.9,326.3,243.7,326.3,243.6,326.3z"/>
			<path class="st19" d="M387.7,468.3c-1.6-0.6-2.5-2.4-2.1-4.1c1.5-6.1,4.6-10.2,9.5-12.4c1.7-0.8,3.8-0.1,4.7,1.7
				c0.8,1.7,0.1,3.8-1.7,4.7c-2.9,1.4-4.6,3.8-5.7,7.8c-0.5,1.9-2.4,3-4.3,2.5C387.9,468.4,387.8,468.4,387.7,468.3z"/>
			<path class="st19" d="M535.1,330.3c-1.2-0.6-2-1.8-2-3.2c0-9.4,5.3-17.3,13.1-19.7c1.9-0.6,3.8,0.5,4.4,2.3
				c0.6,1.9-0.5,3.8-2.3,4.4c-4.9,1.5-8.1,6.7-8.2,13c0,1.9-1.6,3.5-3.5,3.5C536.1,330.7,535.6,330.6,535.1,330.3z"/>
		</g>
		<g class="st35">
			<path class="st14" d="M335,278.6c13.8,7.9,28.7,12.2,44.8,12.8l-0.2-10.3c-14.9,0.4-29.7-3.7-44.4-11.5L335,278.6z"/>
			<path class="st14" d="M420.2,291.4c17.3-1.9,33.4-5.2,45.3-13.7l-0.7-8.1c-15.2,8.2-30.2,11.8-44.8,11.1L420.2,291.4z"/>
		</g>
	</g>
	<g id="lines_4_">
		<path class="st36" d="M509.1,365.9c-5.2-8.6-11.7-16.6-19.7-23.7c-2.1-2.4-6.8,0.1-8.4,4.5c-2.4,6.7-6.3,12.7-11.7,17.3
			c-0.6,0.5-1.2,1-1.8,1.4c-6,4.5-11.1,9.2-7.5,15.1c5.7,8.9,9.9,17.9,12.8,26.9"/>
		<path class="st36" d="M522.2,400.3c7.1,35.8-3.7,74.2-28,98.1c-6.5,6-13.9,5.1-15.5-0.2c-8.8,11.7-21.7,21.3-39.1,18.6
			c23.6-19.3,39.1-50,37.8-83"/>
		<path class="st36" d="M478.7,498.2c4.2-5.7,7.5-10.8,10.2-15.9"/>
		<path class="st36" d="M240.2,370c4.9,1.5,9.1,2.4,14.2,3.3c0,0,15,2.2,22.8,2.2"/>
		<path class="st36" d="M303,372.4c5.5-1.2,11-2.9,16.5-4.9c6-2.2,12.8,0.1,15.9,5.7c1.4,2.6,3.4,5,5.7,7c3,2.7,7,4.1,11,3.4
			c0.6-0.1,1.2-0.3,1.8-0.5c2.2,0.2,3.6,2.3,3.3,4.2c-0.1,0.7-0.4,1.3-0.9,1.9v0c-14.5,17.3-36,27.4-59.3,30.5"/>
		<path class="st36" d="M188.1,355.1c-8.5-10-9.6-21.4-4.3-34c11,18.5,25.1,32.2,41.1,41.2l0,0"/>
		<path class="st36" d="M264.7,420c-33.7-4.4-65.7-22.3-80.5-52.6c-2.1-4.7-4.5-16-2.5-21.7"/>
		<path class="st36" d="M352.1,383.7c-9.3,4.7-19,5.5-28.8,1.6c-2.5-1-2.3-4.5,0.2-5.3l0,0"/>
		<path class="st36" d="M234.3,207c-3.9-16.6-3.5-36.6,2.8-59.8c3.1-10.3,11.4-17.1,19.3-18.5"/>
		<path class="st36" d="M312.6,255.7c0,0.3,0,0.7,0,1c-0.2,5.3-5.1,9.1-10.4,8.7c0,0-0.1,0-0.1,0c-23.3-2.3-44.2-13.6-57.1-33.1"/>
		<line class="st36" x1="279.9" y1="237.5" x2="279.9" y2="237.5"/>
		<path class="st36" d="M249.8,163.7c0-23.2,7-47.4,25.4-51.1c2.2-0.5,3.8-0.4,5.2,0.8"/>
		<path class="st36" d="M308.3,251.6c-6.7-0.8-14.8-4.3-21.4-8.7"/>
		<path class="st36" d="M288.4,204.7c6.7,10.8,15.9,20.2,27.2,28.4"/>
		<path class="st36" d="M276,147.7c-1.2,14.1,0.1,26.8,3.7,38.1"/>
		<path class="st36" d="M485,257.6c0.9,0.4,1.9,0.6,2.8,0.7c1.2,0.1,2.5,0,3.7-0.3c27-7.3,52.3-6.2,73.7,2.9"/>
		<path class="st36" d="M587.3,244.7c29.9,17.6,29,41.9,25,61.3c-7-13.7-16.2-24.8-27-33.2"/>
		<path class="st36" d="M478,226.6c3.8-3.1,7.8-5.8,12-8.1c10.2-5.4,21.1-9,32.8-10.5c3.5-0.4,6.9-0.7,10.4-0.8"/>
		<path class="st36" d="M555.6,209.2c35.4,6.9,63.8,31.5,57.1,62.7"/>
		<line class="st36" x1="493.4" y1="386" x2="493.4" y2="386"/>
		<path class="st36" d="M477.3,354.5c5.5,6.1,9.6,13.5,12.8,21.6"/>
		<path class="st36" d="M469.3,364.1c3,3.6,5.6,7.7,7.9,12.1"/>
		<path class="st36" d="M195.5,362.7c5,5.6,11.5,10.2,18.8,13.6"/>
		<path class="st36" d="M407.7,409.5c17.6-24.9-28.9-39.5-30.9-6.8"/>
		<path class="st36" d="M378.1,395.5c-4-6.6-13.9-9.3-21.7-6.1"/>
		<path class="st36" d="M411.3,401.9c4.5-6.6,15-7.5,21.1-0.3c2.1-19.6,13-23.6,27.6-21"/>
		<path class="st36" d="M489.4,342.3c-13.7-11-10.2-29.7,8.9-31.9c-12.4-1-14-17.1-2.5-21.5c-7.6-4.7-8.8-13.6-1.9-18.4
			c-5.7,0.8-11.5-6.2-6.1-12.2"/>
		<path class="st36" d="M533.1,207.2c0.8,23.4,31.1,15.1,20.2-9.1c12.5,5.1,18.1-8.8,5.7-13.9"/>
		<path class="st36" d="M612.4,306c17.2,15,4.3,35.2-8.1,31.4c19.2,8.8,13.4,33.5-12,22c10.2,6,6.4,18.1-8.5,16
			c23.9,15.6,5.9,44.7-16.7,35.1c6,9.3-3.6,15.5-9.6,6.2c7.6,12.8,5.6,21.6-10.6,17.3c22.1,17.5-0.4,43.6-18,27.4
			c5.6,13.8-13.7,18.1-15.8,10.3"/>
		<path class="st36" d="M439.6,516.8c-13.8,10.3-26.5,7.3-32.2-5.8c-6.2,4.4-11.7,5.7-14.6-3.3c-7,18.2-25.5,19.6-31.6-1.1
			c-15.3,25.3-42.8,16-38.6-12.3c-10.9,9.2-20.9,11.7-22.6-4.6c-14.9,17.2-38.2-11.8-23.3-29"/>
		<path class="st36" d="M272.9,480.2c-14.4,11.5-36.9-12.7-22.9-26.1c-24.1,2.1-36.7-21.9-23.6-34.8c-10.4,6.4-18.4-2.6-16.5-9.3"/>
		<path class="st36" d="M319.5,367.5c5.1-16.5,1.8-27.9-15.7-30.9c10.3-7.8,11.5-16.2-5.5-25.7c22.1,1,23.3-25.3,1.2-26.3
			c12.4,1.7,15-17.5,2.6-19.2"/>
		<path class="st36" d="M288,146.9c-25.8,6.8-32.8-19.6-7-26.4c-3.6-13.7,5.8-23.7,16.5-21.6"/>
		<path class="st36" d="M288.3,204.7c-13.9,6.4-22.6-12.5-8.7-18.9"/>
		<path class="st36" d="M195.5,228.8c-7.3-14.8-0.4-37.1,24.8-34.8c-14.7-8.3-4.6-30.2,13.4-32.4"/>
		<path class="st36" d="M183.8,321.1c-5.1-4.6-7-20.3,6.4-20.4c-9.3-5.5-12.8-19.1,1-22.8c-8.7-6.5-9.2-29.5,3-37.4"/>
		<path class="st36" d="M209.9,410.1c-17.5,2.7-20.9-19.7-11.2-21.8"/>
		<path class="st36" d="M297.2,423.1c0.8-25.3-32.5-23.7-32.5-3.1"/>
		<path class="st36" d="M224.9,362.3c-2.3,17.2,14.4,19.4,16.7,2.2"/>
		<path class="st36" d="M516.9,362.9c-19.1,3.6-17,23.4,2.3,25.4c-6.3,15.3,14.5,17.6,15.8,1.2"/>
		
			<ellipse transform="matrix(0.1299 -0.9915 0.9915 0.1299 157.2139 829.3557)" class="st36" cx="551.2" cy="325.1" rx="25" ry="25"/>
		
			<ellipse transform="matrix(0.1299 -0.9915 0.9915 0.1299 181.1003 760.6556)" class="st36" cx="524" cy="277.1" rx="11.7" ry="11.7"/>
		
			<ellipse transform="matrix(0.1299 -0.9915 0.9915 0.1299 286.5532 680.4078)" class="st36" cx="531" cy="176.9" rx="11.7" ry="11.7"/>
		
			<ellipse transform="matrix(0.1299 -0.9915 0.9915 0.1299 102.8015 886.9348)" class="st36" cx="556.8" cy="384.9" rx="11.7" ry="11.7"/>
		
			<ellipse transform="matrix(0.1299 -0.9915 0.9915 0.1299 -122.0636 730.3314)" class="st36" cx="355.1" cy="434.7" rx="14.8" ry="14.8"/>
		
			<ellipse transform="matrix(0.1299 -0.9915 0.9915 0.1299 -75.4011 460.9257)" class="st36" cx="224.9" cy="273.4" rx="14.8" ry="14.8"/>
		
			<ellipse transform="matrix(0.8261 -0.5635 0.5635 0.8261 -193.7606 308.6319)" class="st36" cx="403.2" cy="468.3" rx="25" ry="25"/>
		<ellipse transform="matrix(0.1299 -0.9915 0.9915 0.1299 -93.78 535.2648)" class="st36" cx="258.1" cy="321.1" rx="25" ry="25"/>
		<path class="st36" d="M442,465.5c20,6.2,25.1-17,2.6-19.9c17.7-4,3.4-22.3-5-11.2"/>
		<g>
			<path class="st36" d="M400,67.5c-2.7,0-5.3,1.1-8,3.2c-13.7-8.2-21.7,18.4-26.8,39.9"/>
			<path class="st36" d="M392,70.8c-3.6,7.5-4.5,20.5-4.5,32.7"/>
			<path class="st36" d="M434.9,110.7c-5.1-21.5-13.1-48.1-26.8-39.9c-2.7-2.2-5.3-3.2-8-3.2"/>
			<line class="st36" x1="412.7" y1="97.3" x2="412.7" y2="97.3"/>
			<path class="st36" d="M408.1,70.8c2.1,4.4,3.3,10.6,3.9,17.5"/>
		</g>
		<path class="st36" d="M384.6,277.7c-2.7,6.3-22.8,3.6-44.7-5.9c-22-9.5-37.6-22.4-34.8-28.7c0.3-0.6,0.7-1.2,1.4-1.6
			c4.3-3.2,16.6-2,31.4,2.9c3.9,1.3,7.9,2.8,12,4.6c4.1,1.8,8,3.7,11.6,5.6c13.6,7.4,22.8,15.5,23.6,20.9v0
			C385,276.3,384.9,277,384.6,277.7z"/>
		<path class="st36" d="M384.6,277.7c1.7-10.5-2.5-20.3,3.3-33.6l9.3-21.4c7.3-16.7-0.4-36.2-17.1-43.5
			c-16.7-7.3-36.2,0.4-43.5,17.1l-9.3,21.4c-5.8,13.3-15.8,17-22.3,25.4"/>
		<path class="st36" d="M335.9,243.8c-0.1,0.2-0.2,0.5-0.3,0.7c-3.2,7.5,0.2,16.1,7.6,19.3c7.5,3.2,16.1-0.2,19.4-7.6
			c0.1-0.2,0.2-0.5,0.3-0.7c0,0,0,0,0,0"/>
		<path class="st36" d="M415.4,277.7c2.7,6.3,22.8,3.6,44.7-5.9c22-9.5,37.6-22.4,34.8-28.7c-0.3-0.6-0.7-1.2-1.4-1.6
			c-4.3-3.2-16.6-2-31.4,2.9c-3.9,1.3-7.9,2.8-12,4.6c-4.1,1.8-8,3.7-11.6,5.6c-13.6,7.4-22.8,15.5-23.6,20.9v0
			C415,276.3,415.1,277,415.4,277.7z"/>
		<path class="st36" d="M415.4,277.7c-1.7-10.5,2.5-20.3-3.3-33.6l-9.3-21.4c-7.3-16.7,0.4-36.2,17.1-43.5
			c16.7-7.3,36.2,0.4,43.5,17.1l9.3,21.4c5.8,13.3,15.8,17,22.3,25.4"/>
		<path class="st36" d="M464.1,243.8c0.1,0.2,0.2,0.5,0.3,0.7c3.2,7.5-0.2,16.1-7.6,19.3c-7.4,3.2-16.1-0.2-19.3-7.6
			c-0.1-0.2-0.2-0.5-0.3-0.7c0,0,0,0,0,0"/>
		<g>
			<path class="st36" d="M382.7,180.5L382.7,180.5c-0.3-0.3-0.6-0.6-0.9-0.9c-1.8-2-3-4.7-3-7.7v-48.4c0-2.3,1.2-4,3-5.2
				c5.8-3.9,18.2-2.2,18.2,5.2c0-7.4,12.4-9.2,18.2-5.2c1.8,1.2,3,3,3,5.2v48.4c0,2.9-1.1,5.6-3,7.7c-0.3,0.3-0.6,0.6-0.9,0.9"/>
			<path class="st36" d="M413.9,182.6C413.9,182.6,413.9,182.6,413.9,182.6c-1.3,0.5-2.8,0.8-4.2,0.8h-19.3c-1.5,0-3-0.3-4.3-0.8h0"
				/>
			<line class="st36" x1="400" y1="123.5" x2="400" y2="145"/>
			<path class="st36" d="M400,154.1L400,154.1L400,154.1z"/>
			<path class="st36" d="M381.8,118.2c-6.1-2.8-13.4-6.2-20.9-9.4c-13.3-5.7-27.1-11-35-12.1c-1.1-0.2-2-0.2-2.9-0.2
				c-16.4,0-29.7,13.3-29.7,29.7c0,7.4,2.7,14.1,7.2,19.3v0"/>
			<path class="st36" d="M300.5,145.5c4.2,4.3,8.1,8.7,11.6,13.3c2.1,2.7,2.4,6.5,0.4,9.4c-1,1.4-2.4,2.5-4.2,2.7"/>
			<path class="st36" d="M381.8,118.2c-6.1-2.8-13.5-6.2-20.9-9.4c-13.4-5.7-27.1-11-35-12.1c-1.1-0.2-2-0.2-2.9-0.2
				c-16.4,0-29.7,13.3-29.7,29.7c0,7.4,2.7,14.1,7.2,19.3v0c1.9,14.7-7.1,22.9-7.1,35.7c0.8,15.6,17,25.6,31.5,20l11.6-4.4"/>
			<path class="st36" d="M378.8,130.1c0,0-46.1,13.7-55.8,13.7c-9.7,0-17.7-7.9-17.7-17.7c0-9.7,7.9-17.7,17.7-17.7
				c1.5,0,3.8,0.5,6.6,1.3c7.5,2.2,18.7,6.8,28.6,11C369.4,125.7,378.8,130.1,378.8,130.1z"/>
			<path class="st36" d="M463.5,196.8l11.6,4.4c14.6,5.6,30.7-4.4,31.5-20c0-1.1-0.1-2.3-0.2-3.3c-0.6-4.7-2.2-8.9-3.8-13.1
				c-0.9-2.4-1.7-4.8-2.4-7.4c-0.9-3.5-1.3-7.4-0.7-11.8"/>
			<path class="st36" d="M418.2,118.2c18.4-8.6,48.4-21.8,58.8-21.8c16.4,0,29.7,13.3,29.7,29.7c0,7.4-2.7,14.1-7.2,19.3v0
				c-4.9,5-9.3,10.1-13.3,15.5"/>
			<path class="st36" d="M494.7,126.1c0,9.8-7.9,17.7-17.7,17.7c-9.8,0-55.8-13.7-55.8-13.7s46.1-21.6,55.8-21.6
				C486.8,108.5,494.7,116.4,494.7,126.1z"/>
			<path class="st37" d="M366.7,164.7c4.6-1.7,8.7-4.1,12.2-7.4"/>
			<path class="st37" d="M378.8,150c-7.4,5.3-16.9,6-27.4,4.6"/>
			<path class="st37" d="M421.2,151.2c5.7,4.2,12.3,6.2,19.7,6.1"/>
			<path class="st37" d="M421.2,158.3c2.3,2.6,4.9,4.9,8.1,6.4"/>
			<path class="st37" d="M447,157.3L447,157.3L447,157.3z"/>
			<path class="st37" d="M500.4,160.5c1.4,8.5-0.8,20.5-5.2,25.6"/>
			<line class="st37" x1="350.8" y1="127.1" x2="366.7" y2="133.6"/>
			<line class="st37" x1="344.7" y1="124.5" x2="344.7" y2="124.5"/>
		</g>
		<path class="st37" d="M418.4,473.8c-1.6,5.1-5.4,8.7-11.5,10.7"/>
		<line class="st37" x1="419.3" y1="468.6" x2="419.3" y2="468.6"/>
		<path class="st36" d="M579.9,240.6L579.9,240.6L579.9,240.6z"/>
		<line class="st37" x1="253.8" y1="197.9" x2="243.3" y2="206"/>
		<line class="st37" x1="258.1" y1="186.6" x2="246.3" y2="195.7"/>
		<line class="st37" x1="515" y1="441.2" x2="505.7" y2="448.4"/>
		<line class="st37" x1="492.2" y1="451.1" x2="505.9" y2="440.5"/>
		<path class="st37" d="M563.4,335.6c3.5-4.3,4.7-9.5,3.1-15.6"/>
		<path class="st36" d="M219.1,307.1c-6,12.1-24.9-4-10.5-12"/>
		<path class="st36" d="M335.2,269.6c-0.5,22.1-0.3,59.5,0.3,74.9c0.1,1.8,2.4,2.5,3.5,1.1l14-18.3c1.7-2.2,5.1-2.2,6.7,0.2
			l16.7,24.1c1.1,1.6,3.5,0.8,3.5-1.1c-0.2-13.6-0.3-50.5,0.1-69.9"/>
		<path class="st36" d="M464.8,269.6c0.5,22.1,0.3,59.5-0.3,74.9c-0.1,1.8-2.4,2.5-3.5,1.1l-14-18.3c-1.7-2.2-5.1-2.2-6.7,0.2
			l-16.7,24.1c-1.1,1.6-3.5,0.8-3.5-1.1c0.2-13.6,0.3-50.5-0.1-69.8"/>
		<path class="st36" d="M297.6,98.9c-4.8-14,20-17.9,20.9-6.5c6.2-11,14.7-10.1,24.5-6c-4.7-17.1,13.9-18.8,12.8-2.5
			c3.9-5.9,11.4-6.5,20.6-6.2"/>
		<path class="st36" d="M538.2,129.8c13.9-2.2,23.3,8,20.9,16.4c20.5-6.4,29,13.2,13.9,24.8c11.4-0.5,15.9,11.2,8.9,18.3
			c14,0.6,19.1,13.5,13.2,27.9c17.7-7,19,17.4,6.2,15.7"/>
		<path class="st36" d="M520.4,114.9c0-11.4-8.8-16.9-15.8-9c9-16-16.9-30.7-26-14.7c-3.7-25-25.8-27-40-11.6
			c-4.7-6.9-10-6.8-15.7-3"/>
		<path class="st36" d="M573,251.7l4.8,9.8c0.3,0.5,0.8,0.9,1.4,1l10.8,1.6c1.5,0.2,2.1,2,1,3.1l-7.8,7.6c-0.4,0.4-0.6,1-0.5,1.6
			l1.8,10.8c0.3,1.5-1.3,2.6-2.6,1.9l-9.7-5.1c-0.5-0.3-1.2-0.3-1.7,0l-9.7,5.1c-1.3,0.7-2.9-0.4-2.6-1.9l1.8-10.8
			c0.1-0.6-0.1-1.2-0.5-1.6l-7.8-7.6c-1.1-1.1-0.5-2.9,1-3.1l10.8-1.6c0.6-0.1,1.1-0.5,1.4-1l4.8-9.8
			C570.4,250.4,572.3,250.4,573,251.7z"/>
		<path class="st36" d="M479,401.7l4.8,9.8c0.3,0.5,0.8,0.9,1.4,1L496,414c1.5,0.2,2.1,2,1,3.1l-7.8,7.6c-0.4,0.4-0.6,1-0.5,1.6
			l1.8,10.8c0.3,1.5-1.3,2.6-2.6,1.9l-9.7-5.1c-0.5-0.3-1.2-0.3-1.7,0l-9.7,5.1c-1.3,0.7-2.9-0.4-2.6-1.9l1.8-10.8
			c0.1-0.6-0.1-1.2-0.5-1.6l-7.8-7.6c-1.1-1.1-0.5-2.9,1-3.1l10.8-1.6c0.6-0.1,1.1-0.5,1.4-1l4.8-9.8
			C476.4,400.3,478.3,400.3,479,401.7z"/>
		<path class="st36" d="M311.6,436.2l4.8,9.8c0.3,0.5,0.8,0.9,1.4,1l10.8,1.6c1.5,0.2,2.1,2,1,3.1l-7.8,7.6c-0.4,0.4-0.6,1-0.5,1.6
			l1.8,10.8c0.3,1.5-1.3,2.6-2.6,1.9l-9.7-5.1c-0.5-0.3-1.2-0.3-1.7,0l-9.7,5.1c-1.3,0.7-2.9-0.4-2.6-1.9l1.8-10.8
			c0.1-0.6-0.1-1.2-0.5-1.6l-7.8-7.6c-1.1-1.1-0.5-2.9,1-3.1l10.8-1.6c0.6-0.1,1.1-0.5,1.4-1l4.8-9.8
			C309,434.8,310.9,434.8,311.6,436.2z"/>
		<path class="st36" d="M290.2,351.8l4.8,9.8c0.3,0.5,0.8,0.9,1.4,1l10.8,1.6c1.5,0.2,2.1,2,1,3.1l-7.8,7.6c-0.4,0.4-0.6,1-0.5,1.6
			l1.8,10.8c0.3,1.5-1.3,2.6-2.6,1.9l-9.7-5.1c-0.5-0.3-1.2-0.3-1.7,0l-9.7,5.1c-1.3,0.7-2.9-0.4-2.6-1.9l1.8-10.8
			c0.1-0.6-0.1-1.2-0.5-1.6l-7.8-7.6c-1.1-1.1-0.5-2.9,1-3.1l10.8-1.6c0.6-0.1,1.1-0.5,1.4-1l4.8-9.8
			C287.6,350.5,289.5,350.5,290.2,351.8z"/>
		<path class="st36" d="M235.4,207.9l4.8,9.8c0.3,0.5,0.8,0.9,1.4,1l10.8,1.6c1.5,0.2,2.1,2,1,3.1l-7.8,7.6c-0.4,0.4-0.6,1-0.5,1.6
			l1.8,10.8c0.3,1.5-1.3,2.6-2.6,1.9l-9.7-5.1c-0.5-0.3-1.2-0.3-1.7,0l-9.7,5.1c-1.3,0.7-2.9-0.4-2.6-1.9l1.8-10.8
			c0.1-0.6-0.1-1.2-0.5-1.6l-7.8-7.6c-1.1-1.1-0.5-2.9,1-3.1l10.8-1.6c0.6-0.1,1.1-0.5,1.4-1l4.8-9.8
			C232.8,206.6,234.7,206.6,235.4,207.9z"/>
		<path class="st36" d="M528.5,105.1l4.8,9.8c0.3,0.5,0.8,0.9,1.4,1l10.8,1.6c1.5,0.2,2.1,2,1,3.1l-7.8,7.6c-0.4,0.4-0.6,1-0.5,1.6
			l1.8,10.8c0.3,1.5-1.3,2.6-2.6,1.9l-9.7-5.1c-0.5-0.3-1.2-0.3-1.7,0l-9.7,5.1c-1.3,0.7-2.9-0.4-2.6-1.9l1.8-10.8
			c0.1-0.6-0.1-1.2-0.5-1.6l-7.8-7.6c-1.1-1.1-0.5-2.9,1-3.1l10.8-1.6c0.6-0.1,1.1-0.5,1.4-1l4.8-9.8
			C526,103.7,527.9,103.7,528.5,105.1z"/>
		<path class="st36" d="M195.5,228.8c-14.3-1.7-15.6,10.1-1.4,11.7"/>
		<line class="st37" x1="371.7" y1="316.3" x2="379.7" y2="324.4"/>
		<line class="st37" x1="368.7" y1="303.8" x2="379.6" y2="314.7"/>
		<line class="st37" x1="457" y1="316.2" x2="465.2" y2="324.4"/>
		<path class="st37" d="M263.4,337.3c5.8-2.2,9.4-6.1,11-11.8"/>
		<path class="st37" d="M463.8,223.6c3.4,6.6,7.5,12.3,12.7,17.1"/>
		<line class="st37" x1="461.2" y1="218.1" x2="461.2" y2="218.1"/>
		<path class="st37" d="M462.6,235.7c2.1,3.1,3.4,4.8,5.8,6.9"/>
		<path class="st37" d="M376.9,252c-0.6,3.7-0.8,7.7-0.6,11.8"/>
	</g>
</g>
<g id="lights">
	<path class="st19" d="M382.1,232.1c-9.4,0-16.9-7.6-16.9-16.9c0,9.4-7.6,16.9-16.9,16.9c9.4,0,16.9,7.6,16.9,16.9
		C365.2,239.7,372.8,232.1,382.1,232.1z"/>
	<path class="st19" d="M367.6,475.4c-8.3,0-15-6.7-15-15c0,8.3-6.7,15-15,15c8.3,0,15,6.7,15,15
		C352.5,482.2,359.3,475.4,367.6,475.4z"/>
	<path class="st19" d="M379.7,259.9c-4.7,0-8.5-3.8-8.5-8.5c0,4.7-3.8,8.5-8.5,8.5c4.7,0,8.5,3.8,8.5,8.5
		C371.3,263.7,375.1,259.9,379.7,259.9z"/>
	<path class="st19" d="M586.9,320.3c-3.8,0-6.9-3.1-6.9-6.9c0,3.8-3.1,6.9-6.9,6.9c3.8,0,6.9,3.1,6.9,6.9
		C579.9,323.5,583,320.3,586.9,320.3z"/>
	<path class="st19" d="M456.7,245.8c-3.9,0-7.1-3.2-7.1-7.1c0,3.9-3.2,7.1-7.1,7.1c3.9,0,7.1,3.2,7.1,7.1
		C449.6,249,452.8,245.8,456.7,245.8z"/>
	<path class="st19" d="M426.4,430.8c-5.8,0-10.5-4.7-10.5-10.5c0,5.8-4.7,10.5-10.5,10.5c5.8,0,10.5,4.7,10.5,10.5
		C415.9,435.6,420.6,430.8,426.4,430.8z"/>
	<path class="st19" d="M358.1,171.6c-4.9,0-8.9-4-8.9-8.9c0,4.9-4,8.9-8.9,8.9c4.9,0,8.9,4,8.9,8.9
		C349.2,175.6,353.2,171.6,358.1,171.6z"/>
	<path class="st19" d="M593.7,347.6c-6.1,0-11-4.9-11-11c0,6.1-4.9,11-11,11c6.1,0,11,4.9,11,11
		C582.7,352.6,587.6,347.6,593.7,347.6z"/>
	<path class="st19" d="M257.3,336.6c-6.1,0-11-4.9-11-11c0,6.1-4.9,11-11,11c6.1,0,11,4.9,11,11
		C246.3,341.6,251.2,336.6,257.3,336.6z"/>
	<path class="st19" d="M244.3,182.9c-6.1,0-11-4.9-11-11c0,6.1-4.9,11-11,11c6.1,0,11,4.9,11,11
		C233.3,187.8,238.2,182.9,244.3,182.9z"/>
	<path class="st19" d="M346,453c-3.1,0-5.7-2.5-5.7-5.7c0,3.1-2.5,5.7-5.7,5.7c3.1,0,5.7,2.5,5.7,5.7C340.3,455.6,342.8,453,346,453
		z"/>
	<path class="st19" d="M281.5,303.3c-4.3,0-7.7-3.5-7.7-7.7c0,4.3-3.5,7.7-7.7,7.7c4.3,0,7.7,3.5,7.7,7.7
		C273.7,306.7,277.2,303.3,281.5,303.3z"/>
	<path class="st19" d="M557.2,159c-4.2,0-7.7-3.4-7.7-7.7c0,4.2-3.4,7.7-7.7,7.7c4.2,0,7.7,3.4,7.7,7.7
		C549.5,162.5,553,159,557.2,159z"/>
</g>
</svg>
