<?xml version="1.0" encoding="utf-8"?>
<!-- Generator: Adobe Illustrator 21.0.0, SVG Export Plug-In . SVG Version: 6.00 Build 0)  -->
<svg version="1.1" id="cookie-guy" xmlns="http://www.w3.org/2000/svg" xmlns:xlink="http://www.w3.org/1999/xlink" x="0px" y="0px"
	 viewBox="0 0 800 600" style="enable-background:new 0 0 800 600;" xml:space="preserve">
<style type="text/css">
	.st0{fill:#DB7D4F;}
	.st1{fill:#FFFEF8;}
	.st2{fill:#80F7FF;}
	.st3{fill:#FF594D;}
	.st4{fill:#EB6A6F;}
	.st5{opacity:0.5;fill:#FFFFFF;}
	.st6{opacity:0.25;}
	.st7{opacity:0.2;}
	.st8{opacity:0.15;}
	.st9{opacity:0.5;}
	.st10{fill:#FFFFFF;}
	.st11{fill:none;stroke:#02385E;stroke-width:4;stroke-linecap:round;stroke-linejoin:round;stroke-miterlimit:10;}
</style>
<g id="color">
	<g id="XMLID_1_">
		<g>
			<path class="st0" d="M519.7,262.1c7.5,12.9,3,29.4-9.9,36.9l-5.6,3.3c0.8-2.5,0.5-5.2-0.9-7.6c-1.8-3.2-5.2-5-8.9-4.8
				c-0.8,0.1-1.3-0.5-1.5-0.8c-0.2-0.3-0.4-1,0-1.7c2-3.1,2.1-6.9,0.3-10.1c-1.8-3.2-5.2-5-8.9-4.8c-0.9,0.1-1.3-0.5-1.5-0.8
				c-0.2-0.3-0.4-1,0-1.7c2-3.1,2.1-6.9,0.3-10.1c-1.4-2.4-3.6-4-6.1-4.6l5.7-3.3c4.2-2.5,8.9-3.6,13.5-3.6
				C505.7,248.6,514.7,253.4,519.7,262.1z"/>
			<path class="st1" d="M503.3,294.6c1.4,2.3,1.6,5.1,0.9,7.6c-0.3,0.9-0.7,1.7-1.2,2.5c-0.8,1.2-2,1.8-3.3,1.8
				c-0.7,0-1.4-0.2-2-0.5c-0.1,0-0.1-0.1-0.2-0.1c-1.8-1.2-2.4-3.7-1.1-5.5c0.5-0.7,0.2-1.4,0-1.7c-0.2-0.3-0.6-0.9-1.5-0.8
				c-3.6,0.2-7-1.6-8.9-4.8c-1.8-3.2-1.7-7,0.3-10.1c0.5-0.7,0.2-1.4,0-1.7c-0.2-0.3-0.6-0.9-1.5-0.8c-3.7,0.2-7-1.6-8.9-4.8
				c-1.8-3.2-1.7-7,0.3-10.1c0.5-0.7,0.2-1.4,0-1.7c-0.2-0.3-0.6-0.9-1.5-0.8c-2.2,0.1-4.1-1.5-4.2-3.8c0-0.1,0-0.2,0-0.2v0
				c0-2.1,1.6-3.9,3.8-4c0.9-0.1,1.9,0,2.7,0.2c2.6,0.6,4.8,2.2,6.1,4.6c1.8,3.2,1.7,7-0.3,10.1c-0.5,0.7-0.2,1.4,0,1.7
				c0.2,0.3,0.6,0.9,1.5,0.8c3.7-0.2,7,1.6,8.9,4.8c1.8,3.2,1.7,7-0.3,10.1c-0.5,0.7-0.2,1.4,0,1.7c0.2,0.3,0.6,0.8,1.5,0.8
				C498.1,289.6,501.5,291.5,503.3,294.6z"/>
			<path class="st0" d="M497.5,305.9c0.1,0,0.1,0.1,0.2,0.1l-25.8,14.9c-6.8,3.9-12.3,9.5-16.1,16c-3.8,6.6-5.9,14.1-5.9,21.9
				c0,5,0.9,10,2.6,14.8c-0.9-0.2-1.7-0.4-2.6-0.4c-3.7,0-6.9,2-8.6,5.3c-0.4,0.8-1,0.9-1.4,0.9c-0.4,0-1-0.1-1.4-0.9
				c-1.6-3.3-4.9-5.3-8.6-5.3c-3.7,0-6.9,2-8.6,5.3c-0.4,0.8-1,0.9-1.4,0.9c-0.4,0-1-0.1-1.4-0.9c-1.6-3.3-4.9-5.3-8.6-5.3
				c-3.7,0-6.9,2-8.6,5.3c-0.4,0.8-1,0.9-1.4,0.9c-0.4,0-1-0.1-1.4-0.9c-1.6-3.3-4.9-5.3-8.6-5.3c-3.7,0-6.9,2-8.6,5.3
				c-0.4,0.8-1,0.9-1.4,0.9c-0.4,0-1-0.1-1.4-0.9c-1.6-3.3-4.9-5.3-8.6-5.3c-3.7,0-6.9,2-8.6,5.3c-0.4,0.8-1,0.9-1.4,0.9
				c-0.4,0-1-0.1-1.4-0.9c-1.6-3.3-4.9-5.3-8.6-5.3c-0.8,0-1.7,0.1-2.5,0.3c0.6-1.7,1.1-3.5,1.5-5.2c0.7-3.1,1-6.3,1-9.5
				c0-15.7-8.4-30.1-21.9-38L302.3,306c0.1,0,0.1-0.1,0.2-0.1c1.8-1.2,2.4-3.7,1.1-5.5c-0.5-0.7-0.2-1.4,0-1.7
				c0.2-0.3,0.6-0.9,1.5-0.8c3.6,0.2,7-1.6,8.9-4.8c1.8-3.2,1.7-7-0.3-10.1c-0.5-0.7-0.2-1.4,0-1.7c0.2-0.3,0.6-0.9,1.5-0.8
				c3.7,0.2,7-1.6,8.9-4.8c1.8-3.2,1.7-7-0.3-10.1c-0.5-0.7-0.2-1.4,0-1.7c0.2-0.3,0.6-0.9,1.5-0.8c2.2,0.1,4.1-1.5,4.2-3.8
				c0-0.1,0-0.2,0-0.2l22.3,12.9c8.8,5.1,17.7-6.1,11.3-13.5c-0.2-0.2-0.4-0.4-0.5-0.6l-2.8-2.8l-0.1-0.1
				c-9-9.8-14.5-22.8-14.5-37.2c0-30.4,24.6-55,55-55c30.4,0,55,24.6,55,55c0,14.4-5.5,27.4-14.5,37.2l-0.1,0.1l-2.8,2.8
				c-0.2,0.2-0.4,0.4-0.5,0.6c-6.4,7.4,2.4,18.6,11.3,13.5l22.3-12.9c0,0.1,0,0.2,0,0.2c0.1,2.2,2,3.9,4.2,3.8
				c0.9-0.1,1.3,0.5,1.5,0.8c0.2,0.3,0.4,1,0,1.7c-2,3-2.1,6.9-0.3,10.1c1.8,3.2,5.2,5,8.9,4.8c0.9,0,1.3,0.5,1.5,0.8
				c0.2,0.3,0.4,0.9,0,1.7c-2,3.1-2.1,6.9-0.3,10.1c1.8,3.2,5.2,5,8.9,4.8c0.9,0,1.3,0.5,1.5,0.8c0.2,0.3,0.4,0.9,0,1.7
				C495.1,302.1,495.6,304.6,497.5,305.9z M435.8,202c1.9-0.7,3-2.8,2.3-4.7c-1.3-3.9-3.8-7.1-7.2-9.3c-3.4-2.2-7.4-3.3-11.4-2.9
				c-2,0.2-3.6,1.9-3.4,4c0.2,2,2,3.6,4,3.4c2.4-0.2,4.8,0.4,6.8,1.8c2,1.3,3.5,3.2,4.3,5.5C431.7,201.6,433.8,202.6,435.8,202z
				 M431.5,218c0-3.3-2.7-6-6-6c-3.3,0-6,2.7-6,6s2.7,6,6,6C428.8,224,431.5,221.3,431.5,218z M424.6,286.6l0-10
				c0-5.3-5.5-8.8-10.3-6.6l-9.8,5.9c-2.8,1.7-6.3,1.7-9.1,0l-9.8-5.9c-4.8-2.2-10.3,1.3-10.3,6.6v10c0,5.3,5.5,8.8,10.3,6.6
				l9.8-5.9c2.8-1.7,6.3-1.7,9.1,0l9.8,5.9C419.1,295.4,424.6,291.9,424.6,286.6z M421.4,246c3.1-2.4,3.6-6.9,1.2-9.9
				s-6.9-3.6-9.9-1.2c-3.6,2.8-8,4.3-12.7,4.3s-9-1.5-12.7-4.3c-3.1-2.4-7.5-1.9-9.9,1.2s-1.9,7.5,1.2,9.9
				c6.2,4.8,13.5,7.3,21.4,7.3S415.2,250.8,421.4,246z M407,314.4c0-3.9-3.1-7-7-7s-7,3.1-7,7c0,3.9,3.1,7,7,7S407,318.3,407,314.4z
				 M407,348.4c0-3.9-3.1-7-7-7s-7,3.1-7,7c0,3.9,3.1,7,7,7S407,352.3,407,348.4z M384,189c0.2-2-1.4-3.8-3.4-4
				c-4.1-0.3-8,0.7-11.4,2.9c-3.4,2.2-5.9,5.5-7.2,9.3c-0.7,1.9,0.4,4,2.3,4.7c1.9,0.7,4.1-0.4,4.7-2.3c0.8-2.3,2.3-4.2,4.3-5.5
				c2-1.3,4.4-1.9,6.8-1.8C382,192.6,383.8,191,384,189z M380.5,218c0-3.3-2.7-6-6-6c-3.3,0-6,2.7-6,6s2.7,6,6,6
				C377.8,224,380.5,221.3,380.5,218z"/>
			<path class="st0" d="M482.2,437.5c1.9,4.1,2.8,8.4,2.8,12.6c0,3.5-0.6,7-1.8,10.3c-2.6,7.2-8,13.4-15.5,16.9
				c-15,7-32.9,0.5-39.9-14.5l-2.7-5.8c1.6-0.4,2.9-1.9,2.9-3.7c0-0.9,0.6-1.2,0.9-1.4c0.3-0.2,1-0.3,1.7,0.2
				c2.9,2.3,6.7,2.7,10,1.2c3.3-1.5,5.4-4.8,5.5-8.4c0-0.9,0.6-1.2,0.9-1.4c0.3-0.1,1-0.3,1.7,0.2c2.9,2.3,6.7,2.7,10,1.2
				c3.3-1.5,5.4-4.8,5.5-8.4c0-0.9,0.6-1.2,0.9-1.4c0.3-0.1,1-0.3,1.7,0.2c2.9,2.3,6.7,2.7,10,1.2c1.4-0.7,2.6-1.6,3.5-2.8
				L482.2,437.5z"/>
			<path class="st1" d="M478.5,423.9c2.2,0.1,4,1.9,3.9,4.1c-0.1,2.1-0.8,4.1-2,5.6c-0.9,1.2-2.1,2.1-3.5,2.8
				c-3.3,1.5-7.1,1.1-10-1.2c-0.7-0.5-1.3-0.3-1.7-0.2c-0.3,0.2-0.9,0.5-0.9,1.4c-0.1,3.6-2.2,6.9-5.5,8.4c-3.3,1.5-7.1,1.1-10-1.2
				c-0.7-0.5-1.3-0.4-1.7-0.2c-0.3,0.2-0.9,0.6-0.9,1.4c-0.1,3.7-2.2,6.9-5.5,8.4c-3.3,1.5-7.1,1.1-10-1.2c-0.7-0.5-1.3-0.4-1.7-0.2
				c-0.3,0.1-0.9,0.5-0.9,1.4c0,1.8-1.3,3.3-2.9,3.7c-0.3,0.1-0.7,0.1-1.1,0.1c0,0-0.1,0-0.1,0c-2.2-0.1-4-1.9-3.9-4.1
				c0-1.6,0.5-3.1,1.2-4.4c1-1.8,2.5-3.2,4.4-4c3.3-1.6,7.1-1.1,10,1.2c0.7,0.5,1.3,0.3,1.7,0.2c0.3-0.1,0.9-0.5,0.9-1.4
				c0.1-3.7,2.2-6.9,5.5-8.4c3.3-1.5,7.2-1.1,10,1.2c0.7,0.5,1.3,0.3,1.7,0.2c0.3-0.2,0.9-0.5,0.9-1.4c0.1-3.6,2.2-6.9,5.5-8.4
				c3.3-1.5,7.1-1.1,10,1.2c0.7,0.5,1.3,0.4,1.7,0.2c0.3-0.2,0.9-0.6,0.9-1.4c0-1.3,0.7-2.5,1.8-3.2c0.6-0.4,1.4-0.7,2.2-0.7
				C478.5,423.9,478.5,423.9,478.5,423.9z"/>
			<path class="st0" d="M457.1,383.7l19.1,40.9c-1,0.7-1.7,1.9-1.8,3.2c0,0.9-0.6,1.2-0.9,1.4c-0.3,0.1-1,0.3-1.7-0.2
				c-2.9-2.3-6.7-2.7-10-1.2c-3.3,1.5-5.4,4.8-5.5,8.4c0,0.9-0.6,1.2-0.9,1.4c-0.3,0.1-1,0.3-1.7-0.2c-2.9-2.3-6.7-2.7-10-1.2
				c-3.3,1.6-5.4,4.8-5.5,8.4c0,0.9-0.6,1.2-0.9,1.4c-0.3,0.1-1,0.3-1.7-0.2c-2.9-2.3-6.7-2.7-10-1.2c-1.9,0.9-3.4,2.3-4.4,4l-14-30
				c-2.9-6.2-11.6-6.2-14.5,0L379,448.4c-1-1.5-2.4-2.8-4.1-3.6c-3.3-1.6-7.1-1.1-10,1.2c-0.7,0.5-1.3,0.4-1.7,0.2
				c-0.3-0.1-0.9-0.5-0.9-1.4c-0.1-3.7-2.2-6.9-5.5-8.4c-3.3-1.5-7.1-1.1-10,1.2c-0.7,0.5-1.3,0.3-1.7,0.2c-0.3-0.2-0.9-0.5-0.9-1.4
				c-0.1-3.6-2.2-6.9-5.5-8.4c-3.3-1.5-7.1-1.1-10,1.2c-0.7,0.5-1.3,0.4-1.7,0.2c-0.3-0.2-0.9-0.6-0.9-1.4c0-1.5-0.9-2.8-2.1-3.4
				l19-40.7c0.1,0,0.1,0.1,0.2,0.1c2,1,4.4,0.2,5.4-1.8c0.4-0.8,1-0.9,1.4-0.9c0.4,0,1,0.1,1.4,0.9c1.6,3.3,4.9,5.3,8.6,5.3
				c3.7,0,6.9-2,8.6-5.3c0.4-0.8,1-0.9,1.4-0.9c0.4,0,1,0.1,1.4,0.9c1.6,3.3,4.9,5.3,8.6,5.3c3.7,0,6.9-2,8.6-5.3
				c0.4-0.8,1-0.9,1.4-0.9c0.4,0,1,0.1,1.4,0.9c1.6,3.3,4.9,5.3,8.6,5.3c3.7,0,6.9-2,8.6-5.3c0.4-0.8,1-0.9,1.4-0.9
				c0.4,0,1,0.1,1.4,0.9c1.6,3.3,4.9,5.3,8.6,5.3c3.7,0,6.9-2,8.6-5.3c0.4-0.8,1-0.9,1.4-0.9c0.4,0,1,0.1,1.4,0.9
				c1.6,3.3,4.9,5.3,8.6,5.3c3.7,0,6.9-2,8.6-5.3c0.4-0.8,1-0.9,1.4-0.9c0.4,0,1,0.1,1.4,0.9c1,2,3.4,2.8,5.4,1.8
				C456.8,383.8,457,383.7,457.1,383.7z"/>
			<path class="st1" d="M458.5,378.5c0.9,1.9,0.3,4.1-1.4,5.2c-0.1,0.1-0.2,0.1-0.4,0.2c-2,1-4.4,0.2-5.4-1.8
				c-0.4-0.8-1-0.9-1.4-0.9c-0.4,0-1,0.1-1.4,0.9c-1.6,3.3-4.9,5.3-8.6,5.3c-3.7,0-6.9-2-8.6-5.3c-0.4-0.8-1-0.9-1.4-0.9
				c-0.4,0-1,0.1-1.4,0.9c-1.6,3.3-4.9,5.3-8.6,5.3c-3.7,0-6.9-2-8.6-5.3c-0.4-0.8-1-0.9-1.4-0.9c-0.4,0-1,0.1-1.4,0.9
				c-1.6,3.3-4.9,5.3-8.6,5.3c-3.7,0-6.9-2-8.6-5.3c-0.4-0.8-1-0.9-1.4-0.9c-0.4,0-1,0.1-1.4,0.9c-1.6,3.3-4.9,5.3-8.6,5.3
				c-3.7,0-6.9-2-8.6-5.3c-0.4-0.8-1-0.9-1.4-0.9c-0.4,0-1,0.1-1.4,0.9c-1.6,3.3-4.9,5.3-8.6,5.3c-3.7,0-6.9-2-8.6-5.3
				c-0.4-0.8-1-0.9-1.4-0.9c-0.4,0-1,0.1-1.4,0.9c-1,2-3.4,2.8-5.4,1.8c-0.1,0-0.1-0.1-0.2-0.1c-1.8-1-2.5-3.3-1.6-5.2
				c1.3-2.5,3.5-4.3,6.1-5c0.8-0.2,1.6-0.3,2.5-0.3c3.7,0,6.9,2,8.6,5.3c0.4,0.8,1,0.9,1.4,0.9c0.4,0,1-0.1,1.4-0.9
				c1.6-3.3,4.9-5.3,8.6-5.3c3.7,0,6.9,2,8.6,5.3c0.4,0.8,1,0.9,1.4,0.9c0.4,0,1-0.1,1.4-0.9c1.6-3.3,4.9-5.3,8.6-5.3
				c3.7,0,6.9,2,8.6,5.3c0.4,0.8,1,0.9,1.4,0.9c0.4,0,1-0.1,1.4-0.9c1.6-3.3,4.9-5.3,8.6-5.3c3.7,0,6.9,2,8.6,5.3
				c0.4,0.8,1,0.9,1.4,0.9c0.4,0,1-0.1,1.4-0.9c1.6-3.3,4.9-5.3,8.6-5.3c3.7,0,6.9,2,8.6,5.3c0.4,0.8,1,0.9,1.4,0.9
				c0.4,0,1-0.1,1.4-0.9c1.6-3.3,4.9-5.3,8.6-5.3c0.9,0,1.8,0.1,2.6,0.4C455.1,374.3,457.3,376,458.5,378.5z"/>
			<path class="st0" d="M437.6,258l2.8-2.8c-1.1,1.2-2.2,2.3-3.4,3.3C437.3,258.4,437.5,258.2,437.6,258z"/>
			<path class="st2" d="M438.1,197.3c0.7,1.9-0.4,4-2.3,4.7c-1.9,0.7-4.1-0.4-4.7-2.3c-0.8-2.3-2.3-4.2-4.3-5.5
				c-2-1.3-4.4-1.9-6.8-1.8c-2,0.2-3.8-1.4-4-3.4c-0.2-2,1.4-3.8,3.4-4c4.1-0.3,8,0.7,11.4,2.9C434.3,190.2,436.8,193.4,438.1,197.3
				z"/>
			<path class="st1" d="M425.5,212c3.3,0,6,2.7,6,6s-2.7,6-6,6c-3.3,0-6-2.7-6-6S422.2,212,425.5,212z"/>
			<path class="st3" d="M424.6,276.6l0,10c0,5.3-5.5,8.8-10.3,6.6l-9.8-5.9c-2.8-1.7-6.3-1.7-9.1,0l-9.8,5.9
				c-4.8,2.2-10.3-1.3-10.3-6.6v-10c0-5.3,5.5-8.8,10.3-6.6l9.8,5.9c2.8,1.7,6.3,1.7,9.1,0l9.8-5.9
				C419.1,267.8,424.6,271.3,424.6,276.6z M417,283.5v-3.7c0-1.4-1.5-2.4-2.8-1.7l-3.7,1.9c-1.4,0.7-1.4,2.8,0,3.5l3.7,1.9
				C415.4,285.8,417,284.9,417,283.5z M389.6,283.3c1.4-0.7,1.4-2.8,0-3.5l-3.7-1.9c-1.3-0.6-2.8,0.3-2.8,1.7v3.7
				c0,1.4,1.5,2.4,2.8,1.7L389.6,283.3z"/>
			<path class="st4" d="M422.6,236.1c2.4,3.1,1.9,7.5-1.2,9.9c-6.2,4.8-13.5,7.3-21.4,7.3s-15.2-2.5-21.4-7.3
				c-3.1-2.4-3.6-6.9-1.2-9.9s6.9-3.6,9.9-1.2c3.6,2.8,8,4.3,12.7,4.3s9-1.5,12.7-4.3C415.8,232.4,420.2,233,422.6,236.1z"/>
			<path class="st0" d="M417,279.7v3.7c0,1.4-1.5,2.4-2.8,1.7l-3.7-1.9c-1.4-0.7-1.4-2.8,0-3.5l3.7-1.9
				C415.4,277.4,417,278.3,417,279.7z"/>
			<path class="st3" d="M400,307.4c3.9,0,7,3.1,7,7c0,3.9-3.1,7-7,7s-7-3.1-7-7C393,310.6,396.1,307.4,400,307.4z"/>
			<path class="st3" d="M400,341.4c3.9,0,7,3.1,7,7c0,3.9-3.1,7-7,7s-7-3.1-7-7C393,344.6,396.1,341.4,400,341.4z"/>
			<path class="st0" d="M389.6,279.9c1.4,0.7,1.4,2.8,0,3.5l-3.7,1.9c-1.3,0.6-2.8-0.3-2.8-1.7v-3.7c0-1.4,1.5-2.4,2.8-1.7
				L389.6,279.9z"/>
			<path class="st2" d="M380.6,185c2,0.2,3.6,1.9,3.4,4c-0.2,2-2,3.6-4,3.4c-2.4-0.2-4.8,0.4-6.8,1.8c-2,1.3-3.5,3.2-4.3,5.5
				c-0.6,1.9-2.8,3-4.7,2.3c-1.9-0.7-3-2.8-2.3-4.7c1.3-3.9,3.8-7.1,7.2-9.3C372.6,185.7,376.5,184.7,380.6,185z"/>
			<path class="st1" d="M380.4,453.2c0.1,2.2-1.7,4-3.9,4.1c0,0-0.1,0-0.1,0c-0.5,0-1-0.1-1.5-0.3c-1.5-0.6-2.5-2-2.5-3.6
				c0-0.9-0.6-1.2-0.9-1.4c-0.3-0.2-1-0.3-1.7,0.2c-2.9,2.3-6.7,2.7-10,1.2c-3.3-1.5-5.4-4.8-5.5-8.4c0-0.9-0.6-1.2-0.9-1.4
				c-0.3-0.1-1-0.3-1.7,0.2c-2.9,2.3-6.7,2.7-10,1.2c-3.3-1.5-5.4-4.8-5.5-8.4c0-0.9-0.6-1.2-0.9-1.4c-0.3-0.1-1-0.3-1.7,0.2
				c-2.9,2.3-6.7,2.7-10,1.2c-1.6-0.7-2.8-1.8-3.8-3.2c-1.1-1.5-1.7-3.3-1.8-5.3c-0.1-2.2,1.7-4,3.9-4.1c0,0,0.1,0,0.1,0
				c0.7,0,1.3,0.2,1.9,0.5c1.2,0.7,2,1.9,2.1,3.4c0,0.9,0.6,1.2,0.9,1.4c0.3,0.1,1,0.3,1.7-0.2c2.9-2.3,6.7-2.7,10-1.2
				c3.3,1.5,5.4,4.8,5.5,8.4c0,0.9,0.6,1.2,0.9,1.4c0.3,0.1,1,0.3,1.7-0.2c2.9-2.3,6.7-2.7,10-1.2c3.3,1.6,5.4,4.8,5.5,8.4
				c0,0.9,0.6,1.2,0.9,1.4c0.3,0.2,1,0.3,1.7-0.2c2.9-2.3,6.7-2.7,10-1.2c1.7,0.8,3.1,2.1,4.1,3.6
				C379.9,449.8,380.4,451.4,380.4,453.2z"/>
			<path class="st1" d="M374.5,212c3.3,0,6,2.7,6,6s-2.7,6-6,6c-3.3,0-6-2.7-6-6S371.2,212,374.5,212z"/>
			<path class="st0" d="M375,457l-2.7,5.9c-7,15-24.9,21.5-39.9,14.5c-7.5-3.5-12.9-9.7-15.5-16.9c-1.2-3.3-1.8-6.8-1.8-10.3
				c0-4.2,0.9-8.5,2.8-12.6l2-4.2c0.9,1.3,2.2,2.4,3.8,3.2c3.3,1.5,7.1,1.1,10-1.2c0.7-0.5,1.3-0.3,1.7-0.2c0.3,0.2,0.9,0.5,0.9,1.4
				c0.1,3.6,2.2,6.9,5.5,8.4c3.3,1.6,7.2,1.1,10-1.2c0.7-0.5,1.3-0.4,1.7-0.2c0.3,0.2,0.9,0.6,0.9,1.4c0.1,3.7,2.2,6.9,5.5,8.4
				c3.3,1.5,7.1,1.1,10-1.2c0.7-0.5,1.3-0.4,1.7-0.2c0.3,0.1,0.9,0.5,0.9,1.4C372.5,455,373.5,456.4,375,457z"/>
			<path class="st0" d="M362.4,258c0.2,0.2,0.4,0.4,0.5,0.6c-1.2-1.1-2.3-2.2-3.4-3.3L362.4,258z"/>
			<path class="st1" d="M329.3,259.2L329.3,259.2c0,0.1,0,0.2,0,0.2c-0.1,2.2-2,3.9-4.2,3.8c-0.9-0.1-1.3,0.5-1.5,0.8
				c-0.2,0.3-0.4,1,0,1.7c2,3,2.1,6.9,0.3,10.1c-1.8,3.2-5.2,5-8.9,4.8c-0.9,0-1.3,0.5-1.5,0.8c-0.2,0.3-0.4,0.9,0,1.7
				c2,3.1,2.1,6.9,0.3,10.1c-1.8,3.2-5.2,5-8.9,4.8c-0.9,0-1.3,0.5-1.5,0.8c-0.2,0.3-0.4,0.9,0,1.7c1.2,1.8,0.7,4.3-1.1,5.5
				c-0.1,0-0.1,0.1-0.2,0.1c-0.6,0.4-1.3,0.5-2,0.5c-1.3,0-2.6-0.6-3.3-1.8c-0.5-0.8-0.9-1.6-1.2-2.5c-0.8-2.5-0.5-5.2,0.9-7.6
				c1.8-3.2,5.2-5,8.9-4.8c0.8,0.1,1.3-0.5,1.5-0.8c0.2-0.3,0.4-1,0-1.7c-2-3.1-2.1-6.9-0.3-10.1c1.8-3.2,5.2-5,8.9-4.8
				c0.9,0.1,1.3-0.5,1.5-0.8c0.2-0.3,0.4-1,0-1.7c-2-3.1-2.1-6.9-0.3-10.1c1.4-2.4,3.6-4,6.1-4.6c0.9-0.2,1.8-0.3,2.7-0.2
				C327.7,255.4,329.3,257.1,329.3,259.2z"/>
			<path class="st0" d="M317.1,252.2l5.7,3.3c-2.6,0.6-4.8,2.2-6.1,4.6c-1.8,3.2-1.7,7,0.3,10.1c0.5,0.7,0.2,1.4,0,1.7
				c-0.2,0.3-0.6,0.9-1.5,0.8c-3.7-0.2-7,1.6-8.9,4.8c-1.8,3.2-1.7,7,0.3,10.1c0.5,0.7,0.2,1.4,0,1.7c-0.2,0.3-0.6,0.8-1.5,0.8
				c-3.7-0.2-7,1.6-8.9,4.8c-1.4,2.3-1.6,5.1-0.9,7.6l-5.6-3.3c-12.9-7.5-17.3-24-9.9-36.9c5-8.7,14.1-13.5,23.4-13.5
				C308.2,248.6,312.9,249.7,317.1,252.2z"/>
		</g>
		<g>
		</g>
	</g>
</g>
<g id="shadows">
	<path class="st5" d="M360.1,256.6L360.1,256.6l2.9,2.9c0.2,0.2,0.4,0.4,0.5,0.6c5.6,6.4-0.3,15.8-7.7,14.9l1.4,0.8
		c9,5.2,18-6.2,11.4-13.7c-0.2-0.2-0.4-0.4-0.5-0.6l-2.9-2.8l-0.1-0.1c-9.1-9.9-14.7-23.2-14.7-37.7c0-30.8,25-55.8,55.8-55.8
		c6.4,0,12.5,1.1,18.2,3c-7.1-3.2-14.9-5.1-23.2-5.1c-30.8,0-55.8,25-55.8,55.8C345.4,233.4,351,246.6,360.1,256.6L360.1,256.6"/>
	<path class="st5" d="M469.7,261.3l5,2l-22.3,12.9c-3.7,2.1-7.4,1.4-10-0.7c0,0,0,0,0,0s0,0,0,0c1.6,0.1,3.3-0.3,5-1.3L469.7,261.3
		L469.7,261.3"/>
	<g>
		<g class="st6">
			<path d="M425.1,248.7c-6.5,5.1-14.4,7.8-22.7,7.8c-8.3,0-16.1-2.7-22.7-7.8c-0.6-0.5-1.2-1.1-1.6-1.8c6.4,4.9,14.1,7.4,22.2,7.4
				c8.3,0,16.1-2.7,22.7-7.8c3.1-2.4,3.8-6.8,1.6-10.1c0.7,0.4,1.3,1,1.8,1.7C428.9,241.5,428.4,246.2,425.1,248.7z"/>
		</g>
		<path class="st6" d="M384,220.4c0,3.9-3.1,7-7,7c-2.6,0-4.8-1.4-6-3.4c1.1,0.7,2.3,1,3.7,1c3.9,0,7-3.1,7-7c0-1.3-0.4-2.6-1-3.6
			C382.7,215.6,384,217.8,384,220.4z"/>
		<g class="st7">
			<path d="M388,190.6c-0.2,2.2-2.1,3.9-4.4,3.7c-2.6-0.2-5.2,0.4-7.4,1.9c-2.2,1.5-3.8,3.5-4.7,6c-0.7,2.1-3,3.3-5.1,2.5
				c-1.1-0.4-2-1.2-2.4-2.3c0.1,0,0.2,0.1,0.3,0.1c2.1,0.7,4.4-0.4,5.1-2.5c0.9-2.5,2.5-4.6,4.7-6c2.2-1.5,4.8-2.1,7.4-1.9
				c2.2,0.2,4.2-1.5,4.4-3.7c0.1-0.7-0.1-1.3-0.3-1.9C387.1,187.2,388.1,188.8,388,190.6z"/>
		</g>
		<g class="st7">
			<path d="M438.4,204.4c-2.1,0.7-4.4-0.3-5.2-2.3c0.9,0.4,1.9,0.4,2.9,0.1c2.2-0.7,3.3-3.1,2.6-5.3c-0.8-2.5-2.1-4.7-3.8-6.7
				c2.8,2.4,4.9,5.4,6.1,9C441.8,201.3,440.6,203.7,438.4,204.4z"/>
		</g>
		<path class="st6" d="M435,220.4c0,3.9-3.1,7-7,7c-2.6,0-4.8-1.4-6-3.4c1.1,0.7,2.3,1,3.7,1c3.9,0,7-3.1,7-7c0-1.3-0.4-2.6-1-3.6
			C433.7,215.6,435,217.8,435,220.4z"/>
	</g>
	
		<ellipse transform="matrix(0.1913 -0.9815 0.9815 0.1913 81.8939 520.9807)" class="st5" cx="357.1" cy="210.8" rx="6.6" ry="3.2"/>
	<circle class="st5" cx="355.5" cy="221.4" r="1.4"/>
	
		<ellipse transform="matrix(0.9794 -0.2017 0.2017 0.9794 -27.6114 84.0383)" class="st5" cx="398.5" cy="177.5" rx="9.2" ry="3.2"/>
	<path class="st5" d="M382,246.5c-4.3-4.7-1.6-11.5,5-5.9c6.6,5.6,20.7,5.7,27.4-0.8c3.7-3.7,7-3.1,8.6-0.4
		c-5.2-8.9-9.2-4.8-13.9-1.7c-4.7,3.1-15.3,2-21.7-2.1C381.1,231.5,369.1,240,382,246.5z"/>
	<g class="st8">
		<path d="M438.5,255.2L438.5,255.2l-2.9,2.8c-0.2,0.2-0.4,0.4-0.5,0.6c-3.5,4-2.5,9.1,0.6,12.2c-5.2-2.1-8.1-9.1-3.6-14.2
			c0.2-0.2,0.4-0.4,0.5-0.6l2.8-2.8l0.1-0.1l-3.4,3.4c1.2-1.1,2.3-2.2,3.4-3.3l0.1-0.1c9-9.8,14.5-22.8,14.5-37.2
			c0-18.5-9.1-34.8-23-44.8c15.6,9.7,26,27,26,46.8C453,232.4,447.5,245.4,438.5,255.2L438.5,255.2c-1.1,1.2-2.2,2.3-3.4,3.4"/>
	</g>
	<path class="st5" d="M322.8,255.4l-0.4-0.2l-5.3-3.1c-4.2-2.5-8.9-3.6-13.5-3.6c-9.3,0-18.4,4.8-23.4,13.5
		c-7.5,12.9-3,29.4,9.9,36.9l0.2,0.1l0.7-0.9c-8-8.5-9.9-21.5-3.8-32c5-8.7,14.1-13.5,23.4-13.5c4,0,8,0.9,11.7,2.7l0,0"/>
	<g class="st6">
		<path d="M328.4,266.6c-0.2,0.3-0.4,1,0.1,1.7c2,3,2.1,6.9,0.3,10.1c-1.8,3.2-5.2,5-8.9,4.8c-0.9,0-1.3,0.5-1.5,0.8
			c-0.2,0.3-0.4,0.9,0.1,1.7c2,3,2.1,6.9,0.3,10.1c-1.8,3.2-5.2,5-8.9,4.8c-0.9,0-1.3,0.5-1.5,0.8c-0.2,0.3-0.4,0.9,0.1,1.7
			c1.2,1.8,0.7,4.3-1.1,5.5c-0.7,0.5-1.4,0.7-2.2,0.7c-1.3,0-2.6-0.6-3.3-1.8c-0.3-0.4-0.5-0.8-0.7-1.2c0,0,0,0,0,0
			c0.8,0,1.5-0.2,2.2-0.7c1.8-1.2,2.4-3.7,1.1-5.5c-0.5-0.7-0.2-1.4-0.1-1.7c0.2-0.3,0.6-0.9,1.5-0.8c3.7,0.2,7-1.6,8.9-4.8
			c1.8-3.2,1.7-7-0.3-10.1c-0.5-0.7-0.2-1.4-0.1-1.7c0.2-0.3,0.6-0.9,1.5-0.8c3.7,0.2,7-1.6,8.9-4.8c1.8-3.2,1.7-7-0.3-10.1
			c-0.5-0.7-0.2-1.4-0.1-1.7c0.2-0.3,0.6-0.9,1.5-0.8c2.2,0.1,4.1-1.5,4.2-3.8c0-0.4,0-0.8-0.1-1.2c0.1,0,0.2,0,0.4,0
			c2.2,0.1,3.9,2,3.8,4.2c-0.1,2.2-2,3.9-4.2,3.8C329,265.8,328.6,266.3,328.4,266.6z"/>
	</g>
	<circle class="st5" cx="337.4" cy="276.1" r="4.8"/>
	<path class="st6" d="M403.6,288.9l1.8,1c-2.3-0.6-4.7-0.3-6.8,1l-9.8,5.8c-2.9,1.4-6.1,0.6-8.1-1.4c1.3,0.2,2.8,0,4.1-0.6l9.8-5.8
		C397.3,287.3,400.8,287.3,403.6,288.9z"/>
	<path class="st6" d="M428.4,277.6l0,12c0,5.3-5.5,8.8-10.3,6.6l-2.5-1.5c4.4,1,8.8-2.3,8.8-7.1l0-12c0-2.1-0.8-3.9-2.2-5.2
		C425.6,270.9,428.4,273.8,428.4,277.6z"/>
	<path class="st5" d="M385.3,269.4l2.2,1.3c-3.9-0.2-7.5,3-7.5,7.2v10c0,2.1,0.9,4,2.3,5.3c-3.8,0-7.3-3.1-7.3-7.3v-10
		C375,270.6,380.5,267.1,385.3,269.4z"/>
	<path class="st5" d="M421,272.4c-1,0-2,0.2-3.1,0.7l-9.8,5.9c-2.8,1.7-6.3,1.7-9.1,0l-1.3-0.8c1.9,0.2,3.7-0.2,5.4-1.2l9.8-5.9
		C415.8,269.7,418.9,270.5,421,272.4z"/>
	<g class="st6">
		<path d="M487.8,261.1c1.8,3.2,1.7,7-0.3,10.1c-0.1,0.2-0.2,0.4-0.2,0.6c-0.8-0.1-1.5-0.2-2.3-0.1c-0.9,0.1-1.3-0.5-1.5-0.8
			c-0.2-0.3-0.4-1,0-1.7c2-3.1,2.1-6.9,0.3-10.1c-0.6-1-1.3-1.9-2.1-2.5C484.2,257.1,486.4,258.8,487.8,261.1z"/>
		<path d="M497.8,278.4c1.8,3.2,1.7,7-0.3,10.1c-0.1,0.2-0.2,0.4-0.2,0.6c-0.8-0.1-1.5-0.2-2.3-0.1c-0.8,0-1.3-0.5-1.5-0.8
			c-0.2-0.3-0.4-1,0-1.7c2-3.1,2.1-6.9,0.3-10.1c-0.6-1-1.3-1.9-2.1-2.6C494.2,274.5,496.4,276.1,497.8,278.4z"/>
		<path d="M504.3,302.2c1.1-2.7,1-5.8-0.6-8.4c-0.6-1-1.3-1.9-2.1-2.6c2.6,0.6,4.8,2.2,6.1,4.6c0.6,1,0.9,2,1.1,3L504.3,302.2z"/>
	</g>
	<line x1="508.5" y1="299.7" x2="503.9" y2="303.1"/>
	<path class="st5" d="M519.4,261.4c-5.2-5.7-12.5-8.9-20-8.9c-4.6,0-9.2,1.2-13.5,3.6l-4.4,2.5l-4.3-3.3l5.7-3.3
		c4.2-2.5,8.9-3.6,13.5-3.6C505.4,248.6,514.3,253.2,519.4,261.4z"/>
	<path class="st6" d="M410.8,316.2c0,5-4,9-9,9c-5,0-9-4-9-9c0-0.2,0-0.5,0-0.7c0.2,4.1,3.7,7.4,7.9,7.4c4.4,0,7.9-3.5,7.9-7.9
		c0-4.2-3.3-7.6-7.4-7.9c0.2,0,0.4,0,0.7,0C406.7,307.2,410.8,311.3,410.8,316.2z"/>
	<circle class="st5" cx="398.5" cy="312.5" r="2.7"/>
	<path class="st6" d="M410.8,350.2c0,5-4,9-9,9c-5,0-9-4-9-9c0-0.2,0-0.5,0-0.7c0.2,4.1,3.7,7.4,7.9,7.4c4.4,0,7.9-3.5,7.9-7.9
		c0-4.2-3.3-7.6-7.4-7.9c0.2,0,0.4,0,0.7,0C406.7,341.2,410.8,345.3,410.8,350.2z"/>
	<circle class="st5" cx="398.5" cy="346.5" r="2.7"/>
	<path class="st6" d="M353.8,385.2c-0.4,0-1,0.2-1.3,0.9c-1,2-3.4,2.8-5.4,1.8c-1.4-0.7-2.2-2.1-2.2-3.6c1.5,0,2.9-0.8,3.6-2.2
		c0.4-0.8,1-0.9,1.4-0.9s1,0.1,1.4,0.9C352,383.3,352.8,384.4,353.8,385.2z"/>
	<path class="st6" d="M373.8,385.2c-0.4,0-1,0.2-1.3,0.9c-1.6,3.3-4.9,5.3-8.6,5.3c-3.6,0-6.8-1.9-8.5-5.1c1.3,0.7,2.9,1.1,4.5,1.1
		c3.7,0,6.9-2,8.6-5.3c0.4-0.8,1-0.9,1.4-0.9s1,0.1,1.4,0.9C372,383.3,372.8,384.4,373.8,385.2z"/>
	<path class="st6" d="M393.8,385.2c-0.4,0-1,0.2-1.3,0.9c-1.6,3.3-4.9,5.3-8.6,5.3c-3.6,0-6.8-1.9-8.5-5.1c1.3,0.7,2.9,1.1,4.5,1.1
		c3.7,0,6.9-2,8.6-5.3c0.4-0.8,1-0.9,1.4-0.9s1,0.1,1.4,0.9C392,383.3,392.8,384.4,393.8,385.2z"/>
	<path class="st6" d="M413.8,385.2c-0.4,0-1,0.2-1.3,0.9c-1.6,3.3-4.9,5.3-8.6,5.3c-3.6,0-6.8-1.9-8.5-5.1c1.3,0.7,2.9,1.1,4.5,1.1
		c3.7,0,6.9-2,8.6-5.3c0.4-0.8,1-0.9,1.4-0.9s1,0.1,1.4,0.9C412,383.3,412.8,384.4,413.8,385.2z"/>
	<path class="st6" d="M433.8,385.2c-0.4,0-1,0.2-1.3,0.9c-1.6,3.3-4.9,5.3-8.6,5.3c-3.6,0-6.8-1.9-8.5-5.1c1.3,0.7,2.9,1.1,4.5,1.1
		c3.7,0,6.9-2,8.6-5.3c0.4-0.8,1-0.9,1.4-0.9s1,0.1,1.4,0.9C432,383.3,432.8,384.4,433.8,385.2z"/>
	<path class="st6" d="M453.9,385.2c-0.4,0-1,0.1-1.4,0.9c-1.6,3.3-4.9,5.3-8.6,5.3c-3.6,0-6.8-1.9-8.5-5.1c1.3,0.7,2.9,1.1,4.5,1.1
		c3.7,0,6.9-2,8.6-5.3c0.4-0.8,1-0.9,1.4-0.9s1,0.1,1.4,0.9c1,2,3.4,2.8,5.4,1.8c0.1-0.1,0.2-0.1,0.3-0.2
		C457.1,383.7,454.3,385.2,453.9,385.2z"/>
	<path class="st6" d="M459.2,388.3l-2.2-4.6L459.2,388.3z"/>
	<g class="st6">
		<path d="M336.2,436.5c0,1.2,0.3,2.4,0.8,3.5c-0.3-0.1-0.8-0.1-1.3,0.3c-2.9,2.3-6.7,2.7-10,1.2c-3.1-1.4-5.2-4.4-5.5-7.8
			c0.9,1.2,2.1,2.1,3.5,2.8c3.3,1.5,7.2,1.1,10-1.2c0.7-0.5,1.3-0.4,1.7-0.2C335.6,435.2,336.1,435.6,336.2,436.5z"/>
		<path d="M354.3,444.9c0,1.2,0.3,2.4,0.8,3.5c-0.3-0.1-0.8-0.1-1.3,0.3c-2.9,2.3-6.7,2.7-10,1.2c-3.1-1.5-5.2-4.4-5.5-7.8
			c0.9,1.2,2.1,2.1,3.5,2.8c3.3,1.6,7.2,1.1,10-1.2c0.7-0.5,1.3-0.3,1.7-0.2C353.7,443.7,354.3,444.1,354.3,444.9z"/>
		<path d="M374.1,456.5l-0.2,0.7c-0.1-0.1-0.3-0.2-0.4-0.2c-0.3-0.2-1-0.3-1.7,0.2c-2.9,2.3-6.7,2.7-10,1.2
			c-3.1-1.5-5.2-4.4-5.5-7.8c0.9,1.2,2.1,2.1,3.5,2.8c3.3,1.5,7.2,1.1,10-1.2c0.7-0.5,1.3-0.3,1.7-0.2c0.3,0.2,0.9,0.5,0.9,1.4
			C372.5,454.7,373.1,455.8,374.1,456.5z"/>
		<path d="M375,457l-2.7,5.9c-7,15-24.9,21.5-39.9,14.5c-3.2-1.5-6.1-3.5-8.5-5.9c1.1,0.7,2.3,1.4,3.5,1.9
			c14.9,6.9,32.6,0.6,39.7-14.2c1.7-0.2,3.4-0.9,4.8-2c0.7-0.5,1.3-0.3,1.7-0.2c0.1,0.1,0.2,0.1,0.4,0.2l0.1-0.3
			C374.5,457.1,375,457,375,457z"/>
	</g>
	<line class="st6" x1="374.1" y1="456.5" x2="373.9" y2="457.2"/>
	<g class="st9">
		<path class="st10" d="M334,323.6c1,0.6,2,1.2,2.9,1.8c11.8,8.1,19,21.6,19,36.1c0,3.2-0.4,6.4-1,9.5c-0.2,0.7-0.4,1.5-0.6,2.2
			c-1.6-1.1-4-2.1-5.9-1c0.6-1.7,1.1-3.5,1.5-5.2c0.7-3.1,1-6.3,1-9.5c0-12.3-5.2-23.9-14-32.1"/>
	</g>
	<path class="st5" d="M326.5,473.8c-4.5-3.5-7.8-8.2-9.6-13.3c-1.2-3.3-1.8-6.8-1.8-10.3c0-4.2,0.9-8.5,2.8-12.6l2-4.2l2.3,2.3
		c-0.8-0.5-1.4-1.2-2-1.9c0.3,2.7,1.6,5.1,3.7,6.7l-1,2.1c-1.9,4.1-2.8,8.4-2.8,12.6c0,3.5,0.6,7,1.8,10.3
		C322.9,468.4,324.5,471.2,326.5,473.8z"/>
	<path class="st5" d="M348.1,388.2l-19.2,41.2c-3.4,0.7-5-5-5-5l19-40.7l2,0.7c0.1,1.4,0.8,2.8,2.2,3.4
		C347.5,388,347.8,388.1,348.1,388.2z"/>
	<path class="st8" d="M392.6,419.9l-13.8,29.5c0,0-1.3-3.2-5-4l13.8-29.5c2.8-6,11.3-6.2,14.3-0.4
		C398.4,414.7,394.4,416.1,392.6,419.9z"/>
	<path class="st5" d="M425.1,455.8h2c-0.4,0.5-0.9,0.9-1.5,1.1L425.1,455.8z"/>
	<path class="st5" d="M458,478.8c-12.3,1.2-24.7-5.3-30.2-17.2l-0.2-0.3c0.1,0,0.2,0,0.3,0c0,0,0.1,0,0.1,0c2,0,3.7-1.5,4-3.5
		l1.8,3.8C438.4,471.5,447.8,477.7,458,478.8z"/>
	<path class="st5" d="M413.2,417.5c-1.9-4-6.2-5.4-9.8-4.2l7.9,11l10.8,23.1c0.2-1.2,1.9-2.4,3.5-3.3L413.2,417.5z"/>
	<path class="st8" d="M476.2,423.3c0,0-3.1,6-5,4l-19.1-40.5c0.2-0.2,0.3-0.5,0.4-0.7c0.4-0.8,1-0.9,1.4-0.9c0.3,0,1.9-0.8,2.7-1.3
		c-0.9,0.4-1.9,0.5-2.8,0.2c1.3,0.2,2.7,0,3.3-1.8L476.2,423.3z"/>
	<path class="st6" d="M482.2,436.2l-1.8-3.9c0,0-2.4,2.8-4.1,4.3c-3.2,1.2-6.7,0.7-9.4-1.4c-0.7-0.5-1.3-0.4-1.7-0.2
		c-0.3,0.2-0.9,0.5-0.9,1.4c-0.1,3.7-2.2,6.9-5.5,8.4c-3.3,1.5-7.2,1.1-10-1.2c-0.7-0.5-1.3-0.3-1.7-0.2c-0.3,0.2-0.9,0.6-0.9,1.4
		c-0.1,3.7-2.2,6.9-5.5,8.4c-3.3,1.5-7.1,1.1-10-1.2c-0.7-0.5-1.3-0.3-1.7-0.2c-0.3,0.2-0.9,0.5-0.9,1.4c0,1.7-1.2,3.2-2.8,3.7
		l2,4.1c0.2,0.1,0.4,0.1,0.7,0.1c0,0,0.1,0,0.1,0c2.2,0,3.9-1.7,4-3.9c0-0.9,0.6-1.2,0.9-1.4c0.3-0.2,1-0.3,1.7,0.2
		c2.9,2.3,6.7,2.7,10,1.2c3.3-1.5,5.4-4.8,5.5-8.4c0-0.8,0.6-1.2,0.9-1.4c0.3-0.2,1-0.3,1.7,0.2c2.9,2.3,6.7,2.7,10,1.2
		c3.3-1.5,5.4-4.8,5.5-8.4c0-0.8,0.6-1.2,0.9-1.4c0.3-0.2,1-0.3,1.7,0.2c2.1,1.7,3.8,2.5,6.4,2.1c-0.3,0.1,0.3,0,0,0
		c1.9,4.1,2.8,8.3,2.8,12.5c0,3.5-0.6,7-1.8,10.3c-1.1,3-2.6,5.8-4.6,8.3c4.5-3.5,7.8-8.1,9.6-13.3c1.2-3.3,1.8-6.8,1.8-10.3
		C485,444.6,484.1,440.3,482.2,436.2z M476.9,436.4C476.9,436.4,476.9,436.5,476.9,436.4C476.9,436.5,476.9,436.5,476.9,436.4
		c0.7-0.3,1.4-0.7,1.9-1.2c0.3-0.2,0.6-0.5,0.8-0.8c-0.3,0.3-0.5,0.5-0.8,0.8C478.2,435.7,477.6,436.1,476.9,436.4z M482,439.8
		c0.4-0.2,0.7-0.5,1-0.7l-2.6-5.4c-0.2,0.3-0.4,0.5-0.6,0.7c0.2-0.2,0.4-0.5,0.6-0.7l2.6,5.4C482.7,439.4,482.3,439.6,482,439.8z"/>
	<path class="st6" d="M456.9,383.7c-0.1,0.1-0.1,0.1-0.2,0.1c0,0-0.1,0-0.1,0C456.8,383.8,456.8,383.8,456.9,383.7z"/>
	<path class="st6" d="M427.6,461.2c-0.1,0-0.3,0-0.4-0.1l-2-4.1c0.1,0,0.2-0.1,0.4-0.2L427.6,461.2z"/>
	<path class="st8" d="M505.4,250.1c5.9,2.1,11,6.2,14.4,11.9c7.5,12.9,3,29.4-9.9,36.9l-5.2,2.4l-0.8-5.4c12.9-7.5,17.3-24,9.9-36.9
		C511.6,255.4,508.7,252.3,505.4,250.1"/>
	<path class="st8" d="M471.9,320.8c-6.8,3.9-12.3,9.5-16.1,16c-3.8,6.6-5.9,14.1-5.9,21.9c0,5,0.9,10,2.6,14.8h-5.3l-0.7-3
		c-1.7-4.7-2.6-9.7-2.6-14.8c0-7.8,2.1-15.4,5.9-21.9c3.8-6.6,9.3-12.1,16.1-16l30.4-17.5c0,0-0.8,3.8,1.3,5.7L471.9,320.8z"/>
	
		<ellipse transform="matrix(0.9457 -0.3251 0.3251 0.9457 -68.0881 112.6059)" class="st5" cx="302.9" cy="260.1" rx="6.1" ry="3.2"/>
	
		<ellipse transform="matrix(0.4256 -0.9049 0.9049 0.4256 -177.4859 548.2382)" class="st5" cx="343.1" cy="413.9" rx="7.3" ry="3.2"/>
	<circle class="st5" cx="423.8" cy="418.8" r="2.6"/>
	<circle class="st5" cx="422.9" cy="426.3" r="1.7"/>
	<circle class="st5" cx="463.1" cy="276.1" r="2.1"/>
	<circle class="st5" cx="499.4" cy="256.9" r="1.7"/>
</g>
<g id="lines">
	<path class="st11" d="M362.9,258.6c-1.2-1.1-2.3-2.2-3.4-3.3l-0.1-0.1c-9-9.8-14.5-22.8-14.5-37.2c0-30.4,24.6-55,55-55
		c30.4,0,55,24.6,55,55c0,14.4-5.5,27.4-14.5,37.2l-0.1,0.1c-1.1,1.2-2.2,2.3-3.4,3.3"/>
	<path class="st11" d="M295.8,302.2l-5.6-3.3c-12.9-7.5-17.3-24-9.9-36.9c5-8.7,14.1-13.5,23.4-13.5c4.6,0,9.2,1.2,13.5,3.6l5.7,3.3
		"/>
	<path class="st11" d="M470.7,259.2L470.7,259.2l-22.3,12.9c-9.1,5.2-18.2-6.7-10.7-14.1l2.9-2.8"/>
	<line class="st11" x1="471.9" y1="320.8" x2="497.7" y2="306"/>
	<line class="st11" x1="302.3" y1="306" x2="328.1" y2="320.8"/>
	<path class="st11" d="M319.8,433.3l-2,4.2c-1.9,4.1-2.8,8.4-2.8,12.6c0,3.5,0.6,7,1.8,10.3c2.6,7.2,8,13.4,15.5,16.9
		c15,7,32.9,0.5,39.9-14.5l2.7-5.9"/>
	<path class="st11" d="M477.2,255.4l5.7-3.3c4.2-2.5,8.9-3.6,13.5-3.6c9.3,0,18.4,4.8,23.4,13.5c7.5,12.9,3,29.4-9.9,36.9l-5.6,3.3"
		/>
	<path class="st11" d="M329.3,259.2L329.3,259.2l22.3,12.9c9.1,5.2,18.2-6.7,10.7-14.1l-2.9-2.8"/>
	<path class="st11" d="M385.6,241.5c4,3.1,9,4.9,14.4,4.9s10.4-1.8,14.4-4.9"/>
	<g>
		<path class="st11" d="M400,253.4c-7.8,0-15.2-2.5-21.4-7.3c-3.1-2.4-3.6-6.9-1.2-9.9c2.4-3.1,6.9-3.6,9.9-1.2
			c3.6,2.8,8,4.3,12.7,4.3s9-1.5,12.7-4.3c3.1-2.4,7.5-1.9,9.9,1.2c2.4,3.1,1.9,7.5-1.2,9.9C415.2,250.8,407.8,253.4,400,253.4z"/>
	</g>
	<circle class="st11" cx="374.5" cy="218" r="6"/>
	<g>
		<path class="st11" d="M369.2,187.9c3.4-2.2,7.4-3.3,11.4-2.9c2,0.2,3.6,1.9,3.4,4c-0.2,2-1.9,3.6-4,3.4c-2.4-0.2-4.8,0.4-6.8,1.7
			c-2,1.3-3.5,3.2-4.3,5.5c-0.7,1.9-2.8,3-4.7,2.3c-1.9-0.7-3-2.8-2.3-4.7C363.2,193.4,365.7,190.2,369.2,187.9z"/>
	</g>
	<circle class="st11" cx="425.5" cy="218" r="6"/>
	<g>
		<path class="st11" d="M430.8,187.9c-3.4-2.2-7.4-3.3-11.4-2.9c-2,0.2-3.6,1.9-3.4,4c0.2,2,1.9,3.6,4,3.4c2.4-0.2,4.8,0.4,6.8,1.7
			c2,1.3,3.5,3.2,4.3,5.5c0.7,1.9,2.8,3,4.7,2.3c1.9-0.7,3-2.8,2.3-4.7C436.8,193.4,434.3,190.2,430.8,187.9z"/>
	</g>
	<circle class="st11" cx="400" cy="314.4" r="7"/>
	<circle class="st11" cx="400" cy="348.4" r="7"/>
	<g>
		<path class="st11" d="M300.3,306.5c-1.3,0-2.6-0.6-3.3-1.8c-2-3.1-2.1-6.9-0.3-10.1s5.2-5,8.9-4.8c0.8,0.1,1.3-0.5,1.5-0.8
			c0.2-0.3,0.4-1,0-1.7c-2-3.1-2.1-6.9-0.3-10.1c1.8-3.2,5.2-5,8.9-4.8c0.9,0.1,1.3-0.5,1.5-0.8s0.4-1,0-1.7
			c-2-3.1-2.1-6.9-0.3-10.1s5.2-5,8.9-4.8c2.2,0.1,3.9,2,3.8,4.2c-0.1,2.2-2,3.9-4.2,3.8c-0.9-0.1-1.3,0.5-1.5,0.8s-0.4,1,0,1.7
			c2,3.1,2.1,6.9,0.3,10.1c-1.8,3.2-5.2,5-8.9,4.8c-0.9-0.1-1.3,0.5-1.5,0.8c-0.2,0.3-0.4,1,0,1.7c2,3.1,2.1,6.9,0.3,10.1
			c-1.8,3.2-5.2,5-8.9,4.8c-0.9-0.1-1.3,0.5-1.5,0.8s-0.4,1,0,1.7c1.2,1.8,0.7,4.3-1.1,5.5C301.8,306.3,301.1,306.5,300.3,306.5z"/>
	</g>
	<g>
		<path class="st11" d="M499.7,306.5c1.3,0,2.6-0.6,3.3-1.8c2-3.1,2.1-6.9,0.3-10.1s-5.2-5-8.9-4.8c-0.8,0.1-1.3-0.5-1.5-0.8
			c-0.2-0.3-0.4-1,0-1.7c2-3.1,2.1-6.9,0.3-10.1c-1.8-3.2-5.2-5-8.9-4.8c-0.9,0.1-1.3-0.5-1.5-0.8s-0.4-1,0-1.7
			c2-3.1,2.1-6.9,0.3-10.1s-5.2-5-8.9-4.8c-2.2,0.1-3.9,2-3.8,4.2c0.1,2.2,2,3.9,4.2,3.8c0.9-0.1,1.3,0.5,1.5,0.8s0.4,1,0,1.7
			c-2,3.1-2.1,6.9-0.3,10.1c1.8,3.2,5.2,5,8.9,4.8c0.9-0.1,1.3,0.5,1.5,0.8c0.2,0.3,0.4,1,0,1.7c-2,3.1-2.1,6.9-0.3,10.1
			c1.8,3.2,5.2,5,8.9,4.8c0.9-0.1,1.3,0.5,1.5,0.8s0.4,1,0,1.7c-1.2,1.8-0.7,4.3,1.1,5.5C498.2,306.3,498.9,306.5,499.7,306.5z"/>
	</g>
	<g>
		<path class="st11" d="M376.4,457.3c-2.2,0-3.9-1.7-4-3.9c0-0.9-0.6-1.2-0.9-1.4c-0.3-0.2-1-0.3-1.7,0.2c-2.9,2.3-6.7,2.7-10,1.2
			c-3.3-1.5-5.4-4.8-5.5-8.4c0-0.9-0.6-1.2-0.9-1.4c-0.3-0.2-1-0.3-1.7,0.2c-2.9,2.3-6.7,2.7-10,1.2c-3.3-1.5-5.4-4.8-5.5-8.4
			c0-0.9-0.6-1.2-0.9-1.4c-0.3-0.2-1-0.3-1.7,0.2c-2.9,2.3-6.7,2.7-10,1.2c-3.3-1.5-5.4-4.8-5.5-8.4c-0.1-2.2,1.7-4,3.9-4.1
			c0,0,0.1,0,0.1,0c2.2,0,3.9,1.7,4,3.9c0,0.9,0.6,1.2,0.9,1.4c0.3,0.2,1,0.3,1.7-0.2c2.9-2.3,6.7-2.7,10-1.2s5.4,4.8,5.5,8.4
			c0,0.9,0.6,1.2,0.9,1.4s1,0.3,1.7-0.2c2.9-2.3,6.7-2.7,10-1.2c3.3,1.5,5.4,4.8,5.5,8.4c0,0.9,0.6,1.2,0.9,1.4
			c0.3,0.2,1,0.3,1.7-0.2c2.9-2.3,6.7-2.7,10-1.2c3.3,1.5,5.4,4.8,5.5,8.4c0.1,2.2-1.7,4-3.9,4.1
			C376.5,457.3,376.4,457.3,376.4,457.3z"/>
	</g>
	<g>
		<path class="st11" d="M478.4,423.9c-2.2,0-3.9,1.7-4,3.9c0,0.9-0.6,1.2-0.9,1.4c-0.3,0.2-1,0.3-1.7-0.2c-2.9-2.3-6.7-2.7-10-1.2
			c-3.3,1.5-5.4,4.8-5.5,8.4c0,0.9-0.6,1.2-0.9,1.4c-0.3,0.2-1,0.3-1.7-0.2c-2.9-2.3-6.7-2.7-10-1.2c-3.3,1.5-5.4,4.8-5.5,8.4
			c0,0.9-0.6,1.2-0.9,1.4c-0.3,0.2-1,0.3-1.7-0.2c-2.9-2.3-6.7-2.7-10-1.2c-3.3,1.5-5.4,4.8-5.5,8.4c-0.1,2.2,1.7,4,3.9,4.1
			c0,0,0.1,0,0.1,0c2.2,0,3.9-1.7,4-3.9c0-0.9,0.6-1.2,0.9-1.4c0.3-0.2,1-0.3,1.7,0.2c2.9,2.3,6.7,2.7,10,1.2s5.4-4.8,5.5-8.4
			c0-0.9,0.6-1.2,0.9-1.4s1-0.3,1.7,0.2c2.9,2.3,6.7,2.7,10,1.2c3.3-1.5,5.4-4.8,5.5-8.4c0-0.9,0.6-1.2,0.9-1.4
			c0.3-0.2,1-0.3,1.7,0.2c2.9,2.3,6.7,2.7,10,1.2c3.3-1.5,5.4-4.8,5.5-8.4c0.1-2.2-1.7-4-3.9-4.1
			C478.5,423.9,478.4,423.9,478.4,423.9z"/>
	</g>
	<path class="st11" d="M439.9,387.4c-3.7,0-6.9-2-8.6-5.3c-0.4-0.8-1.1-0.9-1.4-0.9s-1,0.1-1.4,0.9c-1.6,3.3-4.9,5.3-8.6,5.3
		s-6.9-2-8.6-5.3c-0.4-0.8-1.1-0.9-1.4-0.9s-1,0.1-1.4,0.9c-1.6,3.3-4.9,5.3-8.6,5.3s-6.9-2-8.6-5.3c-0.4-0.8-1.1-0.9-1.4-0.9
		s-1,0.1-1.4,0.9c-1.6,3.3-4.9,5.3-8.6,5.3s-6.9-2-8.6-5.3c-0.4-0.8-1.1-0.9-1.4-0.9s-1,0.1-1.4,0.9c-1.6,3.3-4.9,5.3-8.6,5.3
		s-6.9-2-8.6-5.3c-0.4-0.8-1.1-0.9-1.4-0.9s-1,0.1-1.4,0.9c-1,2-3.4,2.8-5.4,1.8c-2-1-2.8-3.4-1.8-5.4c1.6-3.3,4.9-5.3,8.6-5.3
		s6.9,2,8.6,5.3c0.4,0.8,1.1,0.9,1.4,0.9s1-0.1,1.4-0.9c1.6-3.3,4.9-5.3,8.6-5.3s6.9,2,8.6,5.3c0.4,0.8,1.1,0.9,1.4,0.9
		s1-0.1,1.4-0.9c1.6-3.3,4.9-5.3,8.6-5.3s6.9,2,8.6,5.3c0.4,0.8,1.1,0.9,1.4,0.9s1-0.1,1.4-0.9c1.6-3.3,4.9-5.3,8.6-5.3
		s6.9,2,8.6,5.3c0.4,0.8,1.1,0.9,1.4,0.9s1-0.1,1.4-0.9c1.6-3.3,4.9-5.3,8.6-5.3s6.9,2,8.6,5.3c0.4,0.8,1.1,0.9,1.4,0.9
		s1-0.1,1.4-0.9c1.6-3.3,4.9-5.3,8.6-5.3s6.9,2,8.6,5.3c1,2,0.2,4.4-1.8,5.4c-2,1-4.4,0.2-5.4-1.8c-0.4-0.8-1.1-0.9-1.4-0.9
		s-1,0.1-1.4,0.9C446.9,385.3,443.6,387.4,439.9,387.4z"/>
	<g>
		<path class="st11" d="M379,448.4l13.8-29.5c2.9-6.2,11.6-6.2,14.5,0l14,30"/>
		<path class="st11" d="M480.4,433.7l1.8,3.9c1.9,4.1,2.8,8.4,2.8,12.6c0,3.5-0.6,7-1.8,10.3c-2.6,7.2-8,13.4-15.5,16.9
			c-15,7-32.9,0.5-39.9-14.5l-2.7-5.8"/>
		<line class="st11" x1="476.2" y1="424.6" x2="457.1" y2="383.7"/>
	</g>
	<path class="st11" d="M452.6,373.6c-1.7-4.7-2.6-9.7-2.6-14.8c0-7.8,2.1-15.4,5.9-21.9c3.8-6.6,9.3-12.1,16.1-16"/>
	<line class="st11" x1="482.2" y1="437.5" x2="480.4" y2="433.7"/>
	<line class="st11" x1="319.8" y1="433.3" x2="317.8" y2="437.5"/>
	<line class="st11" x1="342.9" y1="383.7" x2="323.9" y2="424.4"/>
	<path class="st11" d="M328.1,320.8c13.6,7.8,21.9,22.3,21.9,38c0,3.2-0.4,6.4-1,9.5c-0.4,1.8-0.9,3.5-1.5,5.2"/>
	<path class="st11" d="M384.3,280.6v2c0,0.8,1,1.3,1.8,0.9l2.4-1c0.9-0.4,0.9-1.4,0-1.8l-2.4-1C385.3,279.4,384.3,279.9,384.3,280.6
		z"/>
	<path class="st11" d="M404.5,287.3c-2.8-1.7-6.3-1.7-9.1,0l-9.8,5.8c-4.8,2.2-10.3-1.3-10.3-6.6v-10c0-5.3,5.5-8.8,10.3-6.6
		l9.8,5.8c2.8,1.7,6.3,1.7,9.1,0l9.8-5.8c4.8-2.2,10.3,1.3,10.3,6.6v10c0,5.3-5.5,8.8-10.3,6.6L404.5,287.3z"/>
	<path class="st11" d="M415.7,282.6v-2c0-0.8-1-1.3-1.8-0.9l-2.4,1c-0.9,0.4-0.9,1.4,0,1.8l2.4,1
		C414.7,283.8,415.7,283.3,415.7,282.6z"/>
	<line class="st11" x1="443.1" y1="416.2" x2="443.1" y2="416.2"/>
	<line class="st11" x1="439.1" y1="422.2" x2="439.1" y2="422.2"/>
	<line class="st11" x1="419.1" y1="412.2" x2="419.1" y2="412.2"/>
	<line class="st11" x1="379.1" y1="422.2" x2="379.1" y2="422.2"/>
	<line class="st11" x1="349.1" y1="402.2" x2="349.1" y2="402.2"/>
	<path class="st11" d="M463.6,453.5c0-1.7,1.3-3,3-3c1.7,0,3,1.3,3,3"/>
	<path class="st11" d="M334.6,275.5c0-1.7,1.3-3,3-3c1.7,0,3,1.3,3,3"/>
	<line class="st11" x1="341.1" y1="471.2" x2="341.1" y2="471.2"/>
	<line class="st11" x1="346.1" y1="466.2" x2="346.1" y2="466.2"/>
	<line class="st11" x1="446.1" y1="466.2" x2="446.1" y2="466.2"/>
	<line class="st11" x1="358.1" y1="348.2" x2="358.1" y2="348.2"/>
	<line class="st11" x1="363.1" y1="341.2" x2="363.1" y2="341.2"/>
	<line class="st11" x1="343.1" y1="311.2" x2="343.1" y2="311.2"/>
	<line class="st11" x1="375.1" y1="318.2" x2="375.1" y2="318.2"/>
	<line class="st11" x1="365.1" y1="278.2" x2="365.1" y2="278.2"/>
	<line class="st11" x1="295.1" y1="278.2" x2="295.1" y2="278.2"/>
	<line class="st11" x1="293.1" y1="269.2" x2="293.1" y2="269.2"/>
	<line class="st11" x1="463.1" y1="289.2" x2="463.1" y2="289.2"/>
	<line class="st11" x1="453.1" y1="319.2" x2="453.1" y2="319.2"/>
	<line class="st11" x1="423.1" y1="339.2" x2="423.1" y2="339.2"/>
	<line class="st11" x1="419.1" y1="331.2" x2="419.1" y2="331.2"/>
	<line class="st11" x1="439.1" y1="361.2" x2="439.1" y2="361.2"/>
	<line class="st11" x1="514.1" y1="275.2" x2="514.1" y2="275.2"/>
	<line class="st11" x1="494.1" y1="255.2" x2="494.1" y2="255.2"/>
	<line class="st11" x1="444.1" y1="230.2" x2="444.1" y2="230.2"/>
	<line class="st11" x1="404.1" y1="190.2" x2="404.1" y2="190.2"/>
	<line class="st11" x1="397.1" y1="198.2" x2="397.1" y2="198.2"/>
	<line class="st11" x1="357.1" y1="228.2" x2="357.1" y2="228.2"/>
	<line class="st11" x1="387.1" y1="171.2" x2="387.1" y2="171.2"/>
</g>
</svg>
